STARTFONT 2.1
COMMENT
COMMENT Converted from OpenType font "ipaexm.ttf" by "..\otf2bdf.exe 3.0".
COMMENT
FONT -FreeType-IPAexMincho-Medium-R-Normal--12-120-72-72-P-106-ISO10646-1
SIZE 12 72 72
FONTBOUNDINGBOX 16 16 -3 -4
STARTPROPERTIES 19
FOUNDRY "FreeType"
FAMILY_NAME "IPAexMincho"
WEIGHT_NAME "Medium"
SLANT "R"
SETWIDTH_NAME "Normal"
ADD_STYLE_NAME ""
PIXEL_SIZE 12
POINT_SIZE 120
RESOLUTION_X 72
RESOLUTION_Y 72
SPACING "P"
AVERAGE_WIDTH 106
CHARSET_REGISTRY "ISO10646"
CHARSET_ENCODING "1"
FONT_ASCENT 10
FONT_DESCENT 1
COPYRIGHT "Copyright(c) Information-technology Promotion Agency, Japan (IPA), 2003-2019. You must accept "https://opensource.org/licenses/IPA/" to use this product."
_OTF_FONTFILE "ipaexm.ttf"
_OTF_PSNAME "IPAexMincho"
ENDPROPERTIES
CHARS 11691
STARTCHAR 0020
ENCODING 32
SWIDTH 250 0
DWIDTH 3 0
BBX 0 0 0 0
BITMAP
ENDCHAR
STARTCHAR 0021
ENCODING 33
SWIDTH 250 0
DWIDTH 3 0
BBX 1 9 1 0
BITMAP
80
80
80
80
80
80
00
00
80
ENDCHAR
STARTCHAR 0022
ENCODING 34
SWIDTH 333 0
DWIDTH 4 0
BBX 3 3 1 5
BITMAP
A0
A0
C0
ENDCHAR
STARTCHAR 0023
ENCODING 35
SWIDTH 583 0
DWIDTH 7 0
BBX 6 9 1 0
BITMAP
28
48
48
FC
50
FC
50
90
A0
ENDCHAR
STARTCHAR 0024
ENCODING 36
SWIDTH 583 0
DWIDTH 7 0
BBX 6 10 0 -1
BITMAP
10
7C
54
50
30
1C
14
D4
5C
30
ENDCHAR
STARTCHAR 0025
ENCODING 37
SWIDTH 750 0
DWIDTH 9 0
BBX 8 9 1 -1
BITMAP
42
A4
A8
A8
D6
29
29
49
86
ENDCHAR
STARTCHAR 0026
ENCODING 38
SWIDTH 750 0
DWIDTH 9 0
BBX 7 9 1 0
BITMAP
30
48
48
50
62
94
8C
8C
76
ENDCHAR
STARTCHAR 0027
ENCODING 39
SWIDTH 250 0
DWIDTH 3 0
BBX 1 3 1 5
BITMAP
80
80
80
ENDCHAR
STARTCHAR 0028
ENCODING 40
SWIDTH 333 0
DWIDTH 4 0
BBX 3 12 1 -2
BITMAP
40
40
80
80
80
80
80
80
80
40
40
20
ENDCHAR
STARTCHAR 0029
ENCODING 41
SWIDTH 333 0
DWIDTH 4 0
BBX 2 11 1 -2
BITMAP
80
80
80
40
40
40
40
40
40
80
80
ENDCHAR
STARTCHAR 002A
ENCODING 42
SWIDTH 250 0
DWIDTH 3 0
BBX 3 4 0 5
BITMAP
40
E0
E0
40
ENDCHAR
STARTCHAR 002B
ENCODING 43
SWIDTH 666 0
DWIDTH 8 0
BBX 7 7 1 -1
BITMAP
10
10
10
FE
10
10
10
ENDCHAR
STARTCHAR 002C
ENCODING 44
SWIDTH 250 0
DWIDTH 3 0
BBX 1 2 1 -1
BITMAP
80
80
ENDCHAR
STARTCHAR 002D
ENCODING 45
SWIDTH 333 0
DWIDTH 4 0
BBX 3 1 0 3
BITMAP
E0
ENDCHAR
STARTCHAR 002E
ENCODING 46
SWIDTH 250 0
DWIDTH 3 0
BBX 1 1 1 0
BITMAP
80
ENDCHAR
STARTCHAR 002F
ENCODING 47
SWIDTH 500 0
DWIDTH 6 0
BBX 4 10 1 -2
BITMAP
10
10
20
20
20
40
40
80
80
80
ENDCHAR
STARTCHAR 0030
ENCODING 48
SWIDTH 583 0
DWIDTH 7 0
BBX 6 9 1 0
BITMAP
70
48
84
84
84
84
84
48
78
ENDCHAR
STARTCHAR 0031
ENCODING 49
SWIDTH 583 0
DWIDTH 7 0
BBX 2 9 3 0
BITMAP
80
80
80
80
80
80
80
80
C0
ENDCHAR
STARTCHAR 0032
ENCODING 50
SWIDTH 583 0
DWIDTH 7 0
BBX 6 9 1 0
BITMAP
70
88
C8
08
10
60
84
88
F8
ENDCHAR
STARTCHAR 0033
ENCODING 51
SWIDTH 583 0
DWIDTH 7 0
BBX 5 9 1 0
BITMAP
70
88
88
08
30
08
08
88
70
ENDCHAR
STARTCHAR 0034
ENCODING 52
SWIDTH 583 0
DWIDTH 7 0
BBX 7 9 0 0
BITMAP
08
08
18
28
48
48
FE
08
0C
ENDCHAR
STARTCHAR 0035
ENCODING 53
SWIDTH 583 0
DWIDTH 7 0
BBX 6 9 1 0
BITMAP
78
80
80
B0
C8
04
84
8C
78
ENDCHAR
STARTCHAR 0036
ENCODING 54
SWIDTH 583 0
DWIDTH 7 0
BBX 6 9 1 0
BITMAP
78
48
80
B0
C8
84
84
4C
78
ENDCHAR
STARTCHAR 0037
ENCODING 55
SWIDTH 583 0
DWIDTH 7 0
BBX 6 9 1 0
BITMAP
FC
88
88
10
10
10
20
20
20
ENDCHAR
STARTCHAR 0038
ENCODING 56
SWIDTH 583 0
DWIDTH 7 0
BBX 6 9 1 0
BITMAP
70
88
88
50
70
8C
84
CC
78
ENDCHAR
STARTCHAR 0039
ENCODING 57
SWIDTH 583 0
DWIDTH 7 0
BBX 5 9 1 0
BITMAP
70
88
88
88
98
78
08
90
60
ENDCHAR
STARTCHAR 003A
ENCODING 58
SWIDTH 250 0
DWIDTH 3 0
BBX 1 6 1 0
BITMAP
80
00
00
00
00
80
ENDCHAR
STARTCHAR 003B
ENCODING 59
SWIDTH 250 0
DWIDTH 3 0
BBX 1 7 1 -1
BITMAP
80
00
00
00
80
80
80
ENDCHAR
STARTCHAR 003C
ENCODING 60
SWIDTH 666 0
DWIDTH 8 0
BBX 6 7 1 1
BITMAP
04
18
60
80
60
18
04
ENDCHAR
STARTCHAR 003D
ENCODING 61
SWIDTH 666 0
DWIDTH 8 0
BBX 6 3 1 2
BITMAP
FC
00
FC
ENDCHAR
STARTCHAR 003E
ENCODING 62
SWIDTH 666 0
DWIDTH 8 0
BBX 6 7 1 1
BITMAP
80
60
18
04
18
60
80
ENDCHAR
STARTCHAR 003F
ENCODING 63
SWIDTH 500 0
DWIDTH 6 0
BBX 4 9 1 0
BITMAP
60
90
90
10
20
40
40
00
40
ENDCHAR
STARTCHAR 0040
ENCODING 64
SWIDTH 916 0
DWIDTH 11 0
BBX 9 9 1 0
BITMAP
1E00
6100
4E80
9480
A480
A580
BF00
6000
3E00
ENDCHAR
STARTCHAR 0041
ENCODING 65
SWIDTH 750 0
DWIDTH 9 0
BBX 7 9 1 0
BITMAP
10
10
30
48
48
7C
84
84
82
ENDCHAR
STARTCHAR 0042
ENCODING 66
SWIDTH 750 0
DWIDTH 9 0
BBX 6 9 2 0
BITMAP
F8
84
84
8C
F0
8C
84
84
88
ENDCHAR
STARTCHAR 0043
ENCODING 67
SWIDTH 750 0
DWIDTH 9 0
BBX 7 9 1 0
BITMAP
3C
42
80
80
80
80
82
42
3C
ENDCHAR
STARTCHAR 0044
ENCODING 68
SWIDTH 750 0
DWIDTH 9 0
BBX 7 9 2 0
BITMAP
F8
84
82
82
82
82
82
84
D8
ENDCHAR
STARTCHAR 0045
ENCODING 69
SWIDTH 666 0
DWIDTH 8 0
BBX 6 9 2 0
BITMAP
FC
84
80
90
F0
90
80
84
8C
ENDCHAR
STARTCHAR 0046
ENCODING 70
SWIDTH 666 0
DWIDTH 8 0
BBX 6 9 2 0
BITMAP
FC
84
80
90
F0
90
80
80
80
ENDCHAR
STARTCHAR 0047
ENCODING 71
SWIDTH 750 0
DWIDTH 9 0
BBX 7 9 1 0
BITMAP
3C
42
80
80
80
82
82
42
3E
ENDCHAR
STARTCHAR 0048
ENCODING 72
SWIDTH 833 0
DWIDTH 10 0
BBX 6 9 2 0
BITMAP
84
84
84
84
FC
84
84
84
84
ENDCHAR
STARTCHAR 0049
ENCODING 73
SWIDTH 416 0
DWIDTH 5 0
BBX 1 9 2 0
BITMAP
80
80
80
80
80
80
80
80
80
ENDCHAR
STARTCHAR 004A
ENCODING 74
SWIDTH 500 0
DWIDTH 6 0
BBX 4 9 0 0
BITMAP
10
10
10
10
10
10
10
90
E0
ENDCHAR
STARTCHAR 004B
ENCODING 75
SWIDTH 750 0
DWIDTH 9 0
BBX 6 9 2 0
BITMAP
84
88
90
A0
E0
90
90
88
84
ENDCHAR
STARTCHAR 004C
ENCODING 76
SWIDTH 583 0
DWIDTH 7 0
BBX 6 9 2 0
BITMAP
80
80
80
80
80
80
84
84
88
ENDCHAR
STARTCHAR 004D
ENCODING 77
SWIDTH 916 0
DWIDTH 11 0
BBX 8 9 2 0
BITMAP
C3
C3
C5
A5
A5
A9
99
99
91
ENDCHAR
STARTCHAR 004E
ENCODING 78
SWIDTH 833 0
DWIDTH 10 0
BBX 6 9 2 -1
BITMAP
84
C4
C4
A4
A4
94
94
8C
84
ENDCHAR
STARTCHAR 004F
ENCODING 79
SWIDTH 833 0
DWIDTH 10 0
BBX 8 9 1 0
BITMAP
3C
42
81
81
81
81
81
42
3C
ENDCHAR
STARTCHAR 0050
ENCODING 80
SWIDTH 666 0
DWIDTH 8 0
BBX 7 9 1 0
BITMAP
FC
42
42
42
46
7C
40
40
40
ENDCHAR
STARTCHAR 0051
ENCODING 81
SWIDTH 833 0
DWIDTH 10 0
BBX 8 10 1 -1
BITMAP
3C
42
C3
81
81
81
B9
6A
3C
03
ENDCHAR
STARTCHAR 0052
ENCODING 82
SWIDTH 666 0
DWIDTH 8 0
BBX 6 9 2 0
BITMAP
F8
84
84
84
F8
90
88
88
84
ENDCHAR
STARTCHAR 0053
ENCODING 83
SWIDTH 583 0
DWIDTH 7 0
BBX 5 9 1 1
BITMAP
78
88
80
80
60
18
08
88
70
ENDCHAR
STARTCHAR 0054
ENCODING 84
SWIDTH 583 0
DWIDTH 7 0
BBX 7 9 0 0
BITMAP
FE
10
10
10
10
10
10
10
10
ENDCHAR
STARTCHAR 0055
ENCODING 85
SWIDTH 833 0
DWIDTH 10 0
BBX 6 9 2 0
BITMAP
84
84
84
84
84
84
84
CC
78
ENDCHAR
STARTCHAR 0056
ENCODING 86
SWIDTH 750 0
DWIDTH 9 0
BBX 7 9 1 0
BITMAP
82
84
44
44
48
28
30
30
10
ENDCHAR
STARTCHAR 0057
ENCODING 87
SWIDTH 1000 0
DWIDTH 12 0
BBX 10 9 1 0
BITMAP
8840
8880
8880
4C80
5500
5500
3300
2300
2200
ENDCHAR
STARTCHAR 0058
ENCODING 88
SWIDTH 750 0
DWIDTH 9 0
BBX 7 9 1 0
BITMAP
86
84
48
30
10
28
48
84
86
ENDCHAR
STARTCHAR 0059
ENCODING 89
SWIDTH 666 0
DWIDTH 8 0
BBX 7 9 1 0
BITMAP
C2
84
44
28
30
10
10
10
10
ENDCHAR
STARTCHAR 005A
ENCODING 90
SWIDTH 666 0
DWIDTH 8 0
BBX 7 10 0 -1
BITMAP
7E
44
04
08
10
10
20
42
86
78
ENDCHAR
STARTCHAR 005B
ENCODING 91
SWIDTH 333 0
DWIDTH 4 0
BBX 2 11 1 -2
BITMAP
C0
80
80
80
80
80
80
80
80
80
C0
ENDCHAR
STARTCHAR 005C
ENCODING 92
SWIDTH 500 0
DWIDTH 6 0
BBX 4 10 1 -2
BITMAP
80
80
80
40
40
40
20
20
10
10
ENDCHAR
STARTCHAR 005D
ENCODING 93
SWIDTH 333 0
DWIDTH 4 0
BBX 2 11 1 -2
BITMAP
C0
40
40
40
40
40
40
40
40
40
C0
ENDCHAR
STARTCHAR 005E
ENCODING 94
SWIDTH 500 0
DWIDTH 6 0
BBX 5 3 0 4
BITMAP
30
48
88
ENDCHAR
STARTCHAR 005F
ENCODING 95
SWIDTH 500 0
DWIDTH 6 0
BBX 6 1 0 -1
BITMAP
FC
ENDCHAR
STARTCHAR 0060
ENCODING 96
SWIDTH 500 0
DWIDTH 6 0
BBX 1 1 2 8
BITMAP
80
ENDCHAR
STARTCHAR 0061
ENCODING 97
SWIDTH 583 0
DWIDTH 7 0
BBX 6 6 0 0
BITMAP
38
48
38
C8
88
FC
ENDCHAR
STARTCHAR 0062
ENCODING 98
SWIDTH 583 0
DWIDTH 7 0
BBX 7 9 0 -1
BITMAP
C0
40
40
5C
66
42
42
46
7C
ENDCHAR
STARTCHAR 0063
ENCODING 99
SWIDTH 500 0
DWIDTH 6 0
BBX 5 6 1 0
BITMAP
70
C8
80
80
C8
70
ENDCHAR
STARTCHAR 0064
ENCODING 100
SWIDTH 583 0
DWIDTH 7 0
BBX 6 9 0 0
BITMAP
0C
04
04
7C
C4
84
84
CC
74
ENDCHAR
STARTCHAR 0065
ENCODING 101
SWIDTH 583 0
DWIDTH 7 0
BBX 5 6 1 0
BITMAP
70
88
F8
80
80
78
ENDCHAR
STARTCHAR 0066
ENCODING 102
SWIDTH 333 0
DWIDTH 4 0
BBX 4 9 0 0
BITMAP
30
40
40
F0
40
40
40
40
40
ENDCHAR
STARTCHAR 0067
ENCODING 103
SWIDTH 583 0
DWIDTH 7 0
BBX 5 8 1 -2
BITMAP
70
88
88
70
80
F8
88
70
ENDCHAR
STARTCHAR 0068
ENCODING 104
SWIDTH 583 0
DWIDTH 7 0
BBX 6 9 0 0
BITMAP
C0
40
40
58
64
44
44
44
44
ENDCHAR
STARTCHAR 0069
ENCODING 105
SWIDTH 333 0
DWIDTH 4 0
BBX 1 9 2 0
BITMAP
80
00
00
80
80
80
80
80
80
ENDCHAR
STARTCHAR 006A
ENCODING 106
SWIDTH 333 0
DWIDTH 4 0
BBX 3 11 -1 -2
BITMAP
20
00
00
20
20
20
20
20
20
20
E0
ENDCHAR
STARTCHAR 006B
ENCODING 107
SWIDTH 583 0
DWIDTH 7 0
BBX 6 9 0 0
BITMAP
C0
40
40
4C
50
60
50
48
44
ENDCHAR
STARTCHAR 006C
ENCODING 108
SWIDTH 333 0
DWIDTH 4 0
BBX 1 9 1 0
BITMAP
80
80
80
80
80
80
80
80
80
ENDCHAR
STARTCHAR 006D
ENCODING 109
SWIDTH 916 0
DWIDTH 11 0
BBX 8 6 2 0
BITMAP
6E
91
91
91
91
91
ENDCHAR
STARTCHAR 006E
ENCODING 110
SWIDTH 666 0
DWIDTH 8 0
BBX 4 6 2 0
BITMAP
60
90
90
90
90
90
ENDCHAR
STARTCHAR 006F
ENCODING 111
SWIDTH 583 0
DWIDTH 7 0
BBX 5 6 1 0
BITMAP
70
88
88
88
88
70
ENDCHAR
STARTCHAR 0070
ENCODING 112
SWIDTH 583 0
DWIDTH 7 0
BBX 6 8 1 -1
BITMAP
B8
CC
84
84
8C
F8
80
80
ENDCHAR
STARTCHAR 0071
ENCODING 113
SWIDTH 583 0
DWIDTH 7 0
BBX 6 8 0 -1
BITMAP
7C
C4
84
84
C4
7C
04
04
ENDCHAR
STARTCHAR 0072
ENCODING 114
SWIDTH 416 0
DWIDTH 5 0
BBX 4 6 2 0
BITMAP
70
80
80
80
80
80
ENDCHAR
STARTCHAR 0073
ENCODING 115
SWIDTH 500 0
DWIDTH 6 0
BBX 4 6 1 0
BITMAP
F0
80
80
70
90
F0
ENDCHAR
STARTCHAR 0074
ENCODING 116
SWIDTH 333 0
DWIDTH 4 0
BBX 4 7 0 1
BITMAP
40
F0
40
40
40
40
70
ENDCHAR
STARTCHAR 0075
ENCODING 117
SWIDTH 583 0
DWIDTH 7 0
BBX 5 6 1 0
BITMAP
88
88
88
88
88
F8
ENDCHAR
STARTCHAR 0076
ENCODING 118
SWIDTH 500 0
DWIDTH 6 0
BBX 5 6 1 0
BITMAP
88
90
90
60
60
20
ENDCHAR
STARTCHAR 0077
ENCODING 119
SWIDTH 750 0
DWIDTH 9 0
BBX 8 6 1 0
BITMAP
91
92
9A
6A
6C
44
ENDCHAR
STARTCHAR 0078
ENCODING 120
SWIDTH 500 0
DWIDTH 6 0
BBX 5 6 1 0
BITMAP
88
50
60
60
90
18
ENDCHAR
STARTCHAR 0079
ENCODING 121
SWIDTH 500 0
DWIDTH 6 0
BBX 5 8 1 -2
BITMAP
88
90
90
60
60
20
40
C0
ENDCHAR
STARTCHAR 007A
ENCODING 122
SWIDTH 500 0
DWIDTH 6 0
BBX 5 6 0 0
BITMAP
78
10
10
20
40
F8
ENDCHAR
STARTCHAR 007B
ENCODING 123
SWIDTH 333 0
DWIDTH 4 0
BBX 2 11 0 -2
BITMAP
40
40
40
40
40
80
40
40
40
40
40
ENDCHAR
STARTCHAR 007C
ENCODING 124
SWIDTH 166 0
DWIDTH 2 0
BBX 1 11 1 -2
BITMAP
80
80
80
80
80
80
80
80
80
80
80
ENDCHAR
STARTCHAR 007D
ENCODING 125
SWIDTH 333 0
DWIDTH 4 0
BBX 2 11 2 -2
BITMAP
80
80
80
80
80
40
80
80
80
80
80
ENDCHAR
STARTCHAR 007E
ENCODING 126
SWIDTH 500 0
DWIDTH 6 0
BBX 3 1 2 7
BITMAP
E0
ENDCHAR
STARTCHAR 00A0
ENCODING 160
SWIDTH 250 0
DWIDTH 3 0
BBX 0 0 0 0
BITMAP
ENDCHAR
STARTCHAR 00A1
ENCODING 161
SWIDTH 250 0
DWIDTH 3 0
BBX 1 9 1 0
BITMAP
80
00
00
80
80
80
80
80
80
ENDCHAR
STARTCHAR 00A2
ENCODING 162
SWIDTH 583 0
DWIDTH 7 0
BBX 5 8 1 1
BITMAP
10
70
E8
A0
A0
C0
78
40
ENDCHAR
STARTCHAR 00A3
ENCODING 163
SWIDTH 750 0
DWIDTH 9 0
BBX 7 9 1 0
BITMAP
3C
24
20
20
78
20
10
F0
EE
ENDCHAR
STARTCHAR 00A4
ENCODING 164
SWIDTH 583 0
DWIDTH 7 0
BBX 5 5 1 2
BITMAP
F8
88
88
88
F0
ENDCHAR
STARTCHAR 00A5
ENCODING 165
SWIDTH 583 0
DWIDTH 7 0
BBX 7 9 0 0
BITMAP
C2
44
28
28
7E
10
7E
10
10
ENDCHAR
STARTCHAR 00A6
ENCODING 166
SWIDTH 166 0
DWIDTH 2 0
BBX 1 11 1 -2
BITMAP
80
80
80
80
80
00
80
80
80
80
80
ENDCHAR
STARTCHAR 00A7
ENCODING 167
SWIDTH 666 0
DWIDTH 8 0
BBX 5 11 2 -1
BITMAP
70
90
90
C0
B0
88
48
30
08
88
70
ENDCHAR
STARTCHAR 00A8
ENCODING 168
SWIDTH 500 0
DWIDTH 6 0
BBX 4 1 1 8
BITMAP
90
ENDCHAR
STARTCHAR 00A9
ENCODING 169
SWIDTH 1000 0
DWIDTH 12 0
BBX 10 10 1 -1
BITMAP
1E00
7D80
7280
A040
A040
A040
B240
5C80
6180
1E00
ENDCHAR
STARTCHAR 00AA
ENCODING 170
SWIDTH 416 0
DWIDTH 5 0
BBX 4 6 1 3
BITMAP
E0
20
E0
F0
00
E0
ENDCHAR
STARTCHAR 00AB
ENCODING 171
SWIDTH 500 0
DWIDTH 6 0
BBX 4 5 1 2
BITMAP
50
A0
A0
90
40
ENDCHAR
STARTCHAR 00AC
ENCODING 172
SWIDTH 666 0
DWIDTH 8 0
BBX 6 3 1 1
BITMAP
FC
04
04
ENDCHAR
STARTCHAR 00AD
ENCODING 173
SWIDTH 666 0
DWIDTH 8 0
BBX 6 1 1 3
BITMAP
FC
ENDCHAR
STARTCHAR 00AE
ENCODING 174
SWIDTH 1000 0
DWIDTH 12 0
BBX 10 10 1 -1
BITMAP
1E00
6180
5E80
9240
9240
9C40
9240
5180
6180
1E00
ENDCHAR
STARTCHAR 00AF
ENCODING 175
SWIDTH 500 0
DWIDTH 6 0
BBX 4 1 1 7
BITMAP
F0
ENDCHAR
STARTCHAR 00B0
ENCODING 176
SWIDTH 333 0
DWIDTH 4 0
BBX 2 2 1 8
BITMAP
C0
C0
ENDCHAR
STARTCHAR 00B1
ENCODING 177
SWIDTH 666 0
DWIDTH 8 0
BBX 7 6 1 2
BITMAP
10
10
FE
10
10
FE
ENDCHAR
STARTCHAR 00B2
ENCODING 178
SWIDTH 333 0
DWIDTH 4 0
BBX 4 5 0 4
BITMAP
70
50
20
D0
70
ENDCHAR
STARTCHAR 00B3
ENCODING 179
SWIDTH 333 0
DWIDTH 4 0
BBX 3 5 1 4
BITMAP
E0
A0
40
A0
E0
ENDCHAR
STARTCHAR 00B4
ENCODING 180
SWIDTH 500 0
DWIDTH 6 0
BBX 1 1 3 8
BITMAP
80
ENDCHAR
STARTCHAR 00B6
ENCODING 182
SWIDTH 1000 0
DWIDTH 12 0
BBX 5 11 3 -2
BITMAP
78
E8
E8
E8
68
28
28
28
28
28
28
ENDCHAR
STARTCHAR 00B7
ENCODING 183
SWIDTH 250 0
DWIDTH 3 0
BBX 1 1 1 3
BITMAP
80
ENDCHAR
STARTCHAR 00B8
ENCODING 184
SWIDTH 500 0
DWIDTH 6 0
BBX 2 3 2 -2
BITMAP
80
40
80
ENDCHAR
STARTCHAR 00B9
ENCODING 185
SWIDTH 333 0
DWIDTH 4 0
BBX 1 4 2 5
BITMAP
80
80
80
80
ENDCHAR
STARTCHAR 00BA
ENCODING 186
SWIDTH 416 0
DWIDTH 5 0
BBX 3 6 1 3
BITMAP
E0
A0
A0
E0
00
E0
ENDCHAR
STARTCHAR 00BB
ENCODING 187
SWIDTH 500 0
DWIDTH 6 0
BBX 4 5 1 2
BITMAP
A0
90
50
A0
20
ENDCHAR
STARTCHAR 00BC
ENCODING 188
SWIDTH 750 0
DWIDTH 9 0
BBX 8 9 1 -1
BITMAP
40
42
44
48
50
16
2A
4F
82
ENDCHAR
STARTCHAR 00BD
ENCODING 189
SWIDTH 750 0
DWIDTH 9 0
BBX 8 9 1 -1
BITMAP
40
42
44
48
50
17
21
46
87
ENDCHAR
STARTCHAR 00BE
ENCODING 190
SWIDTH 750 0
DWIDTH 9 0
BBX 8 9 1 -1
BITMAP
E2
24
44
28
F2
26
2A
4F
82
ENDCHAR
STARTCHAR 00BF
ENCODING 191
SWIDTH 500 0
DWIDTH 6 0
BBX 5 9 1 0
BITMAP
20
00
20
20
40
80
98
88
70
ENDCHAR
STARTCHAR 00C0
ENCODING 192
SWIDTH 750 0
DWIDTH 9 0
BBX 7 11 1 0
BITMAP
20
10
10
10
30
48
48
7C
84
84
82
ENDCHAR
STARTCHAR 00C1
ENCODING 193
SWIDTH 750 0
DWIDTH 9 0
BBX 7 11 1 0
BITMAP
08
10
10
10
30
48
48
7C
84
84
82
ENDCHAR
STARTCHAR 00C2
ENCODING 194
SWIDTH 750 0
DWIDTH 9 0
BBX 7 11 1 1
BITMAP
30
00
10
10
28
48
48
7C
84
84
82
ENDCHAR
STARTCHAR 00C3
ENCODING 195
SWIDTH 750 0
DWIDTH 9 0
BBX 7 11 1 0
BITMAP
38
00
10
10
28
48
48
7C
84
84
82
ENDCHAR
STARTCHAR 00C4
ENCODING 196
SWIDTH 750 0
DWIDTH 9 0
BBX 7 11 1 0
BITMAP
28
00
10
10
28
48
48
7C
84
84
82
ENDCHAR
STARTCHAR 00C5
ENCODING 197
SWIDTH 750 0
DWIDTH 9 0
BBX 7 11 1 0
BITMAP
30
30
10
10
30
48
48
7C
84
84
82
ENDCHAR
STARTCHAR 00C6
ENCODING 198
SWIDTH 1000 0
DWIDTH 12 0
BBX 11 9 0 0
BITMAP
0FE0
1420
1400
2480
3F80
2480
4400
8420
8460
ENDCHAR
STARTCHAR 00C7
ENCODING 199
SWIDTH 750 0
DWIDTH 9 0
BBX 7 12 1 -3
BITMAP
3C
42
80
80
80
80
82
42
3C
10
08
30
ENDCHAR
STARTCHAR 00C8
ENCODING 200
SWIDTH 666 0
DWIDTH 8 0
BBX 6 11 2 0
BITMAP
40
20
DC
84
80
90
F0
90
80
84
8C
ENDCHAR
STARTCHAR 00C9
ENCODING 201
SWIDTH 666 0
DWIDTH 8 0
BBX 6 11 2 0
BITMAP
10
20
DC
84
80
90
F0
90
80
84
8C
ENDCHAR
STARTCHAR 00CA
ENCODING 202
SWIDTH 666 0
DWIDTH 8 0
BBX 6 11 2 1
BITMAP
30
00
FC
84
80
90
F0
90
80
84
8C
ENDCHAR
STARTCHAR 00CB
ENCODING 203
SWIDTH 666 0
DWIDTH 8 0
BBX 6 11 2 0
BITMAP
48
00
FC
84
80
90
F0
90
80
84
8C
ENDCHAR
STARTCHAR 00CC
ENCODING 204
SWIDTH 416 0
DWIDTH 5 0
BBX 2 11 1 0
BITMAP
80
40
40
40
40
40
40
40
40
40
40
ENDCHAR
STARTCHAR 00CD
ENCODING 205
SWIDTH 416 0
DWIDTH 5 0
BBX 2 11 2 0
BITMAP
40
80
80
80
80
80
80
80
80
80
80
ENDCHAR
STARTCHAR 00CE
ENCODING 206
SWIDTH 416 0
DWIDTH 5 0
BBX 3 11 1 1
BITMAP
E0
00
40
40
40
40
40
40
40
40
40
ENDCHAR
STARTCHAR 00CF
ENCODING 207
SWIDTH 416 0
DWIDTH 5 0
BBX 3 11 1 0
BITMAP
A0
00
40
40
40
40
40
40
40
40
40
ENDCHAR
STARTCHAR 00D0
ENCODING 208
SWIDTH 750 0
DWIDTH 9 0
BBX 8 9 1 0
BITMAP
7C
42
41
41
F1
41
41
42
6C
ENDCHAR
STARTCHAR 00D1
ENCODING 209
SWIDTH 833 0
DWIDTH 10 0
BBX 6 11 2 -1
BITMAP
30
00
84
C4
C4
A4
A4
94
94
8C
84
ENDCHAR
STARTCHAR 00D2
ENCODING 210
SWIDTH 833 0
DWIDTH 10 0
BBX 8 11 1 0
BITMAP
20
10
3C
C2
81
81
81
81
C1
42
3C
ENDCHAR
STARTCHAR 00D3
ENCODING 211
SWIDTH 833 0
DWIDTH 10 0
BBX 8 11 1 0
BITMAP
08
10
3C
C2
81
81
81
81
C1
42
3C
ENDCHAR
STARTCHAR 00D4
ENCODING 212
SWIDTH 833 0
DWIDTH 10 0
BBX 8 11 1 1
BITMAP
18
00
3C
C2
81
81
81
81
C1
42
3C
ENDCHAR
STARTCHAR 00D5
ENCODING 213
SWIDTH 833 0
DWIDTH 10 0
BBX 8 11 1 0
BITMAP
3C
00
3C
C2
81
81
81
81
C1
42
3C
ENDCHAR
STARTCHAR 00D6
ENCODING 214
SWIDTH 833 0
DWIDTH 10 0
BBX 8 11 1 0
BITMAP
24
00
3C
C2
81
81
81
81
C1
42
3C
ENDCHAR
STARTCHAR 00D7
ENCODING 215
SWIDTH 666 0
DWIDTH 8 0
BBX 5 5 2 2
BITMAP
90
60
20
D0
08
ENDCHAR
STARTCHAR 00D8
ENCODING 216
SWIDTH 833 0
DWIDTH 10 0
BBX 8 9 1 -1
BITMAP
3E
42
C5
89
91
A1
A3
42
BC
ENDCHAR
STARTCHAR 00D9
ENCODING 217
SWIDTH 833 0
DWIDTH 10 0
BBX 6 10 2 1
BITMAP
20
84
84
84
84
84
84
84
CC
78
ENDCHAR
STARTCHAR 00DA
ENCODING 218
SWIDTH 833 0
DWIDTH 10 0
BBX 6 9 2 2
BITMAP
84
84
84
84
84
84
84
CC
78
ENDCHAR
STARTCHAR 00DB
ENCODING 219
SWIDTH 833 0
DWIDTH 10 0
BBX 6 11 2 1
BITMAP
30
00
84
84
84
84
84
84
84
CC
78
ENDCHAR
STARTCHAR 00DC
ENCODING 220
SWIDTH 833 0
DWIDTH 10 0
BBX 6 11 2 0
BITMAP
28
00
84
84
84
84
84
84
84
CC
78
ENDCHAR
STARTCHAR 00DD
ENCODING 221
SWIDTH 666 0
DWIDTH 8 0
BBX 7 11 1 0
BITMAP
08
10
C2
84
44
28
30
10
10
10
10
ENDCHAR
STARTCHAR 00DE
ENCODING 222
SWIDTH 666 0
DWIDTH 8 0
BBX 6 9 2 0
BITMAP
80
80
F8
84
84
84
88
F0
80
ENDCHAR
STARTCHAR 00DF
ENCODING 223
SWIDTH 583 0
DWIDTH 7 0
BBX 5 9 1 0
BITMAP
70
90
90
A0
90
88
88
88
B0
ENDCHAR
STARTCHAR 00E0
ENCODING 224
SWIDTH 583 0
DWIDTH 7 0
BBX 6 9 0 0
BITMAP
40
20
00
30
48
38
C8
88
FC
ENDCHAR
STARTCHAR 00E1
ENCODING 225
SWIDTH 583 0
DWIDTH 7 0
BBX 6 9 0 0
BITMAP
10
20
00
30
48
38
C8
88
FC
ENDCHAR
STARTCHAR 00E2
ENCODING 226
SWIDTH 583 0
DWIDTH 7 0
BBX 6 9 0 0
BITMAP
20
50
00
30
48
38
C8
88
FC
ENDCHAR
STARTCHAR 00E3
ENCODING 227
SWIDTH 583 0
DWIDTH 7 0
BBX 6 9 0 0
BITMAP
70
00
00
30
48
38
C8
88
FC
ENDCHAR
STARTCHAR 00E4
ENCODING 228
SWIDTH 583 0
DWIDTH 7 0
BBX 6 9 0 0
BITMAP
50
00
00
30
48
38
C8
88
FC
ENDCHAR
STARTCHAR 00E5
ENCODING 229
SWIDTH 583 0
DWIDTH 7 0
BBX 6 9 0 0
BITMAP
30
20
00
30
48
38
C8
88
FC
ENDCHAR
STARTCHAR 00E6
ENCODING 230
SWIDTH 833 0
DWIDTH 10 0
BBX 9 6 1 0
BITMAP
7700
4880
7F80
8800
8800
7780
ENDCHAR
STARTCHAR 00E7
ENCODING 231
SWIDTH 500 0
DWIDTH 6 0
BBX 5 9 1 -3
BITMAP
70
C8
80
80
88
70
40
30
60
ENDCHAR
STARTCHAR 00E8
ENCODING 232
SWIDTH 583 0
DWIDTH 7 0
BBX 5 9 1 0
BITMAP
40
20
00
70
88
F8
80
80
78
ENDCHAR
STARTCHAR 00E9
ENCODING 233
SWIDTH 583 0
DWIDTH 7 0
BBX 5 9 1 0
BITMAP
10
20
00
70
88
F8
80
80
78
ENDCHAR
STARTCHAR 00EA
ENCODING 234
SWIDTH 583 0
DWIDTH 7 0
BBX 5 9 1 0
BITMAP
20
50
00
70
88
F8
80
80
78
ENDCHAR
STARTCHAR 00EB
ENCODING 235
SWIDTH 583 0
DWIDTH 7 0
BBX 5 9 1 0
BITMAP
50
00
00
70
88
F8
80
80
78
ENDCHAR
STARTCHAR 00EC
ENCODING 236
SWIDTH 333 0
DWIDTH 4 0
BBX 2 9 1 0
BITMAP
80
40
00
40
40
40
40
40
40
ENDCHAR
STARTCHAR 00ED
ENCODING 237
SWIDTH 333 0
DWIDTH 4 0
BBX 2 9 2 0
BITMAP
40
80
00
80
80
80
80
80
80
ENDCHAR
STARTCHAR 00EE
ENCODING 238
SWIDTH 333 0
DWIDTH 4 0
BBX 3 8 1 1
BITMAP
E0
00
40
40
40
40
40
40
ENDCHAR
STARTCHAR 00EF
ENCODING 239
SWIDTH 333 0
DWIDTH 4 0
BBX 3 9 1 0
BITMAP
A0
00
00
40
40
40
40
40
40
ENDCHAR
STARTCHAR 00F0
ENCODING 240
SWIDTH 583 0
DWIDTH 7 0
BBX 5 9 1 0
BITMAP
60
50
10
78
88
88
88
88
70
ENDCHAR
STARTCHAR 00F1
ENCODING 241
SWIDTH 666 0
DWIDTH 8 0
BBX 4 9 2 0
BITMAP
C0
20
00
60
90
90
90
90
90
ENDCHAR
STARTCHAR 00F2
ENCODING 242
SWIDTH 583 0
DWIDTH 7 0
BBX 5 9 1 0
BITMAP
40
20
00
70
98
88
88
88
70
ENDCHAR
STARTCHAR 00F3
ENCODING 243
SWIDTH 583 0
DWIDTH 7 0
BBX 5 9 1 0
BITMAP
10
20
00
70
98
88
88
88
70
ENDCHAR
STARTCHAR 00F4
ENCODING 244
SWIDTH 583 0
DWIDTH 7 0
BBX 5 9 1 0
BITMAP
20
50
00
70
98
88
88
88
70
ENDCHAR
STARTCHAR 00F5
ENCODING 245
SWIDTH 583 0
DWIDTH 7 0
BBX 5 9 1 0
BITMAP
70
00
00
70
98
88
88
88
70
ENDCHAR
STARTCHAR 00F6
ENCODING 246
SWIDTH 583 0
DWIDTH 7 0
BBX 5 9 1 0
BITMAP
50
00
00
70
98
88
88
88
70
ENDCHAR
STARTCHAR 00F7
ENCODING 247
SWIDTH 666 0
DWIDTH 8 0
BBX 6 5 1 1
BITMAP
30
30
FC
30
30
ENDCHAR
STARTCHAR 00F8
ENCODING 248
SWIDTH 583 0
DWIDTH 7 0
BBX 5 6 1 -1
BITMAP
78
D8
A8
C8
D8
F0
ENDCHAR
STARTCHAR 00F9
ENCODING 249
SWIDTH 583 0
DWIDTH 7 0
BBX 5 9 1 0
BITMAP
40
20
00
88
88
88
88
88
F8
ENDCHAR
STARTCHAR 00FA
ENCODING 250
SWIDTH 583 0
DWIDTH 7 0
BBX 5 8 1 1
BITMAP
20
00
88
88
88
88
88
F8
ENDCHAR
STARTCHAR 00FB
ENCODING 251
SWIDTH 583 0
DWIDTH 7 0
BBX 5 8 1 1
BITMAP
60
00
88
88
88
88
88
F8
ENDCHAR
STARTCHAR 00FC
ENCODING 252
SWIDTH 583 0
DWIDTH 7 0
BBX 5 9 1 0
BITMAP
50
00
00
88
88
88
88
88
F8
ENDCHAR
STARTCHAR 00FD
ENCODING 253
SWIDTH 500 0
DWIDTH 6 0
BBX 5 11 1 -2
BITMAP
10
20
00
88
90
90
60
60
20
40
C0
ENDCHAR
STARTCHAR 00FE
ENCODING 254
SWIDTH 583 0
DWIDTH 7 0
BBX 7 11 0 -2
BITMAP
C0
40
40
7C
46
42
42
46
7C
40
40
ENDCHAR
STARTCHAR 00FF
ENCODING 255
SWIDTH 500 0
DWIDTH 6 0
BBX 5 11 1 -2
BITMAP
50
00
00
88
90
90
60
60
20
40
C0
ENDCHAR
STARTCHAR 0100
ENCODING 256
SWIDTH 750 0
DWIDTH 9 0
BBX 7 10 1 0
BITMAP
38
00
10
10
68
48
7C
84
84
82
ENDCHAR
STARTCHAR 0101
ENCODING 257
SWIDTH 583 0
DWIDTH 7 0
BBX 6 8 0 0
BITMAP
70
00
38
48
38
C8
88
FC
ENDCHAR
STARTCHAR 0102
ENCODING 258
SWIDTH 750 0
DWIDTH 9 0
BBX 7 11 1 1
BITMAP
38
00
10
10
28
48
48
7C
84
84
82
ENDCHAR
STARTCHAR 0103
ENCODING 259
SWIDTH 583 0
DWIDTH 7 0
BBX 6 9 0 0
BITMAP
40
30
00
38
48
38
C8
88
FC
ENDCHAR
STARTCHAR 0104
ENCODING 260
SWIDTH 750 0
DWIDTH 9 0
BBX 7 12 1 -2
BITMAP
10
10
28
48
48
7C
84
84
82
04
04
06
ENDCHAR
STARTCHAR 0105
ENCODING 261
SWIDTH 583 0
DWIDTH 7 0
BBX 6 9 0 -3
BITMAP
30
48
38
C8
88
F8
08
10
1C
ENDCHAR
STARTCHAR 0106
ENCODING 262
SWIDTH 750 0
DWIDTH 9 0
BBX 7 11 1 0
BITMAP
08
10
3C
42
80
80
80
80
82
42
3C
ENDCHAR
STARTCHAR 0107
ENCODING 263
SWIDTH 500 0
DWIDTH 6 0
BBX 5 9 1 0
BITMAP
10
20
00
70
C8
80
80
88
70
ENDCHAR
STARTCHAR 0108
ENCODING 264
SWIDTH 750 0
DWIDTH 9 0
BBX 7 11 1 1
BITMAP
18
00
3C
42
80
80
80
80
82
42
3C
ENDCHAR
STARTCHAR 0109
ENCODING 265
SWIDTH 500 0
DWIDTH 6 0
BBX 5 9 1 0
BITMAP
20
50
00
70
C8
80
80
88
70
ENDCHAR
STARTCHAR 010C
ENCODING 268
SWIDTH 750 0
DWIDTH 9 0
BBX 7 11 1 1
BITMAP
38
00
3C
42
80
80
80
80
82
42
3C
ENDCHAR
STARTCHAR 010D
ENCODING 269
SWIDTH 500 0
DWIDTH 6 0
BBX 5 9 1 1
BITMAP
50
20
00
70
C8
80
80
88
70
ENDCHAR
STARTCHAR 010E
ENCODING 270
SWIDTH 750 0
DWIDTH 9 0
BBX 7 11 2 1
BITMAP
30
00
F8
84
82
82
82
82
82
84
D8
ENDCHAR
STARTCHAR 010F
ENCODING 271
SWIDTH 583 0
DWIDTH 7 0
BBX 8 9 0 0
BITMAP
0D
05
04
7C
C4
84
84
C4
7C
ENDCHAR
STARTCHAR 0111
ENCODING 273
SWIDTH 583 0
DWIDTH 7 0
BBX 7 8 0 1
BITMAP
04
1E
7C
C4
84
84
CC
74
ENDCHAR
STARTCHAR 0112
ENCODING 274
SWIDTH 666 0
DWIDTH 8 0
BBX 6 10 2 0
BITMAP
70
8C
84
80
90
F0
90
80
84
8C
ENDCHAR
STARTCHAR 0113
ENCODING 275
SWIDTH 583 0
DWIDTH 7 0
BBX 5 8 1 0
BITMAP
70
00
70
88
F8
80
80
78
ENDCHAR
STARTCHAR 0118
ENCODING 280
SWIDTH 666 0
DWIDTH 8 0
BBX 6 12 2 -3
BITMAP
FC
84
80
90
F0
90
80
84
8C
70
40
60
ENDCHAR
STARTCHAR 0119
ENCODING 281
SWIDTH 583 0
DWIDTH 7 0
BBX 5 9 1 -3
BITMAP
70
88
F8
80
80
98
60
40
70
ENDCHAR
STARTCHAR 011A
ENCODING 282
SWIDTH 666 0
DWIDTH 8 0
BBX 6 11 2 1
BITMAP
70
00
FC
84
80
90
F0
90
80
84
8C
ENDCHAR
STARTCHAR 011B
ENCODING 283
SWIDTH 583 0
DWIDTH 7 0
BBX 5 9 1 1
BITMAP
50
20
00
70
88
F8
80
80
78
ENDCHAR
STARTCHAR 011C
ENCODING 284
SWIDTH 750 0
DWIDTH 9 0
BBX 7 11 1 1
BITMAP
18
00
3C
42
80
80
80
82
82
42
3C
ENDCHAR
STARTCHAR 011D
ENCODING 285
SWIDTH 583 0
DWIDTH 7 0
BBX 5 10 1 -1
BITMAP
60
00
70
88
88
70
80
F8
88
70
ENDCHAR
STARTCHAR 0124
ENCODING 292
SWIDTH 833 0
DWIDTH 10 0
BBX 6 11 2 1
BITMAP
30
00
84
84
84
84
FC
84
84
84
84
ENDCHAR
STARTCHAR 0125
ENCODING 293
SWIDTH 583 0
DWIDTH 7 0
BBX 6 11 0 0
BITMAP
40
A0
C0
40
40
58
64
44
44
44
44
ENDCHAR
STARTCHAR 0127
ENCODING 295
SWIDTH 583 0
DWIDTH 7 0
BBX 6 8 0 1
BITMAP
40
E0
58
64
44
44
44
44
ENDCHAR
STARTCHAR 012A
ENCODING 298
SWIDTH 416 0
DWIDTH 5 0
BBX 3 10 1 0
BITMAP
E0
40
40
40
40
40
40
40
40
40
ENDCHAR
STARTCHAR 012B
ENCODING 299
SWIDTH 333 0
DWIDTH 4 0
BBX 3 8 1 0
BITMAP
E0
00
C0
40
40
40
40
40
ENDCHAR
STARTCHAR 0134
ENCODING 308
SWIDTH 500 0
DWIDTH 6 0
BBX 5 11 0 1
BITMAP
38
00
10
10
10
10
10
10
10
90
E0
ENDCHAR
STARTCHAR 0135
ENCODING 309
SWIDTH 333 0
DWIDTH 4 0
BBX 4 10 -1 -1
BITMAP
70
00
20
20
20
20
20
20
20
E0
ENDCHAR
STARTCHAR 0139
ENCODING 313
SWIDTH 583 0
DWIDTH 7 0
BBX 6 11 2 0
BITMAP
40
80
80
80
80
80
80
80
84
84
C8
ENDCHAR
STARTCHAR 013A
ENCODING 314
SWIDTH 333 0
DWIDTH 4 0
BBX 3 11 0 0
BITMAP
20
40
C0
40
40
40
40
40
40
40
40
ENDCHAR
STARTCHAR 013D
ENCODING 317
SWIDTH 583 0
DWIDTH 7 0
BBX 6 9 2 0
BITMAP
90
90
80
80
80
80
84
84
C8
ENDCHAR
STARTCHAR 013E
ENCODING 318
SWIDTH 333 0
DWIDTH 4 0
BBX 4 9 0 0
BITMAP
D0
50
40
40
40
40
40
40
40
ENDCHAR
STARTCHAR 0141
ENCODING 321
SWIDTH 583 0
DWIDTH 7 0
BBX 7 9 1 0
BITMAP
E0
40
40
50
60
C0
42
42
44
ENDCHAR
STARTCHAR 0142
ENCODING 322
SWIDTH 333 0
DWIDTH 4 0
BBX 3 9 0 0
BITMAP
C0
40
40
60
40
C0
40
40
40
ENDCHAR
STARTCHAR 0143
ENCODING 323
SWIDTH 833 0
DWIDTH 10 0
BBX 6 11 2 0
BITMAP
10
00
84
C4
C4
A4
A4
94
94
8C
84
ENDCHAR
STARTCHAR 0144
ENCODING 324
SWIDTH 666 0
DWIDTH 8 0
BBX 4 9 2 0
BITMAP
20
00
00
60
90
90
90
90
90
ENDCHAR
STARTCHAR 0147
ENCODING 327
SWIDTH 833 0
DWIDTH 10 0
BBX 6 11 2 1
BITMAP
30
00
84
C4
C4
A4
A4
94
94
8C
84
ENDCHAR
STARTCHAR 0148
ENCODING 328
SWIDTH 666 0
DWIDTH 8 0
BBX 4 9 2 1
BITMAP
60
00
00
60
90
90
90
90
90
ENDCHAR
STARTCHAR 014B
ENCODING 331
SWIDTH 666 0
DWIDTH 8 0
BBX 4 8 2 -1
BITMAP
60
90
90
90
90
90
10
30
ENDCHAR
STARTCHAR 014C
ENCODING 332
SWIDTH 833 0
DWIDTH 10 0
BBX 8 10 1 0
BITMAP
38
3C
C2
81
81
81
81
C1
42
3C
ENDCHAR
STARTCHAR 014D
ENCODING 333
SWIDTH 583 0
DWIDTH 7 0
BBX 5 8 1 0
BITMAP
70
00
70
98
88
88
C8
70
ENDCHAR
STARTCHAR 0150
ENCODING 336
SWIDTH 833 0
DWIDTH 10 0
BBX 8 11 1 0
BITMAP
14
08
3C
C2
81
81
81
81
C1
42
3C
ENDCHAR
STARTCHAR 0151
ENCODING 337
SWIDTH 583 0
DWIDTH 7 0
BBX 5 9 1 0
BITMAP
28
10
00
70
98
88
88
C8
70
ENDCHAR
STARTCHAR 0152
ENCODING 338
SWIDTH 1083 0
DWIDTH 13 0
BBX 12 9 0 0
BITMAP
3FF0
4210
8200
8240
83C0
8240
8200
4210
3230
ENDCHAR
STARTCHAR 0153
ENCODING 339
SWIDTH 916 0
DWIDTH 11 0
BBX 9 6 1 0
BITMAP
7700
8880
8F80
8800
8800
7780
ENDCHAR
STARTCHAR 0154
ENCODING 340
SWIDTH 666 0
DWIDTH 8 0
BBX 6 11 2 0
BITMAP
10
20
D8
84
84
84
F8
90
88
88
84
ENDCHAR
STARTCHAR 0155
ENCODING 341
SWIDTH 416 0
DWIDTH 5 0
BBX 4 8 2 1
BITMAP
C0
00
70
80
80
80
80
80
ENDCHAR
STARTCHAR 0158
ENCODING 344
SWIDTH 666 0
DWIDTH 8 0
BBX 6 11 2 1
BITMAP
50
20
F8
84
84
84
F8
90
88
88
84
ENDCHAR
STARTCHAR 0159
ENCODING 345
SWIDTH 416 0
DWIDTH 5 0
BBX 4 9 2 1
BITMAP
C0
80
00
70
80
80
80
80
80
ENDCHAR
STARTCHAR 015A
ENCODING 346
SWIDTH 583 0
DWIDTH 7 0
BBX 5 11 1 0
BITMAP
10
20
78
88
80
80
60
18
08
88
70
ENDCHAR
STARTCHAR 015B
ENCODING 347
SWIDTH 500 0
DWIDTH 6 0
BBX 4 6 1 3
BITMAP
F0
80
80
70
90
F0
ENDCHAR
STARTCHAR 015C
ENCODING 348
SWIDTH 583 0
DWIDTH 7 0
BBX 5 11 1 1
BITMAP
70
00
78
88
80
80
60
18
08
88
70
ENDCHAR
STARTCHAR 015D
ENCODING 349
SWIDTH 500 0
DWIDTH 6 0
BBX 4 8 1 1
BITMAP
60
00
F0
80
80
70
90
F0
ENDCHAR
STARTCHAR 015E
ENCODING 350
SWIDTH 583 0
DWIDTH 7 0
BBX 5 12 1 -2
BITMAP
78
88
80
80
60
18
08
88
70
00
20
20
ENDCHAR
STARTCHAR 015F
ENCODING 351
SWIDTH 500 0
DWIDTH 6 0
BBX 4 8 1 -2
BITMAP
F0
80
80
70
90
F0
00
20
ENDCHAR
STARTCHAR 0160
ENCODING 352
SWIDTH 583 0
DWIDTH 7 0
BBX 5 11 1 1
BITMAP
50
20
78
88
80
80
60
18
08
88
70
ENDCHAR
STARTCHAR 0161
ENCODING 353
SWIDTH 500 0
DWIDTH 6 0
BBX 4 9 1 0
BITMAP
60
00
00
F0
80
80
60
10
F0
ENDCHAR
STARTCHAR 0162
ENCODING 354
SWIDTH 583 0
DWIDTH 7 0
BBX 7 12 0 -3
BITMAP
FE
10
10
10
10
10
10
10
10
00
10
10
ENDCHAR
STARTCHAR 0163
ENCODING 355
SWIDTH 333 0
DWIDTH 4 0
BBX 4 10 0 -2
BITMAP
40
F0
40
40
40
40
70
00
20
40
ENDCHAR
STARTCHAR 0164
ENCODING 356
SWIDTH 583 0
DWIDTH 7 0
BBX 7 11 0 1
BITMAP
28
10
FE
10
10
10
10
10
10
10
10
ENDCHAR
STARTCHAR 0165
ENCODING 357
SWIDTH 333 0
DWIDTH 4 0
BBX 4 9 0 0
BITMAP
10
10
40
F0
40
40
40
40
70
ENDCHAR
STARTCHAR 016A
ENCODING 362
SWIDTH 833 0
DWIDTH 10 0
BBX 6 10 2 0
BITMAP
30
84
84
84
84
84
84
84
CC
78
ENDCHAR
STARTCHAR 016B
ENCODING 363
SWIDTH 583 0
DWIDTH 7 0
BBX 6 8 0 0
BITMAP
38
00
CC
44
44
44
44
7C
ENDCHAR
STARTCHAR 016C
ENCODING 364
SWIDTH 833 0
DWIDTH 10 0
BBX 6 11 2 1
BITMAP
30
00
84
84
84
84
84
84
84
CC
78
ENDCHAR
STARTCHAR 016D
ENCODING 365
SWIDTH 583 0
DWIDTH 7 0
BBX 6 8 0 1
BITMAP
38
00
CC
44
44
44
44
7C
ENDCHAR
STARTCHAR 016E
ENCODING 366
SWIDTH 833 0
DWIDTH 10 0
BBX 6 11 2 0
BITMAP
30
30
84
84
84
84
84
84
84
CC
78
ENDCHAR
STARTCHAR 016F
ENCODING 367
SWIDTH 583 0
DWIDTH 7 0
BBX 5 9 1 0
BITMAP
20
20
00
88
88
88
88
88
78
ENDCHAR
STARTCHAR 0170
ENCODING 368
SWIDTH 833 0
DWIDTH 10 0
BBX 6 10 2 1
BITMAP
10
84
84
84
84
84
84
84
CC
78
ENDCHAR
STARTCHAR 0171
ENCODING 369
SWIDTH 583 0
DWIDTH 7 0
BBX 6 9 0 0
BITMAP
14
08
00
CC
44
44
44
44
7C
ENDCHAR
STARTCHAR 0179
ENCODING 377
SWIDTH 666 0
DWIDTH 8 0
BBX 7 11 0 0
BITMAP
08
10
7E
84
04
08
10
20
60
42
FE
ENDCHAR
STARTCHAR 017A
ENCODING 378
SWIDTH 500 0
DWIDTH 6 0
BBX 5 8 0 1
BITMAP
10
00
78
08
10
20
40
F8
ENDCHAR
STARTCHAR 017B
ENCODING 379
SWIDTH 666 0
DWIDTH 8 0
BBX 7 11 0 0
BITMAP
10
00
7E
84
04
08
10
20
60
42
FE
ENDCHAR
STARTCHAR 017C
ENCODING 380
SWIDTH 500 0
DWIDTH 6 0
BBX 5 9 0 0
BITMAP
20
00
00
78
08
10
20
40
F8
ENDCHAR
STARTCHAR 017D
ENCODING 381
SWIDTH 666 0
DWIDTH 8 0
BBX 7 11 0 1
BITMAP
28
10
7E
84
04
08
10
20
60
42
FE
ENDCHAR
STARTCHAR 017E
ENCODING 382
SWIDTH 500 0
DWIDTH 6 0
BBX 5 9 0 1
BITMAP
50
20
00
78
08
10
20
40
F8
ENDCHAR
STARTCHAR 0193
ENCODING 403
SWIDTH 750 0
DWIDTH 9 0
BBX 9 10 1 0
BITMAP
0180
3E00
4200
8000
8000
8000
8200
8200
4200
3C00
ENDCHAR
STARTCHAR 01C2
ENCODING 450
SWIDTH 500 0
DWIDTH 6 0
BBX 5 9 1 -1
BITMAP
20
20
20
F8
20
F8
20
20
20
ENDCHAR
STARTCHAR 01CD
ENCODING 461
SWIDTH 750 0
DWIDTH 9 0
BBX 7 11 1 1
BITMAP
38
00
10
10
28
48
48
7C
84
84
82
ENDCHAR
STARTCHAR 01CE
ENCODING 462
SWIDTH 583 0
DWIDTH 7 0
BBX 6 9 0 1
BITMAP
50
20
00
38
48
38
C8
88
FC
ENDCHAR
STARTCHAR 01D0
ENCODING 464
SWIDTH 333 0
DWIDTH 4 0
BBX 3 9 1 1
BITMAP
A0
40
00
40
40
40
40
40
40
ENDCHAR
STARTCHAR 01D1
ENCODING 465
SWIDTH 833 0
DWIDTH 10 0
BBX 8 11 1 1
BITMAP
18
00
3C
42
81
81
81
81
81
42
3C
ENDCHAR
STARTCHAR 01D2
ENCODING 466
SWIDTH 583 0
DWIDTH 7 0
BBX 5 9 1 1
BITMAP
50
20
00
70
88
88
88
88
70
ENDCHAR
STARTCHAR 01D4
ENCODING 468
SWIDTH 583 0
DWIDTH 7 0
BBX 5 9 1 1
BITMAP
50
20
00
88
88
88
88
88
78
ENDCHAR
STARTCHAR 01D6
ENCODING 470
SWIDTH 583 0
DWIDTH 7 0
BBX 5 10 1 0
BITMAP
70
50
00
00
88
88
88
88
88
78
ENDCHAR
STARTCHAR 01D8
ENCODING 472
SWIDTH 583 0
DWIDTH 7 0
BBX 5 10 1 1
BITMAP
20
50
00
00
88
88
88
88
88
78
ENDCHAR
STARTCHAR 01DA
ENCODING 474
SWIDTH 583 0
DWIDTH 7 0
BBX 5 11 1 0
BITMAP
10
60
50
00
00
88
88
88
88
88
78
ENDCHAR
STARTCHAR 01DC
ENCODING 476
SWIDTH 583 0
DWIDTH 7 0
BBX 5 11 1 0
BITMAP
40
20
50
00
00
88
88
88
88
88
78
ENDCHAR
STARTCHAR 01F8
ENCODING 504
SWIDTH 833 0
DWIDTH 10 0
BBX 6 10 2 1
BITMAP
20
84
C4
C4
A4
A4
94
94
8C
84
ENDCHAR
STARTCHAR 01F9
ENCODING 505
SWIDTH 666 0
DWIDTH 8 0
BBX 4 9 2 0
BITMAP
80
40
00
60
90
90
90
90
90
ENDCHAR
STARTCHAR 01FD
ENCODING 509
SWIDTH 833 0
DWIDTH 10 0
BBX 9 9 1 0
BITMAP
0400
0800
0000
7700
4880
7F80
8800
8800
7780
ENDCHAR
STARTCHAR 0250
ENCODING 592
SWIDTH 583 0
DWIDTH 7 0
BBX 6 6 0 0
BITMAP
FC
44
44
78
48
30
ENDCHAR
STARTCHAR 0251
ENCODING 593
SWIDTH 583 0
DWIDTH 7 0
BBX 6 6 1 1
BITMAP
78
88
88
88
88
7C
ENDCHAR
STARTCHAR 0252
ENCODING 594
SWIDTH 583 0
DWIDTH 7 0
BBX 6 6 0 0
BITMAP
F8
44
44
44
44
78
ENDCHAR
STARTCHAR 0253
ENCODING 595
SWIDTH 583 0
DWIDTH 7 0
BBX 6 9 1 0
BITMAP
70
88
80
B8
CC
84
84
8C
F8
ENDCHAR
STARTCHAR 0254
ENCODING 596
SWIDTH 500 0
DWIDTH 6 0
BBX 5 6 1 0
BITMAP
F0
18
08
08
88
70
ENDCHAR
STARTCHAR 0255
ENCODING 597
SWIDTH 500 0
DWIDTH 6 0
BBX 5 7 1 -1
BITMAP
70
C8
80
80
98
78
40
ENDCHAR
STARTCHAR 0256
ENCODING 598
SWIDTH 583 0
DWIDTH 7 0
BBX 8 11 0 -2
BITMAP
0C
04
04
7C
C4
84
84
CC
74
04
07
ENDCHAR
STARTCHAR 0257
ENCODING 599
SWIDTH 583 0
DWIDTH 7 0
BBX 8 9 0 0
BITMAP
07
04
04
7C
C4
84
84
CC
74
ENDCHAR
STARTCHAR 0258
ENCODING 600
SWIDTH 583 0
DWIDTH 7 0
BBX 5 6 1 0
BITMAP
70
88
F8
08
08
F0
ENDCHAR
STARTCHAR 0259
ENCODING 601
SWIDTH 583 0
DWIDTH 7 0
BBX 5 6 1 0
BITMAP
70
88
08
F8
88
70
ENDCHAR
STARTCHAR 025A
ENCODING 602
SWIDTH 750 0
DWIDTH 9 0
BBX 8 6 1 0
BITMAP
70
8E
16
25
C4
78
ENDCHAR
STARTCHAR 025C
ENCODING 604
SWIDTH 500 0
DWIDTH 6 0
BBX 5 6 1 0
BITMAP
F0
10
70
08
08
F0
ENDCHAR
STARTCHAR 025E
ENCODING 606
SWIDTH 583 0
DWIDTH 7 0
BBX 5 6 1 0
BITMAP
78
C8
F0
88
88
70
ENDCHAR
STARTCHAR 025F
ENCODING 607
SWIDTH 333 0
DWIDTH 4 0
BBX 4 8 -1 -2
BITMAP
20
20
20
20
20
F0
20
E0
ENDCHAR
STARTCHAR 0260
ENCODING 608
SWIDTH 583 0
DWIDTH 7 0
BBX 8 11 0 -2
BITMAP
07
04
04
7C
C4
84
84
C4
7C
44
38
ENDCHAR
STARTCHAR 0261
ENCODING 609
SWIDTH 583 0
DWIDTH 7 0
BBX 6 8 0 -1
BITMAP
7C
C4
84
84
C4
7C
44
38
ENDCHAR
STARTCHAR 0264
ENCODING 612
SWIDTH 583 0
DWIDTH 7 0
BBX 7 6 0 0
BITMAP
E6
38
30
28
28
38
ENDCHAR
STARTCHAR 0265
ENCODING 613
SWIDTH 583 0
DWIDTH 7 0
BBX 5 8 1 -3
BITMAP
88
88
88
88
88
78
08
08
ENDCHAR
STARTCHAR 0266
ENCODING 614
SWIDTH 583 0
DWIDTH 7 0
BBX 5 9 1 0
BITMAP
70
88
80
B0
C8
88
88
88
88
ENDCHAR
STARTCHAR 0267
ENCODING 615
SWIDTH 583 0
DWIDTH 7 0
BBX 5 11 1 -2
BITMAP
70
88
80
B0
C8
88
88
88
88
08
38
ENDCHAR
STARTCHAR 0268
ENCODING 616
SWIDTH 333 0
DWIDTH 4 0
BBX 3 9 1 0
BITMAP
40
00
00
40
40
E0
40
40
40
ENDCHAR
STARTCHAR 026C
ENCODING 620
SWIDTH 416 0
DWIDTH 5 0
BBX 3 9 0 0
BITMAP
20
20
E0
A0
60
20
20
20
20
ENDCHAR
STARTCHAR 026D
ENCODING 621
SWIDTH 333 0
DWIDTH 4 0
BBX 4 11 0 -2
BITMAP
C0
40
40
40
40
40
40
40
40
40
70
ENDCHAR
STARTCHAR 026E
ENCODING 622
SWIDTH 583 0
DWIDTH 7 0
BBX 7 12 0 -3
BITMAP
C0
40
40
7E
44
48
50
5C
42
02
22
1C
ENDCHAR
STARTCHAR 026F
ENCODING 623
SWIDTH 916 0
DWIDTH 11 0
BBX 9 6 1 -1
BITMAP
8900
8900
8900
8900
8900
7680
ENDCHAR
STARTCHAR 0270
ENCODING 624
SWIDTH 916 0
DWIDTH 11 0
BBX 8 9 1 -3
BITMAP
89
89
89
89
89
7F
01
01
01
ENDCHAR
STARTCHAR 0271
ENCODING 625
SWIDTH 916 0
DWIDTH 11 0
BBX 8 8 2 -1
BITMAP
EE
91
91
91
91
91
01
07
ENDCHAR
STARTCHAR 0272
ENCODING 626
SWIDTH 666 0
DWIDTH 8 0
BBX 6 8 0 -1
BITMAP
18
24
24
24
24
24
20
E0
ENDCHAR
STARTCHAR 0273
ENCODING 627
SWIDTH 666 0
DWIDTH 8 0
BBX 6 8 2 -1
BITMAP
60
90
90
90
90
90
10
1C
ENDCHAR
STARTCHAR 0275
ENCODING 629
SWIDTH 583 0
DWIDTH 7 0
BBX 5 6 1 0
BITMAP
70
88
88
F8
88
78
ENDCHAR
STARTCHAR 0279
ENCODING 633
SWIDTH 416 0
DWIDTH 5 0
BBX 5 7 -1 -1
BITMAP
10
10
10
10
10
A8
40
ENDCHAR
STARTCHAR 027A
ENCODING 634
SWIDTH 416 0
DWIDTH 5 0
BBX 5 10 -1 -1
BITMAP
10
10
10
10
10
10
10
10
A8
40
ENDCHAR
STARTCHAR 027B
ENCODING 635
SWIDTH 416 0
DWIDTH 5 0
BBX 6 8 0 -2
BITMAP
10
10
10
10
10
F0
10
1C
ENDCHAR
STARTCHAR 027D
ENCODING 637
SWIDTH 416 0
DWIDTH 5 0
BBX 4 8 2 -1
BITMAP
70
80
80
80
80
80
80
E0
ENDCHAR
STARTCHAR 027E
ENCODING 638
SWIDTH 333 0
DWIDTH 4 0
BBX 3 6 2 0
BITMAP
E0
80
80
80
80
80
ENDCHAR
STARTCHAR 0281
ENCODING 641
SWIDTH 500 0
DWIDTH 6 0
BBX 5 6 1 0
BITMAP
88
90
A0
D8
88
90
ENDCHAR
STARTCHAR 0282
ENCODING 642
SWIDTH 500 0
DWIDTH 6 0
BBX 4 8 1 -1
BITMAP
F0
80
80
70
90
F0
80
E0
ENDCHAR
STARTCHAR 0283
ENCODING 643
SWIDTH 416 0
DWIDTH 5 0
BBX 5 11 0 -2
BITMAP
38
20
20
20
20
20
20
20
20
20
C0
ENDCHAR
STARTCHAR 0284
ENCODING 644
SWIDTH 333 0
DWIDTH 4 0
BBX 5 11 -1 -2
BITMAP
38
20
20
20
20
20
20
20
78
20
E0
ENDCHAR
STARTCHAR 0288
ENCODING 648
SWIDTH 333 0
DWIDTH 4 0
BBX 4 9 0 -1
BITMAP
40
F0
40
40
40
40
40
40
70
ENDCHAR
STARTCHAR 0289
ENCODING 649
SWIDTH 583 0
DWIDTH 7 0
BBX 7 6 0 1
BITMAP
44
44
FE
44
44
7C
ENDCHAR
STARTCHAR 028A
ENCODING 650
SWIDTH 583 0
DWIDTH 7 0
BBX 6 6 1 0
BITMAP
DC
90
88
88
88
70
ENDCHAR
STARTCHAR 028B
ENCODING 651
SWIDTH 583 0
DWIDTH 7 0
BBX 6 6 0 0
BITMAP
C4
44
44
44
48
38
ENDCHAR
STARTCHAR 028C
ENCODING 652
SWIDTH 500 0
DWIDTH 6 0
BBX 6 6 0 1
BITMAP
10
30
50
48
88
84
ENDCHAR
STARTCHAR 028D
ENCODING 653
SWIDTH 750 0
DWIDTH 9 0
BBX 9 6 0 1
BITMAP
2200
3600
5500
5900
8900
8880
ENDCHAR
STARTCHAR 028E
ENCODING 654
SWIDTH 500 0
DWIDTH 6 0
BBX 6 9 0 0
BITMAP
0C
14
10
10
30
50
48
88
84
ENDCHAR
STARTCHAR 0290
ENCODING 656
SWIDTH 583 0
DWIDTH 7 0
BBX 7 8 0 -2
BITMAP
78
90
20
20
48
F8
08
06
ENDCHAR
STARTCHAR 0291
ENCODING 657
SWIDTH 500 0
DWIDTH 6 0
BBX 6 7 0 -1
BITMAP
78
08
10
20
5C
FC
20
ENDCHAR
STARTCHAR 0292
ENCODING 658
SWIDTH 500 0
DWIDTH 6 0
BBX 6 9 0 -3
BITMAP
78
08
10
38
0C
04
04
CC
78
ENDCHAR
STARTCHAR 0294
ENCODING 660
SWIDTH 500 0
DWIDTH 6 0
BBX 5 9 1 0
BITMAP
70
88
88
08
30
20
20
20
20
ENDCHAR
STARTCHAR 0295
ENCODING 661
SWIDTH 500 0
DWIDTH 6 0
BBX 5 9 1 0
BITMAP
70
88
88
80
60
20
20
20
20
ENDCHAR
STARTCHAR 0298
ENCODING 664
SWIDTH 666 0
DWIDTH 8 0
BBX 6 6 1 0
BITMAP
78
CC
B4
B4
C4
78
ENDCHAR
STARTCHAR 029D
ENCODING 669
SWIDTH 333 0
DWIDTH 4 0
BBX 4 11 -2 -2
BITMAP
10
00
00
10
10
10
10
10
10
F0
F0
ENDCHAR
STARTCHAR 02A1
ENCODING 673
SWIDTH 500 0
DWIDTH 6 0
BBX 5 9 1 0
BITMAP
70
88
88
08
30
70
20
20
20
ENDCHAR
STARTCHAR 02A2
ENCODING 674
SWIDTH 500 0
DWIDTH 6 0
BBX 5 9 1 0
BITMAP
70
88
88
80
60
70
20
20
20
ENDCHAR
STARTCHAR 02BB
ENCODING 699
SWIDTH 1000 0
DWIDTH 12 0
BBX 2 3 9 8
BITMAP
40
80
C0
ENDCHAR
STARTCHAR 02BC
ENCODING 700
SWIDTH 1000 0
DWIDTH 12 0
BBX 2 3 1 6
BITMAP
C0
C0
80
ENDCHAR
STARTCHAR 02C6
ENCODING 710
SWIDTH 500 0
DWIDTH 6 0
BBX 2 1 2 8
BITMAP
C0
ENDCHAR
STARTCHAR 02C7
ENCODING 711
SWIDTH 500 0
DWIDTH 6 0
BBX 2 1 2 8
BITMAP
C0
ENDCHAR
STARTCHAR 02C8
ENCODING 712
SWIDTH 166 0
DWIDTH 2 0
BBX 1 5 1 4
BITMAP
80
80
80
80
80
ENDCHAR
STARTCHAR 02CC
ENCODING 716
SWIDTH 166 0
DWIDTH 2 0
BBX 1 5 1 -2
BITMAP
80
80
80
80
80
ENDCHAR
STARTCHAR 02D0
ENCODING 720
SWIDTH 250 0
DWIDTH 3 0
BBX 1 6 1 0
BITMAP
80
00
00
00
00
80
ENDCHAR
STARTCHAR 02D1
ENCODING 721
SWIDTH 250 0
DWIDTH 3 0
BBX 1 1 1 4
BITMAP
80
ENDCHAR
STARTCHAR 02D8
ENCODING 728
SWIDTH 500 0
DWIDTH 6 0
BBX 2 1 2 8
BITMAP
C0
ENDCHAR
STARTCHAR 02D9
ENCODING 729
SWIDTH 500 0
DWIDTH 6 0
BBX 1 1 2 8
BITMAP
80
ENDCHAR
STARTCHAR 02DB
ENCODING 731
SWIDTH 500 0
DWIDTH 6 0
BBX 2 3 2 -2
BITMAP
40
80
C0
ENDCHAR
STARTCHAR 02DC
ENCODING 732
SWIDTH 500 0
DWIDTH 6 0
BBX 3 1 2 7
BITMAP
E0
ENDCHAR
STARTCHAR 02DD
ENCODING 733
SWIDTH 500 0
DWIDTH 6 0
BBX 3 2 2 7
BITMAP
A0
40
ENDCHAR
STARTCHAR 02DE
ENCODING 734
SWIDTH 500 0
DWIDTH 6 0
BBX 2 3 2 0
BITMAP
C0
80
40
ENDCHAR
STARTCHAR 02E5
ENCODING 741
SWIDTH 500 0
DWIDTH 6 0
BBX 3 9 0 0
BITMAP
E0
20
20
20
20
20
20
20
20
ENDCHAR
STARTCHAR 02E6
ENCODING 742
SWIDTH 500 0
DWIDTH 6 0
BBX 3 9 0 0
BITMAP
20
20
E0
20
20
20
20
20
20
ENDCHAR
STARTCHAR 02E7
ENCODING 743
SWIDTH 500 0
DWIDTH 6 0
BBX 3 9 0 0
BITMAP
20
20
20
20
E0
20
20
20
20
ENDCHAR
STARTCHAR 02E8
ENCODING 744
SWIDTH 500 0
DWIDTH 6 0
BBX 3 9 0 0
BITMAP
20
20
20
20
20
20
E0
20
20
ENDCHAR
STARTCHAR 02E9
ENCODING 745
SWIDTH 500 0
DWIDTH 6 0
BBX 3 9 0 0
BITMAP
20
20
20
20
20
20
20
20
E0
ENDCHAR
STARTCHAR 0300
ENCODING 768
SWIDTH 500 0
DWIDTH 6 0
BBX 1 1 2 8
BITMAP
80
ENDCHAR
STARTCHAR 0301
ENCODING 769
SWIDTH 500 0
DWIDTH 6 0
BBX 1 1 3 8
BITMAP
80
ENDCHAR
STARTCHAR 0302
ENCODING 770
SWIDTH 500 0
DWIDTH 6 0
BBX 2 1 2 8
BITMAP
C0
ENDCHAR
STARTCHAR 0303
ENCODING 771
SWIDTH 500 0
DWIDTH 6 0
BBX 3 1 2 7
BITMAP
E0
ENDCHAR
STARTCHAR 0304
ENCODING 772
SWIDTH 500 0
DWIDTH 6 0
BBX 4 1 1 7
BITMAP
F0
ENDCHAR
STARTCHAR 0305
ENCODING 773
SWIDTH 500 0
DWIDTH 6 0
BBX 4 1 1 7
BITMAP
F0
ENDCHAR
STARTCHAR 0306
ENCODING 774
SWIDTH 500 0
DWIDTH 6 0
BBX 2 1 2 8
BITMAP
C0
ENDCHAR
STARTCHAR 0308
ENCODING 776
SWIDTH 500 0
DWIDTH 6 0
BBX 4 1 1 8
BITMAP
90
ENDCHAR
STARTCHAR 030B
ENCODING 779
SWIDTH 500 0
DWIDTH 6 0
BBX 3 2 2 7
BITMAP
A0
40
ENDCHAR
STARTCHAR 030C
ENCODING 780
SWIDTH 500 0
DWIDTH 6 0
BBX 2 1 2 8
BITMAP
C0
ENDCHAR
STARTCHAR 030F
ENCODING 783
SWIDTH 500 0
DWIDTH 6 0
BBX 3 2 1 7
BITMAP
A0
40
ENDCHAR
STARTCHAR 0318
ENCODING 792
SWIDTH 500 0
DWIDTH 6 0
BBX 2 3 2 -3
BITMAP
40
C0
40
ENDCHAR
STARTCHAR 0319
ENCODING 793
SWIDTH 500 0
DWIDTH 6 0
BBX 2 3 2 -3
BITMAP
80
C0
80
ENDCHAR
STARTCHAR 031A
ENCODING 794
SWIDTH 500 0
DWIDTH 6 0
BBX 3 3 0 5
BITMAP
E0
20
20
ENDCHAR
STARTCHAR 031C
ENCODING 796
SWIDTH 500 0
DWIDTH 6 0
BBX 2 3 2 -4
BITMAP
40
80
80
ENDCHAR
STARTCHAR 031D
ENCODING 797
SWIDTH 500 0
DWIDTH 6 0
BBX 3 2 2 -1
BITMAP
40
E0
ENDCHAR
STARTCHAR 031E
ENCODING 798
SWIDTH 500 0
DWIDTH 6 0
BBX 3 2 2 -3
BITMAP
E0
40
ENDCHAR
STARTCHAR 031F
ENCODING 799
SWIDTH 500 0
DWIDTH 6 0
BBX 3 3 2 -3
BITMAP
40
E0
40
ENDCHAR
STARTCHAR 0320
ENCODING 800
SWIDTH 500 0
DWIDTH 6 0
BBX 4 1 1 -1
BITMAP
F0
ENDCHAR
STARTCHAR 0324
ENCODING 804
SWIDTH 500 0
DWIDTH 6 0
BBX 4 1 1 -1
BITMAP
90
ENDCHAR
STARTCHAR 0325
ENCODING 805
SWIDTH 500 0
DWIDTH 6 0
BBX 2 2 2 -2
BITMAP
C0
C0
ENDCHAR
STARTCHAR 0327
ENCODING 807
SWIDTH 500 0
DWIDTH 6 0
BBX 2 3 2 -2
BITMAP
80
40
80
ENDCHAR
STARTCHAR 0329
ENCODING 809
SWIDTH 500 0
DWIDTH 6 0
BBX 1 3 3 -4
BITMAP
80
80
80
ENDCHAR
STARTCHAR 032A
ENCODING 810
SWIDTH 500 0
DWIDTH 6 0
BBX 4 2 1 -3
BITMAP
F0
90
ENDCHAR
STARTCHAR 032C
ENCODING 812
SWIDTH 500 0
DWIDTH 6 0
BBX 2 1 2 -1
BITMAP
C0
ENDCHAR
STARTCHAR 032F
ENCODING 815
SWIDTH 500 0
DWIDTH 6 0
BBX 2 1 2 -2
BITMAP
C0
ENDCHAR
STARTCHAR 0330
ENCODING 816
SWIDTH 500 0
DWIDTH 6 0
BBX 3 1 2 -2
BITMAP
E0
ENDCHAR
STARTCHAR 0332
ENCODING 818
SWIDTH 500 0
DWIDTH 6 0
BBX 6 1 0 -1
BITMAP
FC
ENDCHAR
STARTCHAR 0334
ENCODING 820
SWIDTH 500 0
DWIDTH 6 0
BBX 3 1 2 3
BITMAP
E0
ENDCHAR
STARTCHAR 0336
ENCODING 822
SWIDTH 916 0
DWIDTH 11 0
BBX 11 1 0 4
BITMAP
FFE0
ENDCHAR
STARTCHAR 0339
ENCODING 825
SWIDTH 500 0
DWIDTH 6 0
BBX 2 3 2 -4
BITMAP
80
40
40
ENDCHAR
STARTCHAR 033A
ENCODING 826
SWIDTH 500 0
DWIDTH 6 0
BBX 4 2 1 -2
BITMAP
90
F0
ENDCHAR
STARTCHAR 033B
ENCODING 827
SWIDTH 500 0
DWIDTH 6 0
BBX 4 3 1 -3
BITMAP
F0
90
F0
ENDCHAR
STARTCHAR 033C
ENCODING 828
SWIDTH 500 0
DWIDTH 6 0
BBX 2 1 2 -2
BITMAP
C0
ENDCHAR
STARTCHAR 033D
ENCODING 829
SWIDTH 500 0
DWIDTH 6 0
BBX 2 2 2 7
BITMAP
C0
C0
ENDCHAR
STARTCHAR 0361
ENCODING 865
SWIDTH 0 0
DWIDTH 0 0
BBX 6 2 -3 9
BITMAP
78
84
ENDCHAR
STARTCHAR 0391
ENCODING 913
SWIDTH 1000 0
DWIDTH 12 0
BBX 8 8 2 2
BITMAP
10
18
28
24
44
7E
42
81
ENDCHAR
STARTCHAR 0392
ENCODING 914
SWIDTH 1000 0
DWIDTH 12 0
BBX 6 8 3 1
BITMAP
F8
84
84
8C
F0
8C
84
88
ENDCHAR
STARTCHAR 0393
ENCODING 915
SWIDTH 1000 0
DWIDTH 12 0
BBX 7 8 3 1
BITMAP
FE
42
40
40
40
40
40
40
ENDCHAR
STARTCHAR 0394
ENCODING 916
SWIDTH 1000 0
DWIDTH 12 0
BBX 8 8 2 2
BITMAP
18
28
24
44
42
82
82
FF
ENDCHAR
STARTCHAR 0395
ENCODING 917
SWIDTH 1000 0
DWIDTH 12 0
BBX 7 8 2 1
BITMAP
FE
42
40
40
7C
40
40
FE
ENDCHAR
STARTCHAR 0396
ENCODING 918
SWIDTH 1000 0
DWIDTH 12 0
BBX 6 8 3 1
BITMAP
FC
88
08
10
20
40
84
FC
ENDCHAR
STARTCHAR 0397
ENCODING 919
SWIDTH 1000 0
DWIDTH 12 0
BBX 6 8 3 1
BITMAP
84
84
84
84
FC
84
84
84
ENDCHAR
STARTCHAR 0398
ENCODING 920
SWIDTH 1000 0
DWIDTH 12 0
BBX 8 9 2 0
BITMAP
3C
42
83
81
BD
81
81
42
3C
ENDCHAR
STARTCHAR 0399
ENCODING 921
SWIDTH 1000 0
DWIDTH 12 0
BBX 1 8 6 1
BITMAP
80
80
80
80
80
80
80
80
ENDCHAR
STARTCHAR 039A
ENCODING 922
SWIDTH 1000 0
DWIDTH 12 0
BBX 7 8 3 1
BITMAP
84
88
90
A0
D0
88
8C
86
ENDCHAR
STARTCHAR 039B
ENCODING 923
SWIDTH 1000 0
DWIDTH 12 0
BBX 8 8 2 2
BITMAP
18
28
28
24
44
46
82
83
ENDCHAR
STARTCHAR 039C
ENCODING 924
SWIDTH 1000 0
DWIDTH 12 0
BBX 8 8 2 1
BITMAP
C1
C3
A5
A5
A5
99
99
91
ENDCHAR
STARTCHAR 039D
ENCODING 925
SWIDTH 1000 0
DWIDTH 12 0
BBX 6 8 3 0
BITMAP
C4
C4
A4
A4
94
94
8C
84
ENDCHAR
STARTCHAR 039E
ENCODING 926
SWIDTH 1000 0
DWIDTH 12 0
BBX 6 8 3 1
BITMAP
FC
00
00
00
78
00
00
FC
ENDCHAR
STARTCHAR 039F
ENCODING 927
SWIDTH 1000 0
DWIDTH 12 0
BBX 8 9 2 0
BITMAP
3C
42
81
81
81
81
81
42
3C
ENDCHAR
STARTCHAR 03A0
ENCODING 928
SWIDTH 1000 0
DWIDTH 12 0
BBX 8 8 2 1
BITMAP
FF
42
42
42
42
42
42
42
ENDCHAR
STARTCHAR 03A1
ENCODING 929
SWIDTH 1000 0
DWIDTH 12 0
BBX 6 8 4 1
BITMAP
F8
84
84
8C
F8
80
80
80
ENDCHAR
STARTCHAR 03A3
ENCODING 931
SWIDTH 1000 0
DWIDTH 12 0
BBX 7 8 3 1
BITMAP
FE
42
20
10
10
20
C2
FE
ENDCHAR
STARTCHAR 03A4
ENCODING 932
SWIDTH 1000 0
DWIDTH 12 0
BBX 8 8 2 1
BITMAP
FF
89
08
08
08
08
08
08
ENDCHAR
STARTCHAR 03A5
ENCODING 933
SWIDTH 1000 0
DWIDTH 12 0
BBX 9 8 2 1
BITMAP
7700
9900
8880
0800
0800
0800
0800
0800
ENDCHAR
STARTCHAR 03A6
ENCODING 934
SWIDTH 1000 0
DWIDTH 12 0
BBX 9 8 2 1
BITMAP
0800
1E00
6900
8880
8880
4900
3E00
0800
ENDCHAR
STARTCHAR 03A7
ENCODING 935
SWIDTH 1000 0
DWIDTH 12 0
BBX 8 8 2 1
BITMAP
42
24
28
10
18
24
42
C3
ENDCHAR
STARTCHAR 03A8
ENCODING 936
SWIDTH 1000 0
DWIDTH 12 0
BBX 9 8 2 1
BITMAP
C980
4900
4900
4900
4A00
2A00
1C00
0800
ENDCHAR
STARTCHAR 03A9
ENCODING 937
SWIDTH 1000 0
DWIDTH 12 0
BBX 8 8 2 1
BITMAP
3C
42
81
81
81
42
24
E7
ENDCHAR
STARTCHAR 03B1
ENCODING 945
SWIDTH 1000 0
DWIDTH 12 0
BBX 7 6 3 0
BITMAP
34
4C
C8
88
9A
EC
ENDCHAR
STARTCHAR 03B2
ENCODING 946
SWIDTH 1000 0
DWIDTH 12 0
BBX 6 10 2 -2
BITMAP
18
24
24
44
48
44
44
4C
78
80
ENDCHAR
STARTCHAR 03B3
ENCODING 947
SWIDTH 1000 0
DWIDTH 12 0
BBX 6 7 3 -1
BITMAP
C4
28
30
30
20
20
20
ENDCHAR
STARTCHAR 03B4
ENCODING 948
SWIDTH 1000 0
DWIDTH 12 0
BBX 6 9 3 0
BITMAP
7C
40
20
50
88
88
88
90
70
ENDCHAR
STARTCHAR 03B5
ENCODING 949
SWIDTH 1000 0
DWIDTH 12 0
BBX 5 6 3 0
BITMAP
78
40
70
80
88
70
ENDCHAR
STARTCHAR 03B6
ENCODING 950
SWIDTH 1000 0
DWIDTH 12 0
BBX 6 10 3 0
BITMAP
4C
50
60
40
80
80
80
60
18
38
ENDCHAR
STARTCHAR 03B7
ENCODING 951
SWIDTH 1000 0
DWIDTH 12 0
BBX 5 7 3 -2
BITMAP
F8
68
48
48
90
90
10
ENDCHAR
STARTCHAR 03B8
ENCODING 952
SWIDTH 1000 0
DWIDTH 12 0
BBX 6 9 3 0
BITMAP
38
64
44
84
FC
8C
88
98
70
ENDCHAR
STARTCHAR 03B9
ENCODING 953
SWIDTH 1000 0
DWIDTH 12 0
BBX 3 6 4 1
BITMAP
40
40
80
80
80
E0
ENDCHAR
STARTCHAR 03BA
ENCODING 954
SWIDTH 1000 0
DWIDTH 12 0
BBX 6 6 3 0
BITMAP
4C
50
60
90
94
18
ENDCHAR
STARTCHAR 03BB
ENCODING 955
SWIDTH 1000 0
DWIDTH 12 0
BBX 6 9 3 0
BITMAP
70
10
10
10
30
50
50
90
0C
ENDCHAR
STARTCHAR 03BC
ENCODING 956
SWIDTH 1000 0
DWIDTH 12 0
BBX 7 7 2 -1
BITMAP
24
24
48
48
C8
B6
80
ENDCHAR
STARTCHAR 03BD
ENCODING 957
SWIDTH 1000 0
DWIDTH 12 0
BBX 6 6 3 0
BITMAP
C4
44
44
48
70
40
ENDCHAR
STARTCHAR 03BE
ENCODING 958
SWIDTH 1000 0
DWIDTH 12 0
BBX 4 10 4 0
BITMAP
70
40
40
40
60
80
80
40
20
E0
ENDCHAR
STARTCHAR 03BF
ENCODING 959
SWIDTH 1000 0
DWIDTH 12 0
BBX 5 6 4 0
BITMAP
70
C8
88
88
98
70
ENDCHAR
STARTCHAR 03C0
ENCODING 960
SWIDTH 1000 0
DWIDTH 12 0
BBX 6 6 3 1
BITMAP
FC
50
50
50
94
98
ENDCHAR
STARTCHAR 03C1
ENCODING 961
SWIDTH 1000 0
DWIDTH 12 0
BBX 6 7 3 -2
BITMAP
38
C4
84
8C
F8
80
80
ENDCHAR
STARTCHAR 03C2
ENCODING 962
SWIDTH 500 0
DWIDTH 6 0
BBX 6 8 0 -2
BITMAP
38
44
4C
40
20
10
10
E0
ENDCHAR
STARTCHAR 03C3
ENCODING 963
SWIDTH 1000 0
DWIDTH 12 0
BBX 5 7 4 0
BITMAP
78
D0
88
88
88
90
70
ENDCHAR
STARTCHAR 03C4
ENCODING 964
SWIDTH 1000 0
DWIDTH 12 0
BBX 6 6 3 1
BITMAP
FC
20
20
40
48
70
ENDCHAR
STARTCHAR 03C5
ENCODING 965
SWIDTH 1000 0
DWIDTH 12 0
BBX 6 6 3 0
BITMAP
CC
44
44
84
88
70
ENDCHAR
STARTCHAR 03C6
ENCODING 966
SWIDTH 1000 0
DWIDTH 12 0
BBX 6 9 3 -1
BITMAP
10
10
78
A4
A4
A4
68
50
40
ENDCHAR
STARTCHAR 03C7
ENCODING 967
SWIDTH 1000 0
DWIDTH 12 0
BBX 6 7 3 -2
BITMAP
C4
28
10
20
20
54
98
ENDCHAR
STARTCHAR 03C8
ENCODING 968
SWIDTH 1000 0
DWIDTH 12 0
BBX 6 9 3 -1
BITMAP
08
10
54
94
A4
A4
68
30
40
ENDCHAR
STARTCHAR 03C9
ENCODING 969
SWIDTH 1000 0
DWIDTH 12 0
BBX 8 6 2 1
BITMAP
42
89
89
91
92
6C
ENDCHAR
STARTCHAR 0401
ENCODING 1025
SWIDTH 1000 0
DWIDTH 12 0
BBX 7 9 2 1
BITMAP
22
FE
42
40
40
7C
40
40
FE
ENDCHAR
STARTCHAR 0410
ENCODING 1040
SWIDTH 1000 0
DWIDTH 12 0
BBX 8 8 2 2
BITMAP
10
18
28
24
44
7E
42
81
ENDCHAR
STARTCHAR 0411
ENCODING 1041
SWIDTH 1000 0
DWIDTH 12 0
BBX 8 8 2 1
BITMAP
FE
42
40
40
7E
41
41
42
ENDCHAR
STARTCHAR 0412
ENCODING 1042
SWIDTH 1000 0
DWIDTH 12 0
BBX 6 8 3 1
BITMAP
F8
84
84
8C
F0
8C
84
88
ENDCHAR
STARTCHAR 0413
ENCODING 1043
SWIDTH 1000 0
DWIDTH 12 0
BBX 7 8 3 1
BITMAP
FE
42
40
40
40
40
40
40
ENDCHAR
STARTCHAR 0414
ENCODING 1044
SWIDTH 1000 0
DWIDTH 12 0
BBX 8 9 2 -1
BITMAP
7F
22
22
22
42
42
82
FF
81
ENDCHAR
STARTCHAR 0415
ENCODING 1045
SWIDTH 1000 0
DWIDTH 12 0
BBX 7 8 2 1
BITMAP
FE
42
40
40
7C
40
40
FE
ENDCHAR
STARTCHAR 0416
ENCODING 1046
SWIDTH 1000 0
DWIDTH 12 0
BBX 11 8 1 1
BITMAP
C460
4480
2500
1500
1F00
2480
2480
4440
ENDCHAR
STARTCHAR 0417
ENCODING 1047
SWIDTH 1000 0
DWIDTH 12 0
BBX 6 9 3 0
BITMAP
70
88
08
08
70
0C
04
84
78
ENDCHAR
STARTCHAR 0418
ENCODING 1048
SWIDTH 1000 0
DWIDTH 12 0
BBX 6 8 3 1
BITMAP
84
84
8C
94
A4
C4
84
84
ENDCHAR
STARTCHAR 0419
ENCODING 1049
SWIDTH 1000 0
DWIDTH 12 0
BBX 6 9 3 1
BITMAP
78
84
84
8C
94
A4
C4
84
84
ENDCHAR
STARTCHAR 041A
ENCODING 1050
SWIDTH 1000 0
DWIDTH 12 0
BBX 7 8 3 2
BITMAP
86
88
90
A0
D0
88
8C
86
ENDCHAR
STARTCHAR 041B
ENCODING 1051
SWIDTH 1000 0
DWIDTH 12 0
BBX 8 9 1 0
BITMAP
1F
11
11
11
11
11
D1
91
E0
ENDCHAR
STARTCHAR 041C
ENCODING 1052
SWIDTH 1000 0
DWIDTH 12 0
BBX 9 8 1 1
BITMAP
6180
6280
5280
9480
9480
8C80
8880
8080
ENDCHAR
STARTCHAR 041D
ENCODING 1053
SWIDTH 1000 0
DWIDTH 12 0
BBX 6 8 3 1
BITMAP
84
84
84
84
FC
84
84
84
ENDCHAR
STARTCHAR 041E
ENCODING 1054
SWIDTH 1000 0
DWIDTH 12 0
BBX 8 9 2 0
BITMAP
3C
42
81
81
81
81
81
42
3C
ENDCHAR
STARTCHAR 041F
ENCODING 1055
SWIDTH 1000 0
DWIDTH 12 0
BBX 8 8 2 1
BITMAP
FF
42
42
42
42
42
42
42
ENDCHAR
STARTCHAR 0420
ENCODING 1056
SWIDTH 1000 0
DWIDTH 12 0
BBX 6 8 4 1
BITMAP
F8
84
84
8C
F8
80
80
80
ENDCHAR
STARTCHAR 0421
ENCODING 1057
SWIDTH 1000 0
DWIDTH 12 0
BBX 8 9 2 0
BITMAP
3E
61
80
80
80
80
C0
61
3E
ENDCHAR
STARTCHAR 0422
ENCODING 1058
SWIDTH 1000 0
DWIDTH 12 0
BBX 8 8 2 1
BITMAP
FF
89
08
08
08
08
08
08
ENDCHAR
STARTCHAR 0423
ENCODING 1059
SWIDTH 1000 0
DWIDTH 12 0
BBX 7 9 2 0
BITMAP
42
42
24
14
18
08
10
D0
E0
ENDCHAR
STARTCHAR 0424
ENCODING 1060
SWIDTH 1000 0
DWIDTH 12 0
BBX 9 8 2 1
BITMAP
0800
1E00
6900
8880
8880
4900
3E00
0800
ENDCHAR
STARTCHAR 0425
ENCODING 1061
SWIDTH 1000 0
DWIDTH 12 0
BBX 8 8 2 1
BITMAP
42
24
28
10
18
24
42
C3
ENDCHAR
STARTCHAR 0426
ENCODING 1062
SWIDTH 1000 0
DWIDTH 12 0
BBX 8 9 2 -1
BITMAP
42
42
42
42
42
42
42
FF
01
ENDCHAR
STARTCHAR 0427
ENCODING 1063
SWIDTH 1000 0
DWIDTH 12 0
BBX 6 8 3 1
BITMAP
84
84
84
84
7C
04
04
04
ENDCHAR
STARTCHAR 0428
ENCODING 1064
SWIDTH 1000 0
DWIDTH 12 0
BBX 8 8 2 1
BITMAP
89
89
89
89
89
89
89
89
ENDCHAR
STARTCHAR 0429
ENCODING 1065
SWIDTH 1000 0
DWIDTH 12 0
BBX 9 9 2 -1
BITMAP
9100
9100
9100
9100
9100
9100
9100
9100
6E80
ENDCHAR
STARTCHAR 042A
ENCODING 1066
SWIDTH 1000 0
DWIDTH 12 0
BBX 8 8 2 1
BITMAP
E0
20
20
20
3E
21
21
22
ENDCHAR
STARTCHAR 042B
ENCODING 1067
SWIDTH 1000 0
DWIDTH 12 0
BBX 8 8 2 1
BITMAP
81
81
81
81
F9
85
85
89
ENDCHAR
STARTCHAR 042C
ENCODING 1068
SWIDTH 1000 0
DWIDTH 12 0
BBX 6 8 4 1
BITMAP
80
80
80
80
F8
84
84
88
ENDCHAR
STARTCHAR 042D
ENCODING 1069
SWIDTH 1000 0
DWIDTH 12 0
BBX 8 9 2 0
BITMAP
F8
86
03
73
0D
03
03
86
7C
ENDCHAR
STARTCHAR 042E
ENCODING 1070
SWIDTH 1000 0
DWIDTH 12 0
BBX 9 9 2 0
BITMAP
8E00
9100
A080
A080
E080
A080
A080
9100
0E00
ENDCHAR
STARTCHAR 042F
ENCODING 1071
SWIDTH 1000 0
DWIDTH 12 0
BBX 7 9 2 0
BITMAP
3E
42
42
62
3E
12
22
42
80
ENDCHAR
STARTCHAR 0430
ENCODING 1072
SWIDTH 1000 0
DWIDTH 12 0
BBX 6 6 3 0
BITMAP
78
C8
38
C8
88
7C
ENDCHAR
STARTCHAR 0431
ENCODING 1073
SWIDTH 1000 0
DWIDTH 12 0
BBX 6 9 3 1
BITMAP
04
78
80
F8
84
84
84
CC
78
ENDCHAR
STARTCHAR 0432
ENCODING 1074
SWIDTH 1000 0
DWIDTH 12 0
BBX 5 5 4 1
BITMAP
F8
88
F0
88
88
ENDCHAR
STARTCHAR 0433
ENCODING 1075
SWIDTH 1000 0
DWIDTH 12 0
BBX 6 5 3 1
BITMAP
FC
44
40
40
40
ENDCHAR
STARTCHAR 0434
ENCODING 1076
SWIDTH 1000 0
DWIDTH 12 0
BBX 6 6 3 -1
BITMAP
78
48
48
88
FC
04
ENDCHAR
STARTCHAR 0435
ENCODING 1077
SWIDTH 1000 0
DWIDTH 12 0
BBX 6 6 3 0
BITMAP
78
88
FC
80
C8
78
ENDCHAR
STARTCHAR 0436
ENCODING 1078
SWIDTH 1000 0
DWIDTH 12 0
BBX 9 5 2 1
BITMAP
C980
4A00
3E00
4900
4900
ENDCHAR
STARTCHAR 0437
ENCODING 1079
SWIDTH 1000 0
DWIDTH 12 0
BBX 5 6 4 0
BITMAP
F0
10
60
18
08
F0
ENDCHAR
STARTCHAR 0438
ENCODING 1080
SWIDTH 1000 0
DWIDTH 12 0
BBX 4 5 4 1
BITMAP
90
90
F0
90
90
ENDCHAR
STARTCHAR 0439
ENCODING 1081
SWIDTH 1000 0
DWIDTH 12 0
BBX 4 8 4 1
BITMAP
60
60
00
90
90
F0
90
90
ENDCHAR
STARTCHAR 043A
ENCODING 1082
SWIDTH 1000 0
DWIDTH 12 0
BBX 6 5 4 1
BITMAP
9C
A0
D0
90
88
ENDCHAR
STARTCHAR 043B
ENCODING 1083
SWIDTH 1000 0
DWIDTH 12 0
BBX 7 6 1 0
BITMAP
1E
12
12
12
A2
E0
ENDCHAR
STARTCHAR 043C
ENCODING 1084
SWIDTH 1000 0
DWIDTH 12 0
BBX 6 5 3 1
BITMAP
C4
CC
D4
B4
A4
ENDCHAR
STARTCHAR 043D
ENCODING 1085
SWIDTH 1000 0
DWIDTH 12 0
BBX 4 5 4 1
BITMAP
90
90
F0
90
90
ENDCHAR
STARTCHAR 043E
ENCODING 1086
SWIDTH 1000 0
DWIDTH 12 0
BBX 6 6 3 0
BITMAP
78
C4
84
84
CC
78
ENDCHAR
STARTCHAR 043F
ENCODING 1087
SWIDTH 1000 0
DWIDTH 12 0
BBX 6 5 3 1
BITMAP
FC
48
48
48
48
ENDCHAR
STARTCHAR 0440
ENCODING 1088
SWIDTH 1000 0
DWIDTH 12 0
BBX 5 7 4 0
BITMAP
F0
88
88
88
F0
80
80
ENDCHAR
STARTCHAR 0441
ENCODING 1089
SWIDTH 1000 0
DWIDTH 12 0
BBX 5 6 3 0
BITMAP
78
C8
80
80
C8
78
ENDCHAR
STARTCHAR 0442
ENCODING 1090
SWIDTH 1000 0
DWIDTH 12 0
BBX 6 5 3 1
BITMAP
FC
10
10
10
10
ENDCHAR
STARTCHAR 0443
ENCODING 1091
SWIDTH 1000 0
DWIDTH 12 0
BBX 6 7 3 -1
BITMAP
C4
48
28
30
10
20
E0
ENDCHAR
STARTCHAR 0444
ENCODING 1092
SWIDTH 1000 0
DWIDTH 12 0
BBX 7 10 3 -1
BITMAP
30
10
10
7C
92
92
92
7C
10
10
ENDCHAR
STARTCHAR 0445
ENCODING 1093
SWIDTH 1000 0
DWIDTH 12 0
BBX 6 5 3 1
BITMAP
48
30
30
58
8C
ENDCHAR
STARTCHAR 0446
ENCODING 1094
SWIDTH 1000 0
DWIDTH 12 0
BBX 6 6 3 -1
BITMAP
48
48
48
48
FC
04
ENDCHAR
STARTCHAR 0447
ENCODING 1095
SWIDTH 1000 0
DWIDTH 12 0
BBX 5 5 3 1
BITMAP
88
88
F8
08
08
ENDCHAR
STARTCHAR 0448
ENCODING 1096
SWIDTH 1000 0
DWIDTH 12 0
BBX 8 5 2 1
BITMAP
89
89
89
89
89
ENDCHAR
STARTCHAR 0449
ENCODING 1097
SWIDTH 1000 0
DWIDTH 12 0
BBX 9 6 2 -1
BITMAP
8900
8900
8900
8900
8900
7680
ENDCHAR
STARTCHAR 044A
ENCODING 1098
SWIDTH 1000 0
DWIDTH 12 0
BBX 6 5 3 1
BITMAP
C0
40
7C
44
44
ENDCHAR
STARTCHAR 044B
ENCODING 1099
SWIDTH 1000 0
DWIDTH 12 0
BBX 6 5 3 1
BITMAP
84
84
F4
94
94
ENDCHAR
STARTCHAR 044C
ENCODING 1100
SWIDTH 1000 0
DWIDTH 12 0
BBX 5 5 4 1
BITMAP
80
80
F8
88
88
ENDCHAR
STARTCHAR 044D
ENCODING 1101
SWIDTH 1000 0
DWIDTH 12 0
BBX 5 6 3 0
BITMAP
F0
08
78
08
08
F0
ENDCHAR
STARTCHAR 044E
ENCODING 1102
SWIDTH 1000 0
DWIDTH 12 0
BBX 8 6 3 0
BITMAP
9E
B3
E1
A1
93
1E
ENDCHAR
STARTCHAR 044F
ENCODING 1103
SWIDTH 1000 0
DWIDTH 12 0
BBX 5 5 3 0
BITMAP
F8
88
F8
48
88
ENDCHAR
STARTCHAR 0451
ENCODING 1105
SWIDTH 1000 0
DWIDTH 12 0
BBX 6 9 3 0
BITMAP
48
00
00
78
88
FC
80
C8
78
ENDCHAR
STARTCHAR 1E3E
ENCODING 7742
SWIDTH 916 0
DWIDTH 11 0
BBX 8 11 2 0
BITMAP
08
10
C3
C3
C5
A5
A5
A9
99
99
91
ENDCHAR
STARTCHAR 1E3F
ENCODING 7743
SWIDTH 916 0
DWIDTH 11 0
BBX 8 9 2 0
BITMAP
08
10
00
EE
91
91
91
91
91
ENDCHAR
STARTCHAR 1F70
ENCODING 8048
SWIDTH 583 0
DWIDTH 7 0
BBX 6 9 1 0
BITMAP
40
20
00
78
88
88
88
88
7C
ENDCHAR
STARTCHAR 1F71
ENCODING 8049
SWIDTH 583 0
DWIDTH 7 0
BBX 6 9 1 0
BITMAP
10
20
00
78
88
88
88
88
7C
ENDCHAR
STARTCHAR 1F72
ENCODING 8050
SWIDTH 500 0
DWIDTH 6 0
BBX 4 8 1 1
BITMAP
40
00
70
80
60
80
80
F0
ENDCHAR
STARTCHAR 1F73
ENCODING 8051
SWIDTH 500 0
DWIDTH 6 0
BBX 4 9 1 0
BITMAP
10
20
00
70
80
60
80
80
F0
ENDCHAR
STARTCHAR 2002
ENCODING 8194
SWIDTH 500 0
DWIDTH 6 0
BBX 0 0 0 0
BITMAP
ENDCHAR
STARTCHAR 2003
ENCODING 8195
SWIDTH 1000 0
DWIDTH 12 0
BBX 0 0 0 0
BITMAP
ENDCHAR
STARTCHAR 2010
ENCODING 8208
SWIDTH 333 0
DWIDTH 4 0
BBX 3 1 0 3
BITMAP
E0
ENDCHAR
STARTCHAR 2011
ENCODING 8209
SWIDTH 333 0
DWIDTH 4 0
BBX 3 1 0 3
BITMAP
E0
ENDCHAR
STARTCHAR 2012
ENCODING 8210
SWIDTH 333 0
DWIDTH 4 0
BBX 3 1 0 3
BITMAP
E0
ENDCHAR
STARTCHAR 2013
ENCODING 8211
SWIDTH 583 0
DWIDTH 7 0
BBX 5 1 1 3
BITMAP
F8
ENDCHAR
STARTCHAR 2014
ENCODING 8212
SWIDTH 916 0
DWIDTH 11 0
BBX 11 1 0 4
BITMAP
FFE0
ENDCHAR
STARTCHAR 2015
ENCODING 8213
SWIDTH 1000 0
DWIDTH 12 0
BBX 10 1 1 4
BITMAP
FFC0
ENDCHAR
STARTCHAR 2016
ENCODING 8214
SWIDTH 1000 0
DWIDTH 12 0
BBX 2 12 5 -2
BITMAP
C0
C0
C0
C0
C0
C0
C0
C0
C0
C0
C0
C0
ENDCHAR
STARTCHAR 2018
ENCODING 8216
SWIDTH 1000 0
DWIDTH 12 0
BBX 2 3 9 8
BITMAP
40
80
C0
ENDCHAR
STARTCHAR 2019
ENCODING 8217
SWIDTH 1000 0
DWIDTH 12 0
BBX 2 3 1 6
BITMAP
C0
C0
80
ENDCHAR
STARTCHAR 201C
ENCODING 8220
SWIDTH 1000 0
DWIDTH 12 0
BBX 4 3 7 8
BITMAP
90
A0
F0
ENDCHAR
STARTCHAR 201D
ENCODING 8221
SWIDTH 1000 0
DWIDTH 12 0
BBX 4 3 1 6
BITMAP
F0
D0
A0
ENDCHAR
STARTCHAR 2020
ENCODING 8224
SWIDTH 1000 0
DWIDTH 12 0
BBX 5 11 4 -1
BITMAP
70
70
F8
F8
20
20
20
20
20
20
20
ENDCHAR
STARTCHAR 2021
ENCODING 8225
SWIDTH 1000 0
DWIDTH 12 0
BBX 4 11 4 -1
BITMAP
60
60
F0
40
40
40
40
40
F0
60
60
ENDCHAR
STARTCHAR 2022
ENCODING 8226
SWIDTH 333 0
DWIDTH 4 0
BBX 2 2 1 3
BITMAP
C0
C0
ENDCHAR
STARTCHAR 2025
ENCODING 8229
SWIDTH 1000 0
DWIDTH 12 0
BBX 8 2 2 4
BITMAP
C3
C3
ENDCHAR
STARTCHAR 2026
ENCODING 8230
SWIDTH 1000 0
DWIDTH 12 0
BBX 9 1 1 4
BITMAP
8880
ENDCHAR
STARTCHAR 2030
ENCODING 8240
SWIDTH 1000 0
DWIDTH 12 0
BBX 10 11 1 -1
BITMAP
4400
A800
A800
B000
5000
2000
3DC0
5540
5540
9DC0
8000
ENDCHAR
STARTCHAR 2032
ENCODING 8242
SWIDTH 250 0
DWIDTH 3 0
BBX 2 3 0 6
BITMAP
40
40
80
ENDCHAR
STARTCHAR 2033
ENCODING 8243
SWIDTH 416 0
DWIDTH 5 0
BBX 4 3 0 6
BITMAP
50
50
A0
ENDCHAR
STARTCHAR 203B
ENCODING 8251
SWIDTH 1000 0
DWIDTH 12 0
BBX 10 10 1 -1
BITMAP
0C00
8C80
4100
2200
D4C0
C8C0
1400
2200
4D00
8C80
ENDCHAR
STARTCHAR 203C
ENCODING 8252
SWIDTH 500 0
DWIDTH 6 0
BBX 3 9 1 0
BITMAP
A0
A0
A0
A0
A0
A0
00
00
A0
ENDCHAR
STARTCHAR 203E
ENCODING 8254
SWIDTH 500 0
DWIDTH 6 0
BBX 4 1 1 7
BITMAP
F0
ENDCHAR
STARTCHAR 203F
ENCODING 8255
SWIDTH 416 0
DWIDTH 5 0
BBX 5 1 0 0
BITMAP
F8
ENDCHAR
STARTCHAR 2042
ENCODING 8258
SWIDTH 1000 0
DWIDTH 12 0
BBX 8 8 2 1
BITMAP
34
3C
00
00
42
E7
E7
42
ENDCHAR
STARTCHAR 2047
ENCODING 8263
SWIDTH 916 0
DWIDTH 11 0
BBX 10 9 1 0
BITMAP
6380
9440
9440
1040
2080
4300
4000
0000
4200
ENDCHAR
STARTCHAR 2048
ENCODING 8264
SWIDTH 750 0
DWIDTH 9 0
BBX 6 9 1 0
BITMAP
64
94
94
14
24
44
40
00
44
ENDCHAR
STARTCHAR 2049
ENCODING 8265
SWIDTH 750 0
DWIDTH 9 0
BBX 7 9 1 0
BITMAP
9C
A2
A2
82
84
88
00
00
88
ENDCHAR
STARTCHAR 2051
ENCODING 8273
SWIDTH 1000 0
DWIDTH 12 0
BBX 4 7 4 1
BITMAP
60
D0
00
00
00
D0
F0
ENDCHAR
STARTCHAR 205A
ENCODING 8282
SWIDTH 1000 0
DWIDTH 12 0
BBX 2 8 5 1
BITMAP
C0
C0
00
00
00
00
C0
C0
ENDCHAR
STARTCHAR 205D
ENCODING 8285
SWIDTH 1000 0
DWIDTH 12 0
BBX 1 9 5 0
BITMAP
80
00
00
00
80
00
00
00
80
ENDCHAR
STARTCHAR 20AC
ENCODING 8364
SWIDTH 583 0
DWIDTH 7 0
BBX 6 9 1 1
BITMAP
38
44
40
80
F0
F0
80
44
38
ENDCHAR
STARTCHAR 2103
ENCODING 8451
SWIDTH 1000 0
DWIDTH 12 0
BBX 10 10 0 0
BITMAP
E000
E780
0840
1000
1000
1000
1000
1000
0840
0780
ENDCHAR
STARTCHAR 210F
ENCODING 8463
SWIDTH 583 0
DWIDTH 7 0
BBX 6 9 0 0
BITMAP
60
38
20
5C
64
44
48
88
8C
ENDCHAR
STARTCHAR 2113
ENCODING 8467
SWIDTH 1000 0
DWIDTH 12 0
BBX 4 9 4 0
BITMAP
30
50
50
90
A0
A0
C0
90
60
ENDCHAR
STARTCHAR 2116
ENCODING 8470
SWIDTH 1000 0
DWIDTH 12 0
BBX 11 8 1 0
BITMAP
C800
C800
C980
AA40
AA40
9A40
8A40
89A0
ENDCHAR
STARTCHAR 2121
ENCODING 8481
SWIDTH 1000 0
DWIDTH 12 0
BBX 9 8 2 1
BITMAP
E000
8000
9E00
9200
9200
9200
9200
9680
ENDCHAR
STARTCHAR 2127
ENCODING 8487
SWIDTH 833 0
DWIDTH 10 0
BBX 9 9 0 0
BITMAP
7B80
A280
2100
4080
4080
4080
4080
2100
1E00
ENDCHAR
STARTCHAR 212B
ENCODING 8491
SWIDTH 1000 0
DWIDTH 12 0
BBX 6 9 3 1
BITMAP
70
20
30
50
50
88
78
84
04
ENDCHAR
STARTCHAR 2135
ENCODING 8501
SWIDTH 666 0
DWIDTH 8 0
BBX 7 9 1 0
BITMAP
04
84
8A
48
B0
98
84
84
84
ENDCHAR
STARTCHAR 2153
ENCODING 8531
SWIDTH 750 0
DWIDTH 9 0
BBX 8 9 1 -1
BITMAP
40
42
44
48
50
17
21
41
87
ENDCHAR
STARTCHAR 2154
ENCODING 8532
SWIDTH 750 0
DWIDTH 9 0
BBX 9 9 0 -1
BITMAP
7100
5200
2400
D400
7B00
1100
1100
2080
4780
ENDCHAR
STARTCHAR 2155
ENCODING 8533
SWIDTH 750 0
DWIDTH 9 0
BBX 8 9 1 -1
BITMAP
40
42
44
48
50
17
24
47
87
ENDCHAR
STARTCHAR 2160
ENCODING 8544
SWIDTH 1000 0
DWIDTH 12 0
BBX 1 8 6 1
BITMAP
80
80
80
80
80
80
80
80
ENDCHAR
STARTCHAR 2161
ENCODING 8545
SWIDTH 1000 0
DWIDTH 12 0
BBX 6 8 3 1
BITMAP
FC
48
48
48
48
48
48
FC
ENDCHAR
STARTCHAR 2162
ENCODING 8546
SWIDTH 1000 0
DWIDTH 12 0
BBX 8 8 2 1
BITMAP
FF
89
89
89
89
89
89
89
ENDCHAR
STARTCHAR 2163
ENCODING 8547
SWIDTH 1000 0
DWIDTH 12 0
BBX 9 8 2 0
BITMAP
F080
9100
9100
8A00
8A00
8A00
8400
8400
ENDCHAR
STARTCHAR 2164
ENCODING 8548
SWIDTH 1000 0
DWIDTH 12 0
BBX 8 8 2 0
BITMAP
C3
42
62
24
24
18
18
18
ENDCHAR
STARTCHAR 2165
ENCODING 8549
SWIDTH 1000 0
DWIDTH 12 0
BBX 9 8 1 0
BITMAP
C380
8480
4480
4880
2880
2880
1080
1080
ENDCHAR
STARTCHAR 2166
ENCODING 8550
SWIDTH 1000 0
DWIDTH 12 0
BBX 9 9 1 0
BITMAP
8F80
8A80
9280
5280
5280
6280
6280
2280
0100
ENDCHAR
STARTCHAR 2167
ENCODING 8551
SWIDTH 1000 0
DWIDTH 12 0
BBX 10 9 1 0
BITMAP
8FC0
8B40
5340
5340
5340
3340
2340
2340
0080
ENDCHAR
STARTCHAR 2168
ENCODING 8552
SWIDTH 1000 0
DWIDTH 12 0
BBX 8 8 2 1
BITMAP
F1
8A
8A
84
8C
8A
91
91
ENDCHAR
STARTCHAR 2169
ENCODING 8553
SWIDTH 1000 0
DWIDTH 12 0
BBX 8 8 2 1
BITMAP
42
24
28
10
18
24
42
C3
ENDCHAR
STARTCHAR 216A
ENCODING 8554
SWIDTH 1000 0
DWIDTH 12 0
BBX 9 8 1 1
BITMAP
4780
4880
3080
1080
1080
6880
4480
8480
ENDCHAR
STARTCHAR 216B
ENCODING 8555
SWIDTH 1000 0
DWIDTH 12 0
BBX 10 8 0 1
BITMAP
47C0
4940
3140
1140
1140
6940
8940
8540
ENDCHAR
STARTCHAR 2170
ENCODING 8560
SWIDTH 1000 0
DWIDTH 12 0
BBX 2 8 5 2
BITMAP
40
00
C0
40
40
40
40
40
ENDCHAR
STARTCHAR 2171
ENCODING 8561
SWIDTH 1000 0
DWIDTH 12 0
BBX 5 8 3 2
BITMAP
48
00
D8
48
48
48
48
48
ENDCHAR
STARTCHAR 2172
ENCODING 8562
SWIDTH 1000 0
DWIDTH 12 0
BBX 7 8 2 2
BITMAP
4A
00
DA
4A
4A
4A
4A
4A
ENDCHAR
STARTCHAR 2173
ENCODING 8563
SWIDTH 1000 0
DWIDTH 12 0
BBX 8 8 3 0
BITMAP
80
00
00
91
92
8C
8C
84
ENDCHAR
STARTCHAR 2174
ENCODING 8564
SWIDTH 1000 0
DWIDTH 12 0
BBX 6 5 3 0
BITMAP
84
88
48
50
30
ENDCHAR
STARTCHAR 2175
ENCODING 8565
SWIDTH 1000 0
DWIDTH 12 0
BBX 8 8 1 0
BITMAP
01
00
00
8F
89
51
51
21
ENDCHAR
STARTCHAR 2176
ENCODING 8566
SWIDTH 1000 0
DWIDTH 12 0
BBX 9 9 1 0
BITMAP
0280
0000
0000
8E80
9280
5280
6280
2280
0100
ENDCHAR
STARTCHAR 2177
ENCODING 8567
SWIDTH 1000 0
DWIDTH 12 0
BBX 10 9 1 0
BITMAP
0540
0000
0000
9D40
9540
6540
6540
4540
0280
ENDCHAR
STARTCHAR 2178
ENCODING 8568
SWIDTH 1000 0
DWIDTH 12 0
BBX 7 8 3 1
BITMAP
80
00
00
92
8C
84
9A
A2
ENDCHAR
STARTCHAR 2179
ENCODING 8569
SWIDTH 1000 0
DWIDTH 12 0
BBX 6 5 3 1
BITMAP
48
30
30
58
8C
ENDCHAR
STARTCHAR 217A
ENCODING 8570
SWIDTH 1000 0
DWIDTH 12 0
BBX 8 8 1 1
BITMAP
01
00
00
49
31
21
51
89
ENDCHAR
STARTCHAR 217B
ENCODING 8571
SWIDTH 1000 0
DWIDTH 12 0
BBX 9 8 1 1
BITMAP
0280
0000
0000
9E80
6280
2280
5280
8A80
ENDCHAR
STARTCHAR 2190
ENCODING 8592
SWIDTH 1000 0
DWIDTH 12 0
BBX 10 5 1 2
BITMAP
2000
4000
FFC0
4000
2000
ENDCHAR
STARTCHAR 2191
ENCODING 8593
SWIDTH 1000 0
DWIDTH 12 0
BBX 5 11 4 -1
BITMAP
20
70
A8
20
20
20
20
20
20
20
20
ENDCHAR
STARTCHAR 2192
ENCODING 8594
SWIDTH 1000 0
DWIDTH 12 0
BBX 10 5 1 2
BITMAP
0100
0080
FFC0
0080
0100
ENDCHAR
STARTCHAR 2193
ENCODING 8595
SWIDTH 1000 0
DWIDTH 12 0
BBX 5 11 4 -1
BITMAP
20
20
20
20
20
20
20
20
A8
70
20
ENDCHAR
STARTCHAR 2194
ENCODING 8596
SWIDTH 750 0
DWIDTH 9 0
BBX 7 5 1 0
BITMAP
48
84
FE
84
44
ENDCHAR
STARTCHAR 2196
ENCODING 8598
SWIDTH 1000 0
DWIDTH 12 0
BBX 8 8 2 0
BITMAP
E0
C0
A0
90
08
04
02
01
ENDCHAR
STARTCHAR 2197
ENCODING 8599
SWIDTH 1000 0
DWIDTH 12 0
BBX 8 8 2 0
BITMAP
07
03
05
09
10
20
40
80
ENDCHAR
STARTCHAR 2198
ENCODING 8600
SWIDTH 1000 0
DWIDTH 12 0
BBX 8 8 2 1
BITMAP
80
40
20
10
09
05
03
07
ENDCHAR
STARTCHAR 2199
ENCODING 8601
SWIDTH 1000 0
DWIDTH 12 0
BBX 8 8 2 1
BITMAP
03
04
08
10
A0
C0
80
E0
ENDCHAR
STARTCHAR 21C4
ENCODING 8644
SWIDTH 1000 0
DWIDTH 12 0
BBX 10 9 1 0
BITMAP
0100
0080
FFC0
0080
0000
4000
FFC0
4000
2000
ENDCHAR
STARTCHAR 21D2
ENCODING 8658
SWIDTH 750 0
DWIDTH 9 0
BBX 7 4 1 2
BITMAP
04
FE
FE
04
ENDCHAR
STARTCHAR 21D4
ENCODING 8660
SWIDTH 750 0
DWIDTH 9 0
BBX 7 4 1 2
BITMAP
44
FE
FE
44
ENDCHAR
STARTCHAR 21E6
ENCODING 8678
SWIDTH 1000 0
DWIDTH 12 0
BBX 11 3 0 3
BITMAP
3000
CFE0
7FC0
ENDCHAR
STARTCHAR 21E7
ENCODING 8679
SWIDTH 1000 0
DWIDTH 12 0
BBX 5 9 3 1
BITMAP
20
50
88
70
30
30
30
30
30
ENDCHAR
STARTCHAR 21E8
ENCODING 8680
SWIDTH 1000 0
DWIDTH 12 0
BBX 10 3 1 3
BITMAP
0300
FCC0
FF80
ENDCHAR
STARTCHAR 21E9
ENCODING 8681
SWIDTH 1000 0
DWIDTH 12 0
BBX 5 9 3 -1
BITMAP
30
30
30
30
30
30
C8
50
30
ENDCHAR
STARTCHAR 2200
ENCODING 8704
SWIDTH 750 0
DWIDTH 9 0
BBX 8 9 0 0
BITMAP
81
41
42
3E
22
24
14
18
08
ENDCHAR
STARTCHAR 2202
ENCODING 8706
SWIDTH 583 0
DWIDTH 7 0
BBX 5 9 1 0
BITMAP
30
48
08
08
78
88
88
90
60
ENDCHAR
STARTCHAR 2203
ENCODING 8707
SWIDTH 750 0
DWIDTH 9 0
BBX 7 9 0 0
BITMAP
FE
02
02
02
FE
02
02
02
FE
ENDCHAR
STARTCHAR 2205
ENCODING 8709
SWIDTH 750 0
DWIDTH 9 0
BBX 8 8 1 0
BITMAP
3C
42
8D
91
A1
C1
46
BC
ENDCHAR
STARTCHAR 2207
ENCODING 8711
SWIDTH 750 0
DWIDTH 9 0
BBX 7 9 1 -1
BITMAP
FE
82
84
44
48
28
28
10
10
ENDCHAR
STARTCHAR 2208
ENCODING 8712
SWIDTH 666 0
DWIDTH 8 0
BBX 6 6 1 1
BITMAP
7C
80
00
FC
80
7C
ENDCHAR
STARTCHAR 2209
ENCODING 8713
SWIDTH 666 0
DWIDTH 8 0
BBX 6 8 1 -1
BITMAP
08
7C
90
10
FC
A0
7C
40
ENDCHAR
STARTCHAR 220B
ENCODING 8715
SWIDTH 666 0
DWIDTH 8 0
BBX 6 6 1 1
BITMAP
F8
04
04
FC
04
F8
ENDCHAR
STARTCHAR 2212
ENCODING 8722
SWIDTH 666 0
DWIDTH 8 0
BBX 6 1 1 3
BITMAP
FC
ENDCHAR
STARTCHAR 2213
ENCODING 8723
SWIDTH 666 0
DWIDTH 8 0
BBX 7 8 1 -1
BITMAP
FE
00
10
10
FE
10
10
10
ENDCHAR
STARTCHAR 2219
ENCODING 8729
SWIDTH 250 0
DWIDTH 3 0
BBX 1 1 1 3
BITMAP
80
ENDCHAR
STARTCHAR 221A
ENCODING 8730
SWIDTH 500 0
DWIDTH 6 0
BBX 6 11 1 -1
BITMAP
04
08
08
10
10
10
A0
A0
A0
40
40
ENDCHAR
STARTCHAR 221D
ENCODING 8733
SWIDTH 666 0
DWIDTH 8 0
BBX 6 4 1 2
BITMAP
6C
90
90
6C
ENDCHAR
STARTCHAR 221E
ENCODING 8734
SWIDTH 666 0
DWIDTH 8 0
BBX 7 4 1 2
BITMAP
CC
B2
92
EC
ENDCHAR
STARTCHAR 221F
ENCODING 8735
SWIDTH 666 0
DWIDTH 8 0
BBX 7 8 1 1
BITMAP
80
80
80
80
80
80
80
FE
ENDCHAR
STARTCHAR 2220
ENCODING 8736
SWIDTH 666 0
DWIDTH 8 0
BBX 7 8 1 1
BITMAP
10
20
20
40
40
80
80
FE
ENDCHAR
STARTCHAR 2225
ENCODING 8741
SWIDTH 666 0
DWIDTH 8 0
BBX 6 11 1 -1
BITMAP
04
14
28
28
28
50
50
60
A0
A0
80
ENDCHAR
STARTCHAR 2226
ENCODING 8742
SWIDTH 666 0
DWIDTH 8 0
BBX 6 11 1 0
BITMAP
14
14
A8
68
30
50
58
68
A0
A0
80
ENDCHAR
STARTCHAR 2227
ENCODING 8743
SWIDTH 666 0
DWIDTH 8 0
BBX 6 5 1 1
BITMAP
30
50
48
88
84
ENDCHAR
STARTCHAR 2228
ENCODING 8744
SWIDTH 666 0
DWIDTH 8 0
BBX 6 6 1 1
BITMAP
84
84
48
48
50
30
ENDCHAR
STARTCHAR 2229
ENCODING 8745
SWIDTH 666 0
DWIDTH 8 0
BBX 6 7 1 0
BITMAP
78
8C
84
84
84
84
84
ENDCHAR
STARTCHAR 222A
ENCODING 8746
SWIDTH 666 0
DWIDTH 8 0
BBX 6 7 1 1
BITMAP
84
84
84
84
84
CC
78
ENDCHAR
STARTCHAR 222B
ENCODING 8747
SWIDTH 583 0
DWIDTH 7 0
BBX 7 11 0 -2
BITMAP
0E
10
10
10
10
10
10
10
20
A0
E0
ENDCHAR
STARTCHAR 222C
ENCODING 8748
SWIDTH 916 0
DWIDTH 11 0
BBX 10 11 0 -2
BITMAP
0EC0
1100
1100
1100
1100
1100
1100
1200
2200
AA00
EE00
ENDCHAR
STARTCHAR 222E
ENCODING 8750
SWIDTH 583 0
DWIDTH 7 0
BBX 7 11 0 -2
BITMAP
0E
10
10
10
38
38
38
10
20
A0
E0
ENDCHAR
STARTCHAR 2234
ENCODING 8756
SWIDTH 666 0
DWIDTH 8 0
BBX 7 6 1 1
BITMAP
30
30
00
00
C6
C6
ENDCHAR
STARTCHAR 2235
ENCODING 8757
SWIDTH 666 0
DWIDTH 8 0
BBX 7 6 1 1
BITMAP
C6
C6
00
00
30
30
ENDCHAR
STARTCHAR 223C
ENCODING 8764
SWIDTH 500 0
DWIDTH 6 0
BBX 3 1 2 7
BITMAP
E0
ENDCHAR
STARTCHAR 223D
ENCODING 8765
SWIDTH 666 0
DWIDTH 8 0
BBX 7 4 1 2
BITMAP
CC
92
A2
6C
ENDCHAR
STARTCHAR 2243
ENCODING 8771
SWIDTH 666 0
DWIDTH 8 0
BBX 6 4 1 2
BITMAP
E0
1C
00
FC
ENDCHAR
STARTCHAR 2245
ENCODING 8773
SWIDTH 666 0
DWIDTH 8 0
BBX 6 5 1 2
BITMAP
FC
00
FC
00
FC
ENDCHAR
STARTCHAR 2248
ENCODING 8776
SWIDTH 666 0
DWIDTH 8 0
BBX 6 3 1 2
BITMAP
FC
00
FC
ENDCHAR
STARTCHAR 2252
ENCODING 8786
SWIDTH 666 0
DWIDTH 8 0
BBX 6 8 1 0
BITMAP
C0
C0
00
FC
00
FC
0C
0C
ENDCHAR
STARTCHAR 2260
ENCODING 8800
SWIDTH 666 0
DWIDTH 8 0
BBX 6 6 1 1
BITMAP
10
10
FC
20
FC
20
ENDCHAR
STARTCHAR 2261
ENCODING 8801
SWIDTH 666 0
DWIDTH 8 0
BBX 6 4 1 2
BITMAP
FC
00
FC
FC
ENDCHAR
STARTCHAR 2262
ENCODING 8802
SWIDTH 666 0
DWIDTH 8 0
BBX 6 6 1 1
BITMAP
10
FC
10
FC
FC
40
ENDCHAR
STARTCHAR 2266
ENCODING 8806
SWIDTH 666 0
DWIDTH 8 0
BBX 6 8 1 1
BITMAP
0C
70
C0
38
04
FC
00
FC
ENDCHAR
STARTCHAR 2267
ENCODING 8807
SWIDTH 666 0
DWIDTH 8 0
BBX 6 8 1 1
BITMAP
C0
38
0C
70
80
FC
00
FC
ENDCHAR
STARTCHAR 226A
ENCODING 8810
SWIDTH 666 0
DWIDTH 8 0
BBX 6 7 1 1
BITMAP
14
28
D0
A0
50
2C
10
ENDCHAR
STARTCHAR 226B
ENCODING 8811
SWIDTH 666 0
DWIDTH 8 0
BBX 6 6 1 1
BITMAP
A0
58
24
14
28
D0
ENDCHAR
STARTCHAR 2276
ENCODING 8822
SWIDTH 666 0
DWIDTH 8 0
BBX 6 8 1 1
BITMAP
04
78
C0
38
E4
1C
18
E0
ENDCHAR
STARTCHAR 2277
ENCODING 8823
SWIDTH 666 0
DWIDTH 8 0
BBX 6 8 1 1
BITMAP
C0
38
0C
70
9C
E0
60
1C
ENDCHAR
STARTCHAR 2282
ENCODING 8834
SWIDTH 666 0
DWIDTH 8 0
BBX 6 6 1 1
BITMAP
7C
C0
80
80
C0
7C
ENDCHAR
STARTCHAR 2283
ENCODING 8835
SWIDTH 666 0
DWIDTH 8 0
BBX 6 6 1 1
BITMAP
F8
0C
04
04
0C
F8
ENDCHAR
STARTCHAR 2284
ENCODING 8836
SWIDTH 666 0
DWIDTH 8 0
BBX 6 8 1 -1
BITMAP
08
7C
C8
90
90
E0
7C
20
ENDCHAR
STARTCHAR 2285
ENCODING 8837
SWIDTH 666 0
DWIDTH 8 0
BBX 6 7 1 0
BITMAP
F8
14
24
24
4C
F8
80
ENDCHAR
STARTCHAR 2286
ENCODING 8838
SWIDTH 666 0
DWIDTH 8 0
BBX 6 7 1 1
BITMAP
7C
80
80
80
7C
00
FC
ENDCHAR
STARTCHAR 2287
ENCODING 8839
SWIDTH 666 0
DWIDTH 8 0
BBX 6 7 1 1
BITMAP
F8
04
04
04
F8
00
FC
ENDCHAR
STARTCHAR 228A
ENCODING 8842
SWIDTH 666 0
DWIDTH 8 0
BBX 6 8 1 -1
BITMAP
7C
80
80
80
80
7C
FC
20
ENDCHAR
STARTCHAR 228B
ENCODING 8843
SWIDTH 666 0
DWIDTH 8 0
BBX 6 8 1 -1
BITMAP
F8
04
04
04
04
F8
FC
20
ENDCHAR
STARTCHAR 2295
ENCODING 8853
SWIDTH 833 0
DWIDTH 10 0
BBX 9 9 1 0
BITMAP
3C00
6B00
C900
8880
FF80
8880
C880
6900
3E00
ENDCHAR
STARTCHAR 2296
ENCODING 8854
SWIDTH 833 0
DWIDTH 10 0
BBX 9 9 1 0
BITMAP
3C00
6300
C100
8080
FE80
8080
C100
6100
3E00
ENDCHAR
STARTCHAR 2297
ENCODING 8855
SWIDTH 833 0
DWIDTH 10 0
BBX 9 9 1 0
BITMAP
3E00
6100
E500
9880
8880
9480
E300
6300
3C00
ENDCHAR
STARTCHAR 22A5
ENCODING 8869
SWIDTH 666 0
DWIDTH 8 0
BBX 7 8 1 1
BITMAP
10
10
10
10
10
10
10
FE
ENDCHAR
STARTCHAR 22BF
ENCODING 8895
SWIDTH 666 0
DWIDTH 8 0
BBX 7 7 1 2
BITMAP
02
0E
12
22
42
82
FE
ENDCHAR
STARTCHAR 22DA
ENCODING 8922
SWIDTH 666 0
DWIDTH 8 0
BBX 6 9 1 0
BITMAP
0C
F0
30
0C
FC
00
F0
0C
F0
ENDCHAR
STARTCHAR 22DB
ENCODING 8923
SWIDTH 666 0
DWIDTH 8 0
BBX 6 9 1 0
BITMAP
C0
3C
38
C0
FC
00
3C
C0
3C
ENDCHAR
STARTCHAR 2305
ENCODING 8965
SWIDTH 666 0
DWIDTH 8 0
BBX 6 5 1 0
BITMAP
FC
30
30
48
48
ENDCHAR
STARTCHAR 2306
ENCODING 8966
SWIDTH 666 0
DWIDTH 8 0
BBX 6 6 1 0
BITMAP
FC
00
FC
30
30
48
ENDCHAR
STARTCHAR 2312
ENCODING 8978
SWIDTH 1000 0
DWIDTH 12 0
BBX 12 3 0 6
BITMAP
1F80
6060
8010
ENDCHAR
STARTCHAR 2318
ENCODING 8984
SWIDTH 1000 0
DWIDTH 12 0
BBX 12 11 0 -1
BITMAP
6060
9090
9090
7FE0
1080
1080
1080
7FE0
9090
9090
6060
ENDCHAR
STARTCHAR 23BE
ENCODING 9150
SWIDTH 1000 0
DWIDTH 12 0
BBX 7 13 6 -2
BITMAP
FE
80
80
80
80
80
80
80
80
80
80
80
80
ENDCHAR
STARTCHAR 23BF
ENCODING 9151
SWIDTH 1000 0
DWIDTH 12 0
BBX 7 13 6 -1
BITMAP
80
80
80
80
80
80
80
80
80
80
80
80
FE
ENDCHAR
STARTCHAR 23C0
ENCODING 9152
SWIDTH 1000 0
DWIDTH 12 0
BBX 9 12 2 -2
BITMAP
0800
0800
3E00
4900
8880
8880
8880
8880
8880
4900
3E00
0800
ENDCHAR
STARTCHAR 23C1
ENCODING 9153
SWIDTH 1000 0
DWIDTH 12 0
BBX 13 13 0 -2
BITMAP
FFF8
0200
0F80
1240
2220
2220
2220
2220
2220
2240
1A80
0700
0200
ENDCHAR
STARTCHAR 23C2
ENCODING 9154
SWIDTH 1000 0
DWIDTH 12 0
BBX 13 13 0 -1
BITMAP
0200
0200
0F80
1240
2220
2220
2220
2220
2220
1240
0F80
0200
FFF8
ENDCHAR
STARTCHAR 23C3
ENCODING 9155
SWIDTH 1000 0
DWIDTH 12 0
BBX 11 13 1 -2
BITMAP
0400
0400
0400
0E00
1600
1500
2500
4480
4440
8440
FFE0
0400
0400
ENDCHAR
STARTCHAR 23C4
ENCODING 9156
SWIDTH 1000 0
DWIDTH 12 0
BBX 13 13 0 -2
BITMAP
FFF8
0200
0200
0700
0B00
0A80
1280
2240
2220
4220
7FF0
0200
0200
ENDCHAR
STARTCHAR 23C5
ENCODING 9157
SWIDTH 1000 0
DWIDTH 12 0
BBX 13 12 0 -1
BITMAP
0200
0200
0200
0700
0B00
0A80
1280
2240
2220
4220
7FF0
FFF8
ENDCHAR
STARTCHAR 23C6
ENCODING 9158
SWIDTH 1000 0
DWIDTH 12 0
BBX 11 12 1 -2
BITMAP
0400
0400
0400
0400
0400
7400
8C00
07E0
0400
0400
0400
0400
ENDCHAR
STARTCHAR 23C7
ENCODING 9159
SWIDTH 1000 0
DWIDTH 12 0
BBX 13 13 0 -2
BITMAP
FFF8
0200
0200
0200
0200
3A00
4600
03F0
0200
0200
0200
0200
0200
ENDCHAR
STARTCHAR 23C8
ENCODING 9160
SWIDTH 1000 0
DWIDTH 12 0
BBX 13 13 0 -1
BITMAP
0200
0200
0200
0200
0200
3A00
4600
03F0
0200
0200
0200
0200
FFF8
ENDCHAR
STARTCHAR 23C9
ENCODING 9161
SWIDTH 1000 0
DWIDTH 12 0
BBX 13 13 0 -2
BITMAP
FFF8
0200
0200
0200
0200
0200
0200
0200
0200
0200
0200
0200
0200
ENDCHAR
STARTCHAR 23CA
ENCODING 9162
SWIDTH 1000 0
DWIDTH 12 0
BBX 13 13 0 -1
BITMAP
0200
0200
0200
0200
0200
0200
0200
0200
0200
0200
0200
0200
FFF8
ENDCHAR
STARTCHAR 23CB
ENCODING 9163
SWIDTH 1000 0
DWIDTH 12 0
BBX 7 13 -1 -2
BITMAP
FE
02
02
02
02
02
02
02
02
02
02
02
02
ENDCHAR
STARTCHAR 23CC
ENCODING 9164
SWIDTH 1000 0
DWIDTH 12 0
BBX 7 13 -1 -1
BITMAP
02
02
02
02
02
02
02
02
02
02
02
02
FE
ENDCHAR
STARTCHAR 23CE
ENCODING 9166
SWIDTH 1000 0
DWIDTH 12 0
BBX 11 10 0 -1
BITMAP
01E0
0120
0120
0120
1920
6F20
8020
4FC0
3800
0800
ENDCHAR
STARTCHAR 2423
ENCODING 9251
SWIDTH 1000 0
DWIDTH 12 0
BBX 10 3 1 1
BITMAP
8040
8040
FFC0
ENDCHAR
STARTCHAR 2460
ENCODING 9312
SWIDTH 1000 0
DWIDTH 12 0
BBX 11 11 1 -1
BITMAP
1F00
6180
4440
8460
8420
8420
8420
8420
8440
6080
1F00
ENDCHAR
STARTCHAR 2461
ENCODING 9313
SWIDTH 1000 0
DWIDTH 12 0
BBX 11 11 0 -1
BITMAP
1F00
6FC0
5140
9160
8220
8420
8820
9120
5F40
2080
1F00
ENDCHAR
STARTCHAR 2462
ENCODING 9314
SWIDTH 1000 0
DWIDTH 12 0
BBX 10 11 1 -1
BITMAP
1E00
6180
5C80
92C0
8240
8E40
8140
9140
8E80
6100
1E00
ENDCHAR
STARTCHAR 2463
ENCODING 9315
SWIDTH 1000 0
DWIDTH 12 0
BBX 11 11 0 -1
BITMAP
1F80
63C0
4640
8A60
9220
A220
BFA0
8220
4240
2080
1F00
ENDCHAR
STARTCHAR 2464
ENCODING 9316
SWIDTH 1000 0
DWIDTH 12 0
BBX 10 11 1 -1
BITMAP
1E00
6100
5E80
90C0
9040
AE40
9140
9140
A380
5F00
3E00
ENDCHAR
STARTCHAR 2465
ENCODING 9317
SWIDTH 1000 0
DWIDTH 12 0
BBX 10 11 1 -1
BITMAP
1E00
6180
4E80
92C0
9040
9C40
9240
9240
8C80
6100
1E00
ENDCHAR
STARTCHAR 2466
ENCODING 9318
SWIDTH 1000 0
DWIDTH 12 0
BBX 11 11 1 -1
BITMAP
1E00
6180
5F40
9260
8220
8420
8420
8420
8440
4480
3F00
ENDCHAR
STARTCHAR 2467
ENCODING 9319
SWIDTH 1000 0
DWIDTH 12 0
BBX 10 11 1 -1
BITMAP
1E00
6180
4E80
92C0
9240
8C40
B340
A140
9E80
6100
1E00
ENDCHAR
STARTCHAR 2468
ENCODING 9320
SWIDTH 1000 0
DWIDTH 12 0
BBX 10 11 1 -1
BITMAP
1E00
6180
5C80
92C0
9240
8E40
8240
9240
9C80
6100
1E00
ENDCHAR
STARTCHAR 2469
ENCODING 9321
SWIDTH 1000 0
DWIDTH 12 0
BBX 11 11 1 -1
BITMAP
1F00
6180
7340
94E0
94A0
94A0
94A0
94A0
9340
6080
1F00
ENDCHAR
STARTCHAR 246A
ENCODING 9322
SWIDTH 1000 0
DWIDTH 12 0
BBX 10 11 1 -1
BITMAP
1E00
6100
7680
9240
9240
9240
9240
9240
9280
6100
1E00
ENDCHAR
STARTCHAR 246B
ENCODING 9323
SWIDTH 1000 0
DWIDTH 12 0
BBX 10 11 1 -1
BITMAP
1F00
6180
5780
9540
9140
9240
9240
9440
7780
2100
1E00
ENDCHAR
STARTCHAR 246C
ENCODING 9324
SWIDTH 1000 0
DWIDTH 12 0
BBX 11 11 1 -1
BITMAP
1F00
6180
7740
94E0
90A0
9320
90A0
94A0
9740
6080
1F00
ENDCHAR
STARTCHAR 246D
ENCODING 9325
SWIDTH 1000 0
DWIDTH 12 0
BBX 10 11 1 -1
BITMAP
3F00
4380
5280
9640
9A40
9A40
9740
9240
9280
6100
1E00
ENDCHAR
STARTCHAR 246E
ENCODING 9326
SWIDTH 1000 0
DWIDTH 12 0
BBX 11 11 1 -1
BITMAP
1F00
6180
73C0
9460
9420
9320
90A0
94A0
9740
6080
1F00
ENDCHAR
STARTCHAR 246F
ENCODING 9327
SWIDTH 1000 0
DWIDTH 12 0
BBX 11 11 1 -1
BITMAP
1F00
2180
73C0
96E0
9420
97A0
94A0
94A0
5340
2080
1F00
ENDCHAR
STARTCHAR 2470
ENCODING 9328
SWIDTH 1000 0
DWIDTH 12 0
BBX 11 11 1 -1
BITMAP
1E00
6180
77C0
9160
9120
9220
9220
9220
9240
6080
1F00
ENDCHAR
STARTCHAR 2471
ENCODING 9329
SWIDTH 1000 0
DWIDTH 12 0
BBX 11 11 1 -1
BITMAP
1F00
6180
73C0
92E0
92A0
9320
94A0
94A0
9340
6080
1F00
ENDCHAR
STARTCHAR 2472
ENCODING 9330
SWIDTH 1000 0
DWIDTH 12 0
BBX 11 11 1 -1
BITMAP
1F00
6180
7340
94E0
94A0
93A0
90A0
96A0
9740
6080
1F00
ENDCHAR
STARTCHAR 2473
ENCODING 9331
SWIDTH 1000 0
DWIDTH 12 0
BBX 11 11 1 -1
BITMAP
1F00
6180
7940
AAE0
8AA0
92A0
A2A0
A2A0
7940
2080
1F00
ENDCHAR
STARTCHAR 24D0
ENCODING 9424
SWIDTH 1000 0
DWIDTH 12 0
BBX 11 11 1 -1
BITMAP
1F00
6180
4040
9E60
9220
8E20
9220
9F20
8040
6080
1F00
ENDCHAR
STARTCHAR 24D1
ENCODING 9425
SWIDTH 1000 0
DWIDTH 12 0
BBX 11 11 0 -1
BITMAP
1F00
21C0
4840
8860
8F20
88A0
88A0
88A0
4F40
2080
1F00
ENDCHAR
STARTCHAR 24D2
ENCODING 9426
SWIDTH 1000 0
DWIDTH 12 0
BBX 10 11 1 -1
BITMAP
1E00
6180
4080
8EC0
9240
9040
9240
8C40
8080
6100
1E00
ENDCHAR
STARTCHAR 24D3
ENCODING 9427
SWIDTH 1000 0
DWIDTH 12 0
BBX 11 11 1 -1
BITMAP
1F00
6180
4240
8260
9E20
A220
A220
A220
9F40
6080
1F00
ENDCHAR
STARTCHAR 24D4
ENCODING 9428
SWIDTH 1000 0
DWIDTH 12 0
BBX 10 11 1 -1
BITMAP
1E00
6180
4080
9E40
9240
AC40
9240
8C40
8080
6100
1E00
ENDCHAR
STARTCHAR 24D5
ENCODING 9429
SWIDTH 1000 0
DWIDTH 12 0
BBX 11 11 0 -1
BITMAP
1F00
61C0
4740
8460
8420
8420
8420
8420
4440
2080
1F00
ENDCHAR
STARTCHAR 24D6
ENCODING 9430
SWIDTH 1000 0
DWIDTH 12 0
BBX 10 11 1 -1
BITMAP
1E00
6180
4F80
92C0
9240
9C40
9E40
9240
9E80
6100
1E00
ENDCHAR
STARTCHAR 24D7
ENCODING 9431
SWIDTH 1000 0
DWIDTH 12 0
BBX 11 11 0 -1
BITMAP
0F00
3180
5840
8860
8F20
8920
8920
8920
4940
2080
1F00
ENDCHAR
STARTCHAR 24D8
ENCODING 9432
SWIDTH 1000 0
DWIDTH 12 0
BBX 11 11 1 -1
BITMAP
1F00
2180
4440
8060
8C20
8420
8420
8420
8440
6080
1F00
ENDCHAR
STARTCHAR 24D9
ENCODING 9433
SWIDTH 1000 0
DWIDTH 12 0
BBX 12 11 0 -1
BITMAP
0F00
32C0
4020
8230
8210
8210
8210
8210
4A20
3C40
0F80
ENDCHAR
STARTCHAR 24DA
ENCODING 9434
SWIDTH 1000 0
DWIDTH 12 0
BBX 11 11 0 -1
BITMAP
1F00
2180
4840
8860
8920
8A20
8E20
8A20
8940
6080
1F00
ENDCHAR
STARTCHAR 24DB
ENCODING 9435
SWIDTH 1000 0
DWIDTH 12 0
BBX 11 11 1 -1
BITMAP
1F00
2180
4C40
8460
8420
8420
8420
8420
8440
6080
1F00
ENDCHAR
STARTCHAR 24DC
ENCODING 9436
SWIDTH 1000 0
DWIDTH 12 0
BBX 11 11 0 -1
BITMAP
0F00
3080
4040
7DE0
92A0
92A0
92A0
92A0
4040
2080
1F00
ENDCHAR
STARTCHAR 24DD
ENCODING 9437
SWIDTH 1000 0
DWIDTH 12 0
BBX 11 11 0 -1
BITMAP
0F00
3180
4040
9F60
8920
8920
8920
8920
4040
2080
1F00
ENDCHAR
STARTCHAR 24DE
ENCODING 9438
SWIDTH 1000 0
DWIDTH 12 0
BBX 10 11 1 -1
BITMAP
1E00
6180
4080
9CC0
9240
9240
9240
8C40
8080
6100
1E00
ENDCHAR
STARTCHAR 24DF
ENCODING 9439
SWIDTH 1000 0
DWIDTH 12 0
BBX 11 11 0 -1
BITMAP
0F00
3180
4040
8F60
88A0
88A0
8F20
8820
4840
2080
1F00
ENDCHAR
STARTCHAR 24E0
ENCODING 9440
SWIDTH 1000 0
DWIDTH 12 0
BBX 11 11 1 -1
BITMAP
1E00
6180
4040
9E60
A220
A220
9E20
8220
8240
6080
1F00
ENDCHAR
STARTCHAR 24E1
ENCODING 9441
SWIDTH 1000 0
DWIDTH 12 0
BBX 12 11 0 -1
BITMAP
0F00
30C0
4020
8DA0
8610
8410
8410
8410
4020
2040
1F80
ENDCHAR
STARTCHAR 24E2
ENCODING 9442
SWIDTH 1000 0
DWIDTH 12 0
BBX 12 11 0 -1
BITMAP
0F00
30C0
4020
8F30
8810
8610
8110
8910
4620
3040
0F80
ENDCHAR
STARTCHAR 24E3
ENCODING 9443
SWIDTH 1000 0
DWIDTH 12 0
BBX 12 11 0 -1
BITMAP
0F00
30C0
4020
8420
8610
8410
8410
8710
4020
3040
1F80
ENDCHAR
STARTCHAR 24E4
ENCODING 9444
SWIDTH 1000 0
DWIDTH 12 0
BBX 12 11 0 -1
BITMAP
0F00
30C0
4020
8930
8910
8910
8910
8F90
4020
3040
0F80
ENDCHAR
STARTCHAR 24E5
ENCODING 9445
SWIDTH 1000 0
DWIDTH 12 0
BBX 10 10 1 0
BITMAP
3F00
4180
8080
9040
9240
8C40
8C40
8080
4100
3E00
ENDCHAR
STARTCHAR 24E6
ENCODING 9446
SWIDTH 1000 0
DWIDTH 12 0
BBX 10 10 1 0
BITMAP
3F00
4180
8080
A440
A540
9E40
9240
8280
4100
3E00
ENDCHAR
STARTCHAR 24E7
ENCODING 9447
SWIDTH 1000 0
DWIDTH 12 0
BBX 10 11 1 -1
BITMAP
1E00
6180
4080
92C0
8C40
8440
9C40
9240
8080
4100
3E00
ENDCHAR
STARTCHAR 24E8
ENCODING 9448
SWIDTH 1000 0
DWIDTH 12 0
BBX 10 11 1 -1
BITMAP
1E00
6100
4080
92C0
9240
8C40
8440
8840
9880
4100
3E00
ENDCHAR
STARTCHAR 24E9
ENCODING 9449
SWIDTH 1000 0
DWIDTH 12 0
BBX 11 11 0 -1
BITMAP
0F00
31C0
4040
8E60
8220
8420
8920
8F20
4040
2080
1F00
ENDCHAR
STARTCHAR 24EB
ENCODING 9451
SWIDTH 1000 0
DWIDTH 12 0
BBX 11 11 1 -1
BITMAP
1F00
3F80
5CC0
FEE0
FEE0
FEE0
FEE0
FEE0
7EC0
3F80
1F00
ENDCHAR
STARTCHAR 24EC
ENCODING 9452
SWIDTH 1000 0
DWIDTH 12 0
BBX 11 11 0 -1
BITMAP
1F00
3FC0
6F40
ED60
EF60
EEE0
EFE0
EFE0
6440
3F80
1F00
ENDCHAR
STARTCHAR 24ED
ENCODING 9453
SWIDTH 1000 0
DWIDTH 12 0
BBX 11 11 0 -1
BITMAP
1F00
3F80
4F40
ED60
EF60
EEE0
EFE0
EDE0
6FC0
3F80
1F00
ENDCHAR
STARTCHAR 24EE
ENCODING 9454
SWIDTH 1000 0
DWIDTH 12 0
BBX 12 11 0 -1
BITMAP
1FC0
7F60
6F60
EF70
ED70
EF70
E830
EF60
6F60
3FC0
0F00
ENDCHAR
STARTCHAR 24EF
ENCODING 9455
SWIDTH 1000 0
DWIDTH 12 0
BBX 11 11 0 -1
BITMAP
1F00
3F80
4C40
EFE0
EFE0
EDE0
EFE0
EDE0
6FC0
3F80
1F00
ENDCHAR
STARTCHAR 24F0
ENCODING 9456
SWIDTH 1000 0
DWIDTH 12 0
BBX 11 11 0 -1
BITMAP
1F00
3F80
4F40
ED60
EFE0
EDE0
EFE0
EDE0
6FC0
3F80
1F00
ENDCHAR
STARTCHAR 24F1
ENCODING 9457
SWIDTH 1000 0
DWIDTH 12 0
BBX 12 11 0 -1
BITMAP
1F00
3FC0
4C20
EFF0
EF70
EFF0
EEF0
EEF0
6EE0
3FC0
0F00
ENDCHAR
STARTCHAR 24F2
ENCODING 9458
SWIDTH 1000 0
DWIDTH 12 0
BBX 11 11 0 -1
BITMAP
1F00
3F80
4F40
EFE0
ED60
EEE0
EBE0
EBE0
6FC0
3F80
1F00
ENDCHAR
STARTCHAR 24F3
ENCODING 9459
SWIDTH 1000 0
DWIDTH 12 0
BBX 11 11 0 -1
BITMAP
1F00
3F80
4FC0
EF60
EF60
EF60
EFE0
ED60
6FC0
3F80
1F00
ENDCHAR
STARTCHAR 24F4
ENCODING 9460
SWIDTH 1000 0
DWIDTH 12 0
BBX 11 11 1 -1
BITMAP
1F00
7F80
77C0
D560
F560
ED60
FD60
DD60
47C0
3F80
1F00
ENDCHAR
STARTCHAR 24F5
ENCODING 9461
SWIDTH 1000 0
DWIDTH 12 0
BBX 11 11 1 -1
BITMAP
3F00
7F80
4CC0
8460
8460
8460
8460
8460
44C0
6180
3F00
ENDCHAR
STARTCHAR 24F6
ENCODING 9462
SWIDTH 1000 0
DWIDTH 12 0
BBX 11 11 0 -1
BITMAP
3F00
3080
CEC0
9960
8160
8260
8460
5860
DFC0
7180
2F00
ENDCHAR
STARTCHAR 24F7
ENCODING 9463
SWIDTH 1000 0
DWIDTH 12 0
BBX 12 11 0 -1
BITMAP
1F00
3FC0
4EA0
C950
8130
8610
8110
C960
4E20
31C0
1F80
ENDCHAR
STARTCHAR 24F8
ENCODING 9464
SWIDTH 1000 0
DWIDTH 12 0
BBX 12 12 0 -1
BITMAP
0F00
31C0
4260
C660
8A30
9230
A230
BF30
C260
C260
71C0
3F80
ENDCHAR
STARTCHAR 24F9
ENCODING 9465
SWIDTH 1000 0
DWIDTH 12 0
BBX 12 11 0 -1
BITMAP
1F00
3FC0
4FA0
C850
8830
8E10
8110
C960
4E20
31C0
1F80
ENDCHAR
STARTCHAR 24FA
ENCODING 9466
SWIDTH 1000 0
DWIDTH 12 0
BBX 12 11 0 -1
BITMAP
1F00
3FC0
47A0
C950
8830
8E10
8910
C960
4620
31C0
1F80
ENDCHAR
STARTCHAR 24FB
ENCODING 9467
SWIDTH 1000 0
DWIDTH 12 0
BBX 12 11 0 -1
BITMAP
1F00
3FC0
4FA0
C950
8130
8210
8210
C260
4220
31C0
1F80
ENDCHAR
STARTCHAR 24FC
ENCODING 9468
SWIDTH 1000 0
DWIDTH 12 0
BBX 12 11 0 -1
BITMAP
1F00
3FC0
47A0
C950
8930
8610
8910
C960
4620
31C0
1F80
ENDCHAR
STARTCHAR 24FD
ENCODING 9469
SWIDTH 1000 0
DWIDTH 12 0
BBX 12 11 0 -1
BITMAP
1F00
3FC0
4EA0
C950
8930
8710
8110
C960
4E20
31C0
1F80
ENDCHAR
STARTCHAR 24FE
ENCODING 9470
SWIDTH 1000 0
DWIDTH 12 0
BBX 11 11 1 -1
BITMAP
3F00
7F80
53C0
94E0
94E0
94E0
94E0
94E0
53C0
6180
3F00
ENDCHAR
STARTCHAR 2500
ENCODING 9472
SWIDTH 1000 0
DWIDTH 12 0
BBX 12 1 0 4
BITMAP
FFF0
ENDCHAR
STARTCHAR 2501
ENCODING 9473
SWIDTH 1000 0
DWIDTH 12 0
BBX 12 1 0 4
BITMAP
FFF0
ENDCHAR
STARTCHAR 2502
ENCODING 9474
SWIDTH 1000 0
DWIDTH 12 0
BBX 1 12 6 -2
BITMAP
80
80
80
80
80
80
80
80
80
80
80
80
ENDCHAR
STARTCHAR 2503
ENCODING 9475
SWIDTH 1000 0
DWIDTH 12 0
BBX 1 12 5 -1
BITMAP
80
80
80
80
80
80
80
80
80
80
80
80
ENDCHAR
STARTCHAR 250C
ENCODING 9484
SWIDTH 1000 0
DWIDTH 12 0
BBX 7 7 6 -2
BITMAP
FE
80
80
80
80
80
80
ENDCHAR
STARTCHAR 250F
ENCODING 9487
SWIDTH 1000 0
DWIDTH 12 0
BBX 7 6 5 -1
BITMAP
FE
80
80
80
80
80
ENDCHAR
STARTCHAR 2510
ENCODING 9488
SWIDTH 1000 0
DWIDTH 12 0
BBX 7 7 -1 -2
BITMAP
FE
02
02
02
02
02
02
ENDCHAR
STARTCHAR 2513
ENCODING 9491
SWIDTH 1000 0
DWIDTH 12 0
BBX 7 6 0 -1
BITMAP
FE
02
02
02
02
02
ENDCHAR
STARTCHAR 2514
ENCODING 9492
SWIDTH 1000 0
DWIDTH 12 0
BBX 7 7 6 4
BITMAP
80
80
80
80
80
80
FE
ENDCHAR
STARTCHAR 2517
ENCODING 9495
SWIDTH 1000 0
DWIDTH 12 0
BBX 7 7 5 4
BITMAP
80
80
80
80
80
80
FE
ENDCHAR
STARTCHAR 2518
ENCODING 9496
SWIDTH 1000 0
DWIDTH 12 0
BBX 7 7 -1 4
BITMAP
02
02
02
02
02
02
FE
ENDCHAR
STARTCHAR 251B
ENCODING 9499
SWIDTH 1000 0
DWIDTH 12 0
BBX 7 7 0 4
BITMAP
02
02
02
02
02
02
FE
ENDCHAR
STARTCHAR 251C
ENCODING 9500
SWIDTH 1000 0
DWIDTH 12 0
BBX 7 13 6 -2
BITMAP
80
80
80
80
80
80
FE
80
80
80
80
80
80
ENDCHAR
STARTCHAR 251D
ENCODING 9501
SWIDTH 1000 0
DWIDTH 12 0
BBX 6 11 6 -1
BITMAP
80
80
80
80
80
FC
80
80
80
80
80
ENDCHAR
STARTCHAR 2520
ENCODING 9504
SWIDTH 1000 0
DWIDTH 12 0
BBX 6 12 5 -1
BITMAP
80
80
80
80
80
80
FC
80
80
80
80
80
ENDCHAR
STARTCHAR 2523
ENCODING 9507
SWIDTH 1000 0
DWIDTH 12 0
BBX 7 12 5 -1
BITMAP
80
80
80
80
80
80
FE
80
80
80
80
80
ENDCHAR
STARTCHAR 2524
ENCODING 9508
SWIDTH 1000 0
DWIDTH 12 0
BBX 7 13 -1 -2
BITMAP
02
02
02
02
02
02
FE
02
02
02
02
02
02
ENDCHAR
STARTCHAR 2525
ENCODING 9509
SWIDTH 1000 0
DWIDTH 12 0
BBX 6 11 0 -1
BITMAP
04
04
04
04
04
FC
04
04
04
04
04
ENDCHAR
STARTCHAR 2528
ENCODING 9512
SWIDTH 1000 0
DWIDTH 12 0
BBX 6 12 1 -1
BITMAP
04
04
04
04
04
04
FC
04
04
04
04
04
ENDCHAR
STARTCHAR 252B
ENCODING 9515
SWIDTH 1000 0
DWIDTH 12 0
BBX 7 12 0 -1
BITMAP
02
02
02
02
02
02
FE
02
02
02
02
02
ENDCHAR
STARTCHAR 252C
ENCODING 9516
SWIDTH 1000 0
DWIDTH 12 0
BBX 13 7 0 -2
BITMAP
FFF8
0200
0200
0200
0200
0200
0200
ENDCHAR
STARTCHAR 252F
ENCODING 9519
SWIDTH 1000 0
DWIDTH 12 0
BBX 12 6 0 -2
BITMAP
FFF0
0200
0200
0200
0200
0200
ENDCHAR
STARTCHAR 2530
ENCODING 9520
SWIDTH 1000 0
DWIDTH 12 0
BBX 11 6 0 -1
BITMAP
FFE0
0400
0400
0400
0400
0400
ENDCHAR
STARTCHAR 2533
ENCODING 9523
SWIDTH 1000 0
DWIDTH 12 0
BBX 12 6 0 -1
BITMAP
FFF0
0400
0400
0400
0400
0400
ENDCHAR
STARTCHAR 2534
ENCODING 9524
SWIDTH 1000 0
DWIDTH 12 0
BBX 13 7 0 4
BITMAP
0200
0200
0200
0200
0200
0200
FFF8
ENDCHAR
STARTCHAR 2537
ENCODING 9527
SWIDTH 1000 0
DWIDTH 12 0
BBX 12 6 0 5
BITMAP
0200
0200
0200
0200
0200
FFF0
ENDCHAR
STARTCHAR 2538
ENCODING 9528
SWIDTH 1000 0
DWIDTH 12 0
BBX 11 7 0 4
BITMAP
0400
0400
0400
0400
0400
0400
FFE0
ENDCHAR
STARTCHAR 253B
ENCODING 9531
SWIDTH 1000 0
DWIDTH 12 0
BBX 12 7 0 4
BITMAP
0400
0400
0400
0400
0400
0400
FFF0
ENDCHAR
STARTCHAR 253C
ENCODING 9532
SWIDTH 1000 0
DWIDTH 12 0
BBX 13 13 0 -2
BITMAP
0200
0200
0200
0200
0200
0200
FFF8
0200
0200
0200
0200
0200
0200
ENDCHAR
STARTCHAR 253F
ENCODING 9535
SWIDTH 1000 0
DWIDTH 12 0
BBX 12 11 0 -1
BITMAP
0200
0200
0200
0200
0200
FFF0
0200
0200
0200
0200
0200
ENDCHAR
STARTCHAR 2542
ENCODING 9538
SWIDTH 1000 0
DWIDTH 12 0
BBX 11 12 0 -1
BITMAP
0400
0400
0400
0400
0400
0400
FFE0
0400
0400
0400
0400
0400
ENDCHAR
STARTCHAR 254B
ENCODING 9547
SWIDTH 1000 0
DWIDTH 12 0
BBX 12 12 0 -1
BITMAP
0400
0400
0400
0400
0400
0400
FFF0
0400
0400
0400
0400
0400
ENDCHAR
STARTCHAR 25A0
ENCODING 9632
SWIDTH 1000 0
DWIDTH 12 0
BBX 8 9 2 0
BITMAP
FF
FF
FF
FF
FF
FF
FF
FF
FF
ENDCHAR
STARTCHAR 25A1
ENCODING 9633
SWIDTH 1000 0
DWIDTH 12 0
BBX 8 9 2 0
BITMAP
FF
81
81
81
81
81
81
81
FF
ENDCHAR
STARTCHAR 25B1
ENCODING 9649
SWIDTH 1000 0
DWIDTH 12 0
BBX 10 5 1 2
BITMAP
3FC0
4040
8080
8080
FF00
ENDCHAR
STARTCHAR 25B2
ENCODING 9650
SWIDTH 1000 0
DWIDTH 12 0
BBX 10 9 1 1
BITMAP
0800
0C00
0C00
1E00
3F00
3F00
7F80
7F80
FFC0
ENDCHAR
STARTCHAR 25B3
ENCODING 9651
SWIDTH 1000 0
DWIDTH 12 0
BBX 10 9 1 1
BITMAP
0C00
1400
1200
2200
2100
4100
4080
8080
FFC0
ENDCHAR
STARTCHAR 25B6
ENCODING 9654
SWIDTH 1000 0
DWIDTH 12 0
BBX 9 9 1 0
BITMAP
C000
F000
FC00
FF00
FF80
FE00
F800
E000
C000
ENDCHAR
STARTCHAR 25B7
ENCODING 9655
SWIDTH 1000 0
DWIDTH 12 0
BBX 10 9 1 0
BITMAP
C000
B000
8C00
8300
80C0
8180
8600
9800
E000
ENDCHAR
STARTCHAR 25BC
ENCODING 9660
SWIDTH 1000 0
DWIDTH 12 0
BBX 10 9 1 -1
BITMAP
FFC0
7F80
7F80
3F00
3F00
1E00
0C00
0C00
0800
ENDCHAR
STARTCHAR 25BD
ENCODING 9661
SWIDTH 1000 0
DWIDTH 12 0
BBX 10 9 1 -1
BITMAP
FFC0
8080
4080
4100
2100
2200
1200
1400
0C00
ENDCHAR
STARTCHAR 25C0
ENCODING 9664
SWIDTH 1000 0
DWIDTH 12 0
BBX 9 9 2 0
BITMAP
0180
0780
1F80
7F80
FF80
3F80
0F80
0380
0180
ENDCHAR
STARTCHAR 25C1
ENCODING 9665
SWIDTH 1000 0
DWIDTH 12 0
BBX 10 9 1 0
BITMAP
00C0
0340
0C40
3040
C040
6040
1840
0640
01C0
ENDCHAR
STARTCHAR 25C6
ENCODING 9670
SWIDTH 1000 0
DWIDTH 12 0
BBX 10 9 1 0
BITMAP
0C00
1E00
3F00
7F80
FFC0
7F80
3F00
1E00
0C00
ENDCHAR
STARTCHAR 25C7
ENCODING 9671
SWIDTH 1000 0
DWIDTH 12 0
BBX 11 10 0 0
BITMAP
0E00
1100
2080
4040
8020
4040
2080
1100
0A00
0400
ENDCHAR
STARTCHAR 25C9
ENCODING 9673
SWIDTH 1000 0
DWIDTH 12 0
BBX 10 11 1 -1
BITMAP
1E00
2100
5E80
BF40
BF40
BF40
BF40
9E40
4080
2100
1E00
ENDCHAR
STARTCHAR 25CB
ENCODING 9675
SWIDTH 1000 0
DWIDTH 12 0
BBX 10 10 1 0
BITMAP
1E00
6180
4080
8040
8040
8040
8040
8080
4180
3E00
ENDCHAR
STARTCHAR 25CE
ENCODING 9678
SWIDTH 1000 0
DWIDTH 12 0
BBX 10 11 1 -1
BITMAP
1E00
2100
5E80
B140
A140
A140
B340
9E40
4080
2100
1E00
ENDCHAR
STARTCHAR 25CF
ENCODING 9679
SWIDTH 1000 0
DWIDTH 12 0
BBX 10 10 1 0
BITMAP
1E00
7F80
7F80
FFC0
FFC0
FFC0
FFC0
7F80
7F80
1E00
ENDCHAR
STARTCHAR 25D0
ENCODING 9680
SWIDTH 1000 0
DWIDTH 12 0
BBX 10 11 1 -1
BITMAP
1E00
3900
7880
F840
F840
F840
F840
F840
7880
3900
1E00
ENDCHAR
STARTCHAR 25D1
ENCODING 9681
SWIDTH 1000 0
DWIDTH 12 0
BBX 10 11 1 -1
BITMAP
1E00
2700
4780
87C0
87C0
87C0
87C0
87C0
4780
2700
1E00
ENDCHAR
STARTCHAR 25D2
ENCODING 9682
SWIDTH 1000 0
DWIDTH 12 0
BBX 10 10 1 0
BITMAP
1E00
6180
8080
8040
0040
FFC0
FFC0
7F80
7F80
1E00
ENDCHAR
STARTCHAR 25D3
ENCODING 9683
SWIDTH 1000 0
DWIDTH 12 0
BBX 10 10 1 0
BITMAP
1E00
7F80
7F80
FFC0
FFC0
0040
8040
8080
6180
1E00
ENDCHAR
STARTCHAR 25E6
ENCODING 9702
SWIDTH 1000 0
DWIDTH 12 0
BBX 4 4 4 3
BITMAP
60
90
90
60
ENDCHAR
STARTCHAR 25EF
ENCODING 9711
SWIDTH 1000 0
DWIDTH 12 0
BBX 10 11 1 -1
BITMAP
1E00
6180
4080
80C0
8040
8040
8040
8040
8080
6100
1E00
ENDCHAR
STARTCHAR 2600
ENCODING 9728
SWIDTH 1000 0
DWIDTH 12 0
BBX 11 11 1 -1
BITMAP
0400
4440
2080
1E00
3F00
FF60
3F00
3F00
3E80
4440
0400
ENDCHAR
STARTCHAR 2601
ENCODING 9729
SWIDTH 1000 0
DWIDTH 12 0
BBX 10 9 1 -1
BITMAP
1C00
3E00
3EC0
3FC0
FFC0
FFC0
FFC0
77C0
0380
ENDCHAR
STARTCHAR 2602
ENCODING 9730
SWIDTH 1000 0
DWIDTH 12 0
BBX 12 11 0 -1
BITMAP
0200
0F80
3FE0
3FE0
D250
1240
0200
0200
0200
0200
0E00
ENDCHAR
STARTCHAR 2603
ENCODING 9731
SWIDTH 1000 0
DWIDTH 12 0
BBX 12 11 0 0
BITMAP
8500
1280
C440
1BA0
2680
6080
1090
E240
4040
4240
2080
ENDCHAR
STARTCHAR 2605
ENCODING 9733
SWIDTH 1000 0
DWIDTH 12 0
BBX 10 10 1 1
BITMAP
0C00
0C00
0C00
FFC0
7F80
1E00
3F00
3300
2100
4080
ENDCHAR
STARTCHAR 2606
ENCODING 9734
SWIDTH 1000 0
DWIDTH 12 0
BBX 10 10 1 0
BITMAP
0C00
0C00
1400
F3C0
8080
6100
2200
2100
5F00
2100
ENDCHAR
STARTCHAR 260E
ENCODING 9742
SWIDTH 1000 0
DWIDTH 12 0
BBX 10 9 1 0
BITMAP
7F80
D2C0
D2C0
3F00
3300
6180
6180
F3C0
FFC0
ENDCHAR
STARTCHAR 2616
ENCODING 9750
SWIDTH 1000 0
DWIDTH 12 0
BBX 10 10 1 1
BITMAP
0C00
3300
4080
8080
8080
8080
8080
8040
8040
FFC0
ENDCHAR
STARTCHAR 2617
ENCODING 9751
SWIDTH 1000 0
DWIDTH 12 0
BBX 10 9 1 1
BITMAP
1E00
7F80
7F80
7F80
7F80
7F80
FFC0
FFC0
FFC0
ENDCHAR
STARTCHAR 261E
ENCODING 9758
SWIDTH 1000 0
DWIDTH 12 0
BBX 10 5 1 3
BITMAP
FFC0
4F80
7B00
6D00
DE00
ENDCHAR
STARTCHAR 2640
ENCODING 9792
SWIDTH 1000 0
DWIDTH 12 0
BBX 7 11 3 -2
BITMAP
38
4C
44
44
28
10
10
FE
10
10
10
ENDCHAR
STARTCHAR 2642
ENCODING 9794
SWIDTH 1000 0
DWIDTH 12 0
BBX 10 10 1 -1
BITMAP
07C0
00C0
0140
0240
0440
7800
8800
8800
8800
7000
ENDCHAR
STARTCHAR 2660
ENCODING 9824
SWIDTH 1000 0
DWIDTH 12 0
BBX 8 11 2 0
BITMAP
18
18
3C
7E
7F
FF
FF
FF
D6
10
18
ENDCHAR
STARTCHAR 2661
ENCODING 9825
SWIDTH 1000 0
DWIDTH 12 0
BBX 10 10 1 -1
BITMAP
7380
CCC0
8840
8040
8040
4080
4100
2100
1200
0C00
ENDCHAR
STARTCHAR 2662
ENCODING 9826
SWIDTH 1000 0
DWIDTH 12 0
BBX 9 11 1 -1
BITMAP
0C00
1400
2200
2100
4080
8080
4080
2100
2200
1400
0C00
ENDCHAR
STARTCHAR 2663
ENCODING 9827
SWIDTH 1000 0
DWIDTH 12 0
BBX 10 11 1 -1
BITMAP
0C00
1E00
1E00
1E00
6D80
FFC0
FFC0
FBC0
6980
0800
0C00
ENDCHAR
STARTCHAR 2664
ENCODING 9828
SWIDTH 1000 0
DWIDTH 12 0
BBX 10 11 1 -1
BITMAP
0C00
1200
2100
4100
4080
8040
8040
8C40
7F80
1400
0C00
ENDCHAR
STARTCHAR 2665
ENCODING 9829
SWIDTH 1000 0
DWIDTH 12 0
BBX 10 9 1 -1
BITMAP
7380
FFC0
FFC0
FFC0
7F80
7F80
3F00
1E00
0C00
ENDCHAR
STARTCHAR 2666
ENCODING 9830
SWIDTH 1000 0
DWIDTH 12 0
BBX 8 11 2 -1
BITMAP
18
18
3C
7E
FF
FF
FF
7E
3C
18
18
ENDCHAR
STARTCHAR 2667
ENCODING 9831
SWIDTH 1000 0
DWIDTH 12 0
BBX 10 11 1 -2
BITMAP
1E00
3300
2100
2100
7380
8040
8040
8C40
7F80
0C00
0C00
ENDCHAR
STARTCHAR 2668
ENCODING 9832
SWIDTH 1000 0
DWIDTH 12 0
BBX 10 9 1 1
BITMAP
2900
2900
2900
2500
2500
A540
8840
C0C0
3F00
ENDCHAR
STARTCHAR 2669
ENCODING 9833
SWIDTH 1000 0
DWIDTH 12 0
BBX 4 10 3 0
BITMAP
10
10
10
10
10
10
10
10
F0
F0
ENDCHAR
STARTCHAR 266A
ENCODING 9834
SWIDTH 1000 0
DWIDTH 12 0
BBX 8 10 2 0
BITMAP
10
18
14
12
11
11
11
12
F0
F0
ENDCHAR
STARTCHAR 266B
ENCODING 9835
SWIDTH 1000 0
DWIDTH 12 0
BBX 9 11 1 0
BITMAP
0180
1F80
1880
1080
1080
1080
1080
1380
1380
F300
E000
ENDCHAR
STARTCHAR 266C
ENCODING 9836
SWIDTH 1000 0
DWIDTH 12 0
BBX 9 11 1 0
BITMAP
0180
1F80
1180
1F80
1880
1080
1080
1380
1380
F300
E000
ENDCHAR
STARTCHAR 266D
ENCODING 9837
SWIDTH 1000 0
DWIDTH 12 0
BBX 5 10 4 -1
BITMAP
80
80
80
80
F0
88
88
90
90
E0
ENDCHAR
STARTCHAR 266E
ENCODING 9838
SWIDTH 1000 0
DWIDTH 12 0
BBX 4 10 4 -1
BITMAP
80
80
80
B0
D0
90
B0
D0
10
10
ENDCHAR
STARTCHAR 266F
ENCODING 9839
SWIDTH 1000 0
DWIDTH 12 0
BBX 8 11 2 -1
BITMAP
04
24
24
3F
E4
24
27
FC
24
24
20
ENDCHAR
STARTCHAR 2713
ENCODING 10003
SWIDTH 1000 0
DWIDTH 12 0
BBX 8 8 3 1
BITMAP
01
02
04
08
08
90
A0
40
ENDCHAR
STARTCHAR 2756
ENCODING 10070
SWIDTH 1000 0
DWIDTH 12 0
BBX 10 9 1 0
BITMAP
0C00
1E00
0C00
6180
F3C0
6180
0C00
1E00
0C00
ENDCHAR
STARTCHAR 2776
ENCODING 10102
SWIDTH 1000 0
DWIDTH 12 0
BBX 11 11 1 -1
BITMAP
1F00
3F80
7BC0
FBE0
FBE0
FBE0
FBE0
FBE0
7BC0
3F80
1F00
ENDCHAR
STARTCHAR 2777
ENCODING 10103
SWIDTH 1000 0
DWIDTH 12 0
BBX 11 11 0 -1
BITMAP
1F00
71C0
6EC0
EEE0
FFE0
FFE0
FFE0
FEE0
60C0
3F80
1F00
ENDCHAR
STARTCHAR 2778
ENCODING 10104
SWIDTH 1000 0
DWIDTH 12 0
BBX 10 11 1 -1
BITMAP
1E00
7F80
6F80
EDC0
FDC0
F3C0
FEC0
EEC0
7D80
3F00
1E00
ENDCHAR
STARTCHAR 2779
ENCODING 10105
SWIDTH 1000 0
DWIDTH 12 0
BBX 11 11 0 -1
BITMAP
1F80
7DC0
79C0
FDE0
FDE0
FDE0
C060
FDE0
7DC0
3F80
1F00
ENDCHAR
STARTCHAR 277A
ENCODING 10106
SWIDTH 1000 0
DWIDTH 12 0
BBX 10 11 1 -1
BITMAP
1E00
3F00
6180
EFC0
EFC0
FDC0
FEC0
EEC0
7C80
3100
1E00
ENDCHAR
STARTCHAR 277B
ENCODING 10107
SWIDTH 1000 0
DWIDTH 12 0
BBX 10 11 1 -1
BITMAP
1E00
7F80
7D80
EDC0
FFC0
EFC0
FFC0
EFC0
7F80
3F00
1E00
ENDCHAR
STARTCHAR 277C
ENCODING 10108
SWIDTH 1000 0
DWIDTH 12 0
BBX 11 11 1 -1
BITMAP
1E00
3F80
60C0
EFE0
FDE0
FFE0
FBE0
FBE0
7BC0
3F80
1F00
ENDCHAR
STARTCHAR 277D
ENCODING 10109
SWIDTH 1000 0
DWIDTH 12 0
BBX 10 11 1 -1
BITMAP
1E00
7F80
7D80
EDC0
E5C0
F3C0
DEC0
DEC0
6D80
3F00
1E00
ENDCHAR
STARTCHAR 277E
ENCODING 10110
SWIDTH 1000 0
DWIDTH 12 0
BBX 10 11 1 -1
BITMAP
1E00
7F80
7F80
FDC0
FDC0
FDC0
FFC0
EDC0
6F80
3F00
1E00
ENDCHAR
STARTCHAR 277F
ENCODING 10111
SWIDTH 1000 0
DWIDTH 12 0
BBX 11 11 0 -1
BITMAP
0F00
3F80
4FC0
EFE0
EFE0
EFE0
EFE0
EFE0
6F40
3F80
1F00
ENDCHAR
STARTCHAR 2934
ENCODING 10548
SWIDTH 1000 0
DWIDTH 12 0
BBX 9 10 1 0
BITMAP
0100
0380
0580
0100
0100
0100
0100
0100
0200
FC00
ENDCHAR
STARTCHAR 2935
ENCODING 10549
SWIDTH 1000 0
DWIDTH 12 0
BBX 10 9 1 -1
BITMAP
FC00
0200
0100
0100
0100
0100
0540
0380
0100
ENDCHAR
STARTCHAR 29BF
ENCODING 10687
SWIDTH 1000 0
DWIDTH 12 0
BBX 10 11 1 -1
BITMAP
1E00
2100
4080
8040
9C40
9C40
9C40
8040
4080
2100
1E00
ENDCHAR
STARTCHAR 29FA
ENCODING 10746
SWIDTH 1000 0
DWIDTH 12 0
BBX 6 7 3 -1
BITMAP
30
30
30
FC
30
30
30
ENDCHAR
STARTCHAR 29FB
ENCODING 10747
SWIDTH 1000 0
DWIDTH 12 0
BBX 6 7 3 -1
BITMAP
58
58
58
FC
58
58
58
ENDCHAR
STARTCHAR 2E83
ENCODING 11907
SWIDTH 1000 0
DWIDTH 12 0
BBX 8 9 3 1
BITMAP
80
80
80
80
80
80
81
81
FF
ENDCHAR
STARTCHAR 2E85
ENCODING 11909
SWIDTH 1000 0
DWIDTH 12 0
BBX 6 10 2 0
BITMAP
0C
08
10
30
50
90
10
10
10
10
ENDCHAR
STARTCHAR 2E87
ENCODING 11911
SWIDTH 1000 0
DWIDTH 12 0
BBX 11 10 0 0
BITMAP
3FC0
2040
2040
2040
2040
2040
2040
4060
4020
8000
ENDCHAR
STARTCHAR 2E89
ENCODING 11913
SWIDTH 1000 0
DWIDTH 12 0
BBX 4 10 4 0
BITMAP
90
90
90
90
90
90
90
10
10
20
ENDCHAR
STARTCHAR 2E8E
ENCODING 11918
SWIDTH 1000 0
DWIDTH 12 0
BBX 11 10 1 -1
BITMAP
0040
7F80
1200
1200
1200
1200
2200
2240
43E0
8000
ENDCHAR
STARTCHAR 2E8F
ENCODING 11919
SWIDTH 1000 0
DWIDTH 12 0
BBX 9 10 1 0
BITMAP
1400
2300
4080
9480
1400
1400
1400
2480
2780
C000
ENDCHAR
STARTCHAR 2E90
ENCODING 11920
SWIDTH 1000 0
DWIDTH 12 0
BBX 9 10 2 -1
BITMAP
1000
1000
1080
FF00
1800
1800
2800
2880
4880
8F80
ENDCHAR
STARTCHAR 2E92
ENCODING 11922
SWIDTH 1000 0
DWIDTH 12 0
BBX 9 10 2 0
BITMAP
0100
FF00
8100
8100
8100
FF00
8000
8000
8080
FF80
ENDCHAR
STARTCHAR 2E93
ENCODING 11923
SWIDTH 1000 0
DWIDTH 12 0
BBX 10 9 1 1
BITMAP
0C00
0800
5100
2200
1400
0800
1180
20C0
FF40
ENDCHAR
STARTCHAR 2E94
ENCODING 11924
SWIDTH 1000 0
DWIDTH 12 0
BBX 8 9 3 1
BITMAP
40
44
BC
84
84
88
F8
08
09
ENDCHAR
STARTCHAR 2E96
ENCODING 11926
SWIDTH 1000 0
DWIDTH 12 0
BBX 5 11 4 -1
BITMAP
20
20
30
A8
A8
A0
20
20
20
20
20
ENDCHAR
STARTCHAR 2E97
ENCODING 11927
SWIDTH 1000 0
DWIDTH 12 0
BBX 11 10 0 0
BITMAP
0800
0800
0800
0A40
4A40
4920
8920
0800
0800
1000
ENDCHAR
STARTCHAR 2E98
ENCODING 11928
SWIDTH 1000 0
DWIDTH 12 0
BBX 7 11 3 -1
BITMAP
18
10
12
7C
10
16
F8
10
10
10
30
ENDCHAR
STARTCHAR 2E99
ENCODING 11929
SWIDTH 1000 0
DWIDTH 12 0
BBX 10 10 1 0
BITMAP
1000
2000
3F80
6200
9200
0C00
0400
0A00
3180
C040
ENDCHAR
STARTCHAR 2E9B
ENCODING 11931
SWIDTH 1000 0
DWIDTH 12 0
BBX 9 11 2 -1
BITMAP
0100
FF00
0800
C800
8800
FF00
1800
1880
2880
4F80
8000
ENDCHAR
STARTCHAR 2E9E
ENCODING 11934
SWIDTH 1000 0
DWIDTH 12 0
BBX 10 11 1 -1
BITMAP
0600
0440
1780
1480
2B80
6100
9A00
0400
0800
3000
4000
ENDCHAR
STARTCHAR 2E9F
ENCODING 11935
SWIDTH 1000 0
DWIDTH 12 0
BBX 10 10 1 0
BITMAP
3F80
4100
4D00
4140
FF80
5900
4140
7FC0
0100
0200
ENDCHAR
STARTCHAR 2EA0
ENCODING 11936
SWIDTH 1000 0
DWIDTH 12 0
BBX 11 11 0 -1
BITMAP
0040
3FC0
2040
3FC0
2240
2220
3FC0
2100
2320
7CA0
8060
ENDCHAR
STARTCHAR 2EA1
ENCODING 11937
SWIDTH 1000 0
DWIDTH 12 0
BBX 5 11 4 -1
BITMAP
40
20
08
90
50
20
20
40
40
40
40
ENDCHAR
STARTCHAR 2EA3
ENCODING 11939
SWIDTH 1000 0
DWIDTH 12 0
BBX 10 3 1 4
BITMAP
5480
5240
9240
ENDCHAR
STARTCHAR 2EA4
ENCODING 11940
SWIDTH 1000 0
DWIDTH 12 0
BBX 9 5 1 3
BITMAP
0380
FC00
0880
4500
2500
ENDCHAR
STARTCHAR 2EA6
ENCODING 11942
SWIDTH 1000 0
DWIDTH 12 0
BBX 6 11 2 -1
BITMAP
0C
08
48
28
28
08
38
C8
88
08
08
ENDCHAR
STARTCHAR 2EA8
ENCODING 11944
SWIDTH 1000 0
DWIDTH 12 0
BBX 5 11 3 -1
BITMAP
40
58
20
50
90
18
28
48
08
08
30
ENDCHAR
STARTCHAR 2EAA
ENCODING 11946
SWIDTH 1000 0
DWIDTH 12 0
BBX 7 10 3 0
BITMAP
7E
08
10
50
54
58
50
50
5C
A0
ENDCHAR
STARTCHAR 2EAB
ENCODING 11947
SWIDTH 1000 0
DWIDTH 12 0
BBX 8 6 2 2
BITMAP
01
FF
A5
A5
A5
DB
ENDCHAR
STARTCHAR 2EAD
ENCODING 11949
SWIDTH 1000 0
DWIDTH 12 0
BBX 8 11 2 -1
BITMAP
10
10
FF
02
04
08
1E
69
88
08
08
ENDCHAR
STARTCHAR 2EB2
ENCODING 11954
SWIDTH 1000 0
DWIDTH 12 0
BBX 8 6 2 2
BITMAP
01
FF
A5
A5
A5
DB
ENDCHAR
STARTCHAR 2EB9
ENCODING 11961
SWIDTH 1000 0
DWIDTH 12 0
BBX 10 9 1 1
BITMAP
0C00
08C0
7F00
0900
0A40
7580
1800
2000
C000
ENDCHAR
STARTCHAR 2EBD
ENCODING 11965
SWIDTH 1000 0
DWIDTH 12 0
BBX 8 11 2 -1
BITMAP
10
21
C7
81
81
A1
C7
81
81
F7
81
ENDCHAR
STARTCHAR 2EBE
ENCODING 11966
SWIDTH 1000 0
DWIDTH 12 0
BBX 10 5 1 3
BITMAP
1300
1240
FFC0
1200
1200
ENDCHAR
STARTCHAR 2EBF
ENCODING 11967
SWIDTH 1000 0
DWIDTH 12 0
BBX 11 5 1 3
BITMAP
2100
2100
FFE0
2100
2100
ENDCHAR
STARTCHAR 2EC0
ENCODING 11968
SWIDTH 1000 0
DWIDTH 12 0
BBX 10 5 1 3
BITMAP
1200
1240
F3C0
1200
1200
ENDCHAR
STARTCHAR 2EC1
ENCODING 11969
SWIDTH 1000 0
DWIDTH 12 0
BBX 10 11 1 0
BITMAP
0400
07C0
0800
7FC0
7E00
4FC0
4000
5200
5240
9240
23C0
ENDCHAR
STARTCHAR 2EC2
ENCODING 11970
SWIDTH 1000 0
DWIDTH 12 0
BBX 8 11 2 -1
BITMAP
10
10
FF
02
04
0B
3E
49
08
08
08
ENDCHAR
STARTCHAR 2EC3
ENCODING 11971
SWIDTH 1000 0
DWIDTH 12 0
BBX 9 6 2 2
BITMAP
0080
FF00
FF00
A900
A900
D700
ENDCHAR
STARTCHAR 2EC4
ENCODING 11972
SWIDTH 1000 0
DWIDTH 12 0
BBX 8 10 2 -1
BITMAP
FF
28
29
FF
A9
CF
C1
81
FF
81
ENDCHAR
STARTCHAR 2ECA
ENCODING 11978
SWIDTH 1000 0
DWIDTH 12 0
BBX 5 11 3 -1
BITMAP
08
78
48
48
78
58
50
50
50
E8
80
ENDCHAR
STARTCHAR 2ECC
ENCODING 11980
SWIDTH 1000 0
DWIDTH 12 0
BBX 5 9 1 1
BITMAP
60
20
00
20
60
20
20
20
D8
ENDCHAR
STARTCHAR 2ECD
ENCODING 11981
SWIDTH 1000 0
DWIDTH 12 0
BBX 3 10 2 0
BITMAP
80
60
00
80
40
40
C0
40
40
A0
ENDCHAR
STARTCHAR 2ECF
ENCODING 11983
SWIDTH 1000 0
DWIDTH 12 0
BBX 5 10 4 0
BITMAP
F8
90
A0
90
88
88
F8
80
80
80
ENDCHAR
STARTCHAR 2ED1
ENCODING 11985
SWIDTH 1000 0
DWIDTH 12 0
BBX 10 11 1 -1
BITMAP
0080
3F00
3F80
2000
3F00
2040
7F80
2500
2200
3980
C040
ENDCHAR
STARTCHAR 2ED2
ENCODING 11986
SWIDTH 1000 0
DWIDTH 12 0
BBX 9 10 2 0
BITMAP
0100
7E00
4200
7C00
7F00
4080
BF00
2200
4100
FE80
ENDCHAR
STARTCHAR 2ED6
ENCODING 11990
SWIDTH 1000 0
DWIDTH 12 0
BBX 5 10 4 0
BITMAP
F8
90
A0
90
88
88
F8
80
80
80
ENDCHAR
STARTCHAR 2ED8
ENCODING 11992
SWIDTH 1000 0
DWIDTH 12 0
BBX 9 11 2 0
BITMAP
0800
FF80
0800
7E80
F700
7E00
4200
7E00
7E00
4200
4600
ENDCHAR
STARTCHAR 2EDE
ENCODING 11998
SWIDTH 1000 0
DWIDTH 12 0
BBX 6 10 3 -1
BITMAP
30
4C
80
78
78
78
40
78
7C
40
ENDCHAR
STARTCHAR 2EDF
ENCODING 11999
SWIDTH 1000 0
DWIDTH 12 0
BBX 7 11 2 -1
BITMAP
08
14
2A
74
2C
3C
24
38
24
7A
80
ENDCHAR
STARTCHAR 2EE4
ENCODING 12004
SWIDTH 1000 0
DWIDTH 12 0
BBX 10 11 1 -1
BITMAP
0400
0880
7780
4480
7F80
4480
7F80
1500
1580
2440
C7C0
ENDCHAR
STARTCHAR 2EE8
ENCODING 12008
SWIDTH 1000 0
DWIDTH 12 0
BBX 10 11 2 -1
BITMAP
0C00
0880
7F00
7F00
0840
F780
2F00
DC00
0C00
73C0
8000
ENDCHAR
STARTCHAR 2EE9
ENCODING 12009
SWIDTH 1000 0
DWIDTH 12 0
BBX 12 10 0 0
BITMAP
0920
3FC0
FFF0
0200
3FC0
3FC0
2240
3D80
30E0
4000
ENDCHAR
STARTCHAR 2EEB
ENCODING 12011
SWIDTH 1000 0
DWIDTH 12 0
BBX 10 10 1 -1
BITMAP
0400
0400
7B80
1C00
0B00
F1C0
3F00
2100
3F00
4100
ENDCHAR
STARTCHAR 2EED
ENCODING 12013
SWIDTH 1000 0
DWIDTH 12 0
BBX 9 11 1 0
BITMAP
3400
2780
2400
DF80
9480
9480
BF80
8C80
9780
8480
FB80
ENDCHAR
STARTCHAR 2EEF
ENCODING 12015
SWIDTH 1000 0
DWIDTH 12 0
BBX 11 9 1 1
BITMAP
0440
7B80
1200
EDC0
7F80
4480
7F80
7F00
07E0
ENDCHAR
STARTCHAR 2EF2
ENCODING 12018
SWIDTH 1000 0
DWIDTH 12 0
BBX 11 11 1 0
BITMAP
2000
5C00
7F80
FF00
4900
3E00
FF80
FF80
7F80
0840
0FE0
ENDCHAR
STARTCHAR 2F00
ENCODING 12032
SWIDTH 1000 0
DWIDTH 12 0
BBX 10 1 1 5
BITMAP
FFC0
ENDCHAR
STARTCHAR 2F01
ENCODING 12033
SWIDTH 1000 0
DWIDTH 12 0
BBX 1 10 6 0
BITMAP
80
80
80
80
80
80
80
80
80
80
ENDCHAR
STARTCHAR 2F02
ENCODING 12034
SWIDTH 1000 0
DWIDTH 12 0
BBX 4 4 4 3
BITMAP
80
40
20
10
ENDCHAR
STARTCHAR 2F03
ENCODING 12035
SWIDTH 1000 0
DWIDTH 12 0
BBX 4 10 3 0
BITMAP
10
10
10
10
10
10
10
20
40
80
ENDCHAR
STARTCHAR 2F04
ENCODING 12036
SWIDTH 1000 0
DWIDTH 12 0
BBX 9 8 2 1
BITMAP
7E00
0800
1000
2000
4000
8000
8100
FF80
ENDCHAR
STARTCHAR 2F05
ENCODING 12037
SWIDTH 1000 0
DWIDTH 12 0
BBX 2 10 4 0
BITMAP
40
40
40
40
40
40
40
40
40
80
ENDCHAR
STARTCHAR 2F06
ENCODING 12038
SWIDTH 1000 0
DWIDTH 12 0
BBX 10 7 1 2
BITMAP
7F80
0000
0000
0000
0000
0000
FFC0
ENDCHAR
STARTCHAR 2F07
ENCODING 12039
SWIDTH 1000 0
DWIDTH 12 0
BBX 2 3 6 5
BITMAP
C0
80
80
ENDCHAR
STARTCHAR 2F08
ENCODING 12040
SWIDTH 1000 0
DWIDTH 12 0
BBX 11 10 0 0
BITMAP
0400
0400
0400
0C00
0A00
0A00
1100
1080
6060
8000
ENDCHAR
STARTCHAR 2F09
ENCODING 12041
SWIDTH 1000 0
DWIDTH 12 0
BBX 10 9 2 -1
BITMAP
2600
2400
2400
2400
2400
2400
2480
4480
87C0
ENDCHAR
STARTCHAR 2F0A
ENCODING 12042
SWIDTH 1000 0
DWIDTH 12 0
BBX 10 10 1 -1
BITMAP
3C00
0800
0800
0400
0C00
0A00
1200
2100
4080
8040
ENDCHAR
STARTCHAR 2F0B
ENCODING 12043
SWIDTH 1000 0
DWIDTH 12 0
BBX 11 10 0 0
BITMAP
0F00
0100
0900
1100
1100
1080
2080
2040
4020
8000
ENDCHAR
STARTCHAR 2F0C
ENCODING 12044
SWIDTH 1000 0
DWIDTH 12 0
BBX 8 10 2 -1
BITMAP
01
FF
81
81
81
81
81
81
81
83
ENDCHAR
STARTCHAR 2F0D
ENCODING 12045
SWIDTH 1000 0
DWIDTH 12 0
BBX 10 2 1 5
BITMAP
FFC0
8080
ENDCHAR
STARTCHAR 2F0E
ENCODING 12046
SWIDTH 1000 0
DWIDTH 12 0
BBX 4 9 4 1
BITMAP
80
50
20
20
20
40
40
40
40
ENDCHAR
STARTCHAR 2F0F
ENCODING 12047
SWIDTH 1000 0
DWIDTH 12 0
BBX 10 11 1 -2
BITMAP
0200
3E00
2200
2200
2200
2200
2200
2240
4240
4240
83C0
ENDCHAR
STARTCHAR 2F10
ENCODING 12048
SWIDTH 1000 0
DWIDTH 12 0
BBX 8 9 2 0
BITMAP
81
81
81
81
81
81
81
81
FF
ENDCHAR
STARTCHAR 2F11
ENCODING 12049
SWIDTH 1000 0
DWIDTH 12 0
BBX 9 9 1 0
BITMAP
7F80
1080
1080
1080
1080
1080
2080
4080
8300
ENDCHAR
STARTCHAR 2F12
ENCODING 12050
SWIDTH 1000 0
DWIDTH 12 0
BBX 10 11 1 -2
BITMAP
0C00
0800
0800
FFC0
0880
0880
0880
1080
1080
2080
4300
ENDCHAR
STARTCHAR 2F13
ENCODING 12051
SWIDTH 1000 0
DWIDTH 12 0
BBX 10 11 1 -1
BITMAP
3000
2000
3FC0
4080
4080
8080
0080
0080
0080
0100
0700
ENDCHAR
STARTCHAR 2F14
ENCODING 12052
SWIDTH 1000 0
DWIDTH 12 0
BBX 8 9 3 0
BITMAP
C0
82
84
98
E0
80
81
81
FF
ENDCHAR
STARTCHAR 2F15
ENCODING 12053
SWIDTH 1000 0
DWIDTH 12 0
BBX 9 10 2 0
BITMAP
FF80
8000
8000
8000
8000
8000
8000
8000
8080
FF00
ENDCHAR
STARTCHAR 2F16
ENCODING 12054
SWIDTH 1000 0
DWIDTH 12 0
BBX 8 9 3 0
BITMAP
01
FE
80
80
80
80
80
80
FF
ENDCHAR
STARTCHAR 2F17
ENCODING 12055
SWIDTH 1000 0
DWIDTH 12 0
BBX 10 10 2 0
BITMAP
0800
0800
0800
0840
FF80
0800
0800
0800
0800
0800
ENDCHAR
STARTCHAR 2F18
ENCODING 12056
SWIDTH 1000 0
DWIDTH 12 0
BBX 5 11 5 -1
BITMAP
80
80
80
80
C0
B0
88
80
80
80
80
ENDCHAR
STARTCHAR 2F19
ENCODING 12057
SWIDTH 1000 0
DWIDTH 12 0
BBX 5 11 4 -2
BITMAP
08
F8
88
88
88
88
88
88
B8
80
80
ENDCHAR
STARTCHAR 2F1A
ENCODING 12058
SWIDTH 1000 0
DWIDTH 12 0
BBX 11 11 0 -2
BITMAP
0020
3FE0
2000
2000
2000
2000
2000
2000
4000
4000
8000
ENDCHAR
STARTCHAR 2F1B
ENCODING 12059
SWIDTH 1000 0
DWIDTH 12 0
BBX 10 10 1 0
BITMAP
0400
0800
0800
0800
1000
1100
2100
2080
FF40
0040
ENDCHAR
STARTCHAR 2F1C
ENCODING 12060
SWIDTH 1000 0
DWIDTH 12 0
BBX 10 10 1 -1
BITMAP
FF80
4100
2100
2200
1200
0C00
0400
1A00
2180
C040
ENDCHAR
STARTCHAR 2F1D
ENCODING 12061
SWIDTH 1000 0
DWIDTH 12 0
BBX 8 9 2 -1
BITMAP
01
FF
81
81
81
81
81
81
FF
ENDCHAR
STARTCHAR 2F1E
ENCODING 12062
SWIDTH 1000 0
DWIDTH 12 0
BBX 9 11 1 -1
BITMAP
0080
FF80
8080
8080
8080
8080
8080
8080
8080
8080
FF80
ENDCHAR
STARTCHAR 2F1F
ENCODING 12063
SWIDTH 1000 0
DWIDTH 12 0
BBX 8 10 3 0
BITMAP
18
10
10
11
FE
10
10
10
10
11
ENDCHAR
STARTCHAR 2F20
ENCODING 12064
SWIDTH 1000 0
DWIDTH 12 0
BBX 11 10 1 0
BITMAP
0600
0400
0400
0400
FFE0
0400
0400
0400
0400
0440
ENDCHAR
STARTCHAR 2F21
ENCODING 12065
SWIDTH 1000 0
DWIDTH 12 0
BBX 10 10 1 0
BITMAP
0800
1100
2F00
3200
5200
8C00
0C00
1200
2180
C040
ENDCHAR
STARTCHAR 2F22
ENCODING 12066
SWIDTH 1000 0
DWIDTH 12 0
BBX 10 10 1 0
BITMAP
0800
5100
5F00
2200
5200
9400
0800
1600
2180
C040
ENDCHAR
STARTCHAR 2F23
ENCODING 12067
SWIDTH 1000 0
DWIDTH 12 0
BBX 9 11 2 -1
BITMAP
1800
1000
1F80
2100
4200
7200
8C00
0400
0800
3000
C000
ENDCHAR
STARTCHAR 2F24
ENCODING 12068
SWIDTH 1000 0
DWIDTH 12 0
BBX 11 10 1 0
BITMAP
0400
0400
0400
7FC0
0600
0A00
0900
1080
2060
C000
ENDCHAR
STARTCHAR 2F25
ENCODING 12069
SWIDTH 1000 0
DWIDTH 12 0
BBX 9 11 2 -1
BITMAP
1000
2000
2080
FF00
4400
4400
A400
1800
1700
6080
8000
ENDCHAR
STARTCHAR 2F26
ENCODING 12070
SWIDTH 1000 0
DWIDTH 12 0
BBX 9 11 2 -1
BITMAP
0100
7F00
0200
0400
0800
0800
FF80
0800
0800
0800
3800
ENDCHAR
STARTCHAR 2F27
ENCODING 12071
SWIDTH 1000 0
DWIDTH 12 0
BBX 11 4 1 5
BITMAP
0400
0400
FBE0
8040
ENDCHAR
STARTCHAR 2F28
ENCODING 12072
SWIDTH 1000 0
DWIDTH 12 0
BBX 10 11 1 -2
BITMAP
0300
0200
0200
FFC0
0200
2200
1200
1200
0200
0200
0E00
ENDCHAR
STARTCHAR 2F29
ENCODING 12073
SWIDTH 1000 0
DWIDTH 12 0
BBX 11 11 1 -1
BITMAP
0400
0400
0400
3500
2480
4440
4420
8420
8400
0400
0C00
ENDCHAR
STARTCHAR 2F2A
ENCODING 12074
SWIDTH 1000 0
DWIDTH 12 0
BBX 9 10 2 -1
BITMAP
1000
1000
1080
FF00
1800
1800
2800
2880
4880
8F80
ENDCHAR
STARTCHAR 2F2B
ENCODING 12075
SWIDTH 1000 0
DWIDTH 12 0
BBX 9 10 1 -1
BITMAP
0080
7F80
4080
4080
7F80
4000
4000
4000
8000
8000
ENDCHAR
STARTCHAR 2F2C
ENCODING 12076
SWIDTH 1000 0
DWIDTH 12 0
BBX 8 11 2 -2
BITMAP
08
08
89
89
89
89
FF
89
10
10
20
ENDCHAR
STARTCHAR 2F2D
ENCODING 12077
SWIDTH 1000 0
DWIDTH 12 0
BBX 8 11 2 -2
BITMAP
08
08
08
89
89
89
89
89
89
FF
81
ENDCHAR
STARTCHAR 2F2E
ENCODING 12078
SWIDTH 1000 0
DWIDTH 12 0
BBX 9 9 1 0
BITMAP
2480
4900
4900
9200
9200
4900
4900
2480
2480
ENDCHAR
STARTCHAR 2F2F
ENCODING 12079
SWIDTH 1000 0
DWIDTH 12 0
BBX 9 9 3 0
BITMAP
0100
FE00
1000
1000
1000
1000
1000
1000
1080
ENDCHAR
STARTCHAR 2F30
ENCODING 12080
SWIDTH 1000 0
DWIDTH 12 0
BBX 11 10 1 0
BITMAP
0080
FF80
0080
0080
0080
7F80
4000
4000
4040
7FE0
ENDCHAR
STARTCHAR 2F31
ENCODING 12081
SWIDTH 1000 0
DWIDTH 12 0
BBX 8 10 2 0
BITMAP
08
09
FF
89
89
89
89
8B
08
08
ENDCHAR
STARTCHAR 2F32
ENCODING 12082
SWIDTH 1000 0
DWIDTH 12 0
BBX 11 10 1 -1
BITMAP
7FC0
0400
0400
0400
FFE0
0400
0400
0400
0400
0400
ENDCHAR
STARTCHAR 2F33
ENCODING 12083
SWIDTH 1000 0
DWIDTH 12 0
BBX 10 9 1 1
BITMAP
0C00
0800
5100
2200
1400
0800
1180
20C0
FF40
ENDCHAR
STARTCHAR 2F34
ENCODING 12084
SWIDTH 1000 0
DWIDTH 12 0
BBX 10 10 1 0
BITMAP
0400
0440
7B80
4000
4000
4000
4000
4000
8000
8000
ENDCHAR
STARTCHAR 2F35
ENCODING 12085
SWIDTH 1000 0
DWIDTH 12 0
BBX 10 10 1 -1
BITMAP
2000
6000
4000
4000
7000
2000
2000
6000
6000
9FC0
ENDCHAR
STARTCHAR 2F36
ENCODING 12086
SWIDTH 1000 0
DWIDTH 12 0
BBX 8 9 2 0
BITMAP
24
24
24
24
FF
24
24
44
84
ENDCHAR
STARTCHAR 2F37
ENCODING 12087
SWIDTH 1000 0
DWIDTH 12 0
BBX 9 11 2 -1
BITMAP
1000
2400
1200
1180
7E00
9000
1000
0800
0500
0700
0180
ENDCHAR
STARTCHAR 2F38
ENCODING 12088
SWIDTH 1000 0
DWIDTH 12 0
BBX 9 11 1 -1
BITMAP
0100
7F00
0100
0100
7F00
8000
FF80
0080
0100
0100
0600
ENDCHAR
STARTCHAR 2F39
ENCODING 12089
SWIDTH 1000 0
DWIDTH 12 0
BBX 10 9 1 0
BITMAP
0100
7F00
0100
0100
7F00
0100
0100
0140
FFC0
ENDCHAR
STARTCHAR 2F3A
ENCODING 12090
SWIDTH 1000 0
DWIDTH 12 0
BBX 8 11 2 -1
BITMAP
04
08
10
62
04
18
61
02
0C
10
E0
ENDCHAR
STARTCHAR 2F3B
ENCODING 12091
SWIDTH 1000 0
DWIDTH 12 0
BBX 7 10 3 0
BITMAP
18
22
C4
08
38
50
90
10
10
10
ENDCHAR
STARTCHAR 2F3C
ENCODING 12092
SWIDTH 1000 0
DWIDTH 12 0
BBX 11 9 1 1
BITMAP
1C00
0600
1800
5000
5080
9040
9120
9100
1F00
ENDCHAR
STARTCHAR 2F3D
ENCODING 12093
SWIDTH 1000 0
DWIDTH 12 0
BBX 9 11 2 -1
BITMAP
1000
1400
1200
1700
F900
1200
1400
0880
1480
6280
8180
ENDCHAR
STARTCHAR 2F3E
ENCODING 12094
SWIDTH 1000 0
DWIDTH 12 0
BBX 11 11 0 -2
BITMAP
0020
7FE0
0000
3FC0
2040
2040
3FC0
2040
2000
4000
8000
ENDCHAR
STARTCHAR 2F3F
ENCODING 12095
SWIDTH 1000 0
DWIDTH 12 0
BBX 11 10 1 -1
BITMAP
0F80
3400
0440
3F80
0400
FFE0
0400
0400
0400
0C00
ENDCHAR
STARTCHAR 2F40
ENCODING 12096
SWIDTH 1000 0
DWIDTH 12 0
BBX 11 11 1 0
BITMAP
0400
0400
FFE0
0400
0400
3B80
1100
0A00
0E00
11C0
E000
ENDCHAR
STARTCHAR 2F41
ENCODING 12097
SWIDTH 1000 0
DWIDTH 12 0
BBX 10 11 1 0
BITMAP
0800
0880
0F80
0800
0800
7700
2200
1400
0C00
3300
C0C0
ENDCHAR
STARTCHAR 2F42
ENCODING 12098
SWIDTH 1000 0
DWIDTH 12 0
BBX 10 10 2 0
BITMAP
0800
0800
F780
2200
1200
1400
0800
1600
2180
C040
ENDCHAR
STARTCHAR 2F43
ENCODING 12099
SWIDTH 1000 0
DWIDTH 12 0
BBX 9 11 2 -1
BITMAP
0400
4600
2400
1400
C400
6400
0480
3F00
C400
0400
0400
ENDCHAR
STARTCHAR 2F44
ENCODING 12100
SWIDTH 1000 0
DWIDTH 12 0
BBX 10 10 1 0
BITMAP
0700
3800
2000
2040
3F80
2200
2200
4200
4200
8200
ENDCHAR
STARTCHAR 2F45
ENCODING 12101
SWIDTH 1000 0
DWIDTH 12 0
BBX 11 11 1 0
BITMAP
0400
0400
FFE0
0800
0800
0FC0
0840
1080
1080
2080
0300
ENDCHAR
STARTCHAR 2F46
ENCODING 12102
SWIDTH 1000 0
DWIDTH 12 0
BBX 10 10 1 0
BITMAP
7F80
0800
0800
0800
7F80
1400
1400
2440
4440
87C0
ENDCHAR
STARTCHAR 2F47
ENCODING 12103
SWIDTH 1000 0
DWIDTH 12 0
BBX 7 10 2 -1
BITMAP
02
FE
82
82
82
FE
82
82
82
FE
ENDCHAR
STARTCHAR 2F48
ENCODING 12104
SWIDTH 1000 0
DWIDTH 12 0
BBX 8 9 2 -1
BITMAP
01
FF
81
85
FD
81
81
81
FF
ENDCHAR
STARTCHAR 2F49
ENCODING 12105
SWIDTH 1000 0
DWIDTH 12 0
BBX 8 11 1 -2
BITMAP
01
3F
21
21
3F
21
3F
21
21
41
83
ENDCHAR
STARTCHAR 2F4A
ENCODING 12106
SWIDTH 1000 0
DWIDTH 12 0
BBX 11 11 1 -1
BITMAP
0400
0400
0400
FFE0
0C00
0E00
1500
2480
4460
8420
0400
ENDCHAR
STARTCHAR 2F4B
ENCODING 12107
SWIDTH 1000 0
DWIDTH 12 0
BBX 10 10 1 0
BITMAP
3000
2000
5FC0
4880
8C00
0C00
1200
1100
2080
C040
ENDCHAR
STARTCHAR 2F4C
ENCODING 12108
SWIDTH 1000 0
DWIDTH 12 0
BBX 8 9 3 1
BITMAP
10
10
90
92
9C
90
90
90
91
ENDCHAR
STARTCHAR 2F4D
ENCODING 12109
SWIDTH 1000 0
DWIDTH 12 0
BBX 10 10 1 0
BITMAP
FFC0
0800
1000
2F00
5200
8A00
0C00
0800
3000
C000
ENDCHAR
STARTCHAR 2F4E
ENCODING 12110
SWIDTH 1000 0
DWIDTH 12 0
BBX 10 11 1 -1
BITMAP
0200
1E00
1240
2240
23C0
4000
3F00
0A00
0400
1BC0
E000
ENDCHAR
STARTCHAR 2F4F
ENCODING 12111
SWIDTH 1000 0
DWIDTH 12 0
BBX 9 10 2 0
BITMAP
7F00
9200
9200
9280
FF00
9200
9280
FF80
0200
0400
ENDCHAR
STARTCHAR 2F50
ENCODING 12112
SWIDTH 1000 0
DWIDTH 12 0
BBX 11 11 0 -1
BITMAP
2300
2200
2200
2240
3A80
2300
2200
2200
2220
3A20
C3E0
ENDCHAR
STARTCHAR 2F51
ENCODING 12113
SWIDTH 1000 0
DWIDTH 12 0
BBX 9 10 2 0
BITMAP
0E00
F000
1100
7E00
9080
1700
F800
1080
1080
1F80
ENDCHAR
STARTCHAR 2F52
ENCODING 12114
SWIDTH 1000 0
DWIDTH 12 0
BBX 10 9 0 1
BITMAP
0780
3A00
2200
2200
3FC0
2200
2100
22C0
FC40
ENDCHAR
STARTCHAR 2F53
ENCODING 12115
SWIDTH 1000 0
DWIDTH 12 0
BBX 10 10 1 0
BITMAP
2000
2080
5F00
7F80
8000
3F00
0100
0100
00C0
0040
ENDCHAR
STARTCHAR 2F54
ENCODING 12116
SWIDTH 1000 0
DWIDTH 12 0
BBX 11 11 1 0
BITMAP
0400
0400
0460
F680
1700
1500
2500
2480
4440
8400
0C00
ENDCHAR
STARTCHAR 2F55
ENCODING 12117
SWIDTH 1000 0
DWIDTH 12 0
BBX 9 11 2 -1
BITMAP
0C00
0800
0880
4900
4900
4E00
8C00
1200
1100
6080
8000
ENDCHAR
STARTCHAR 2F56
ENCODING 12118
SWIDTH 1000 0
DWIDTH 12 0
BBX 11 10 0 0
BITMAP
0780
3D00
2500
2480
2480
2480
2440
4440
4420
8000
ENDCHAR
STARTCHAR 2F57
ENCODING 12119
SWIDTH 1000 0
DWIDTH 12 0
BBX 10 10 1 0
BITMAP
1200
2180
4040
8300
1200
0C00
0C00
1200
2180
C040
ENDCHAR
STARTCHAR 2F58
ENCODING 12120
SWIDTH 1000 0
DWIDTH 12 0
BBX 10 11 1 -1
BITMAP
0100
2300
1C00
0B00
7080
0100
1200
0C00
0C00
1380
E040
ENDCHAR
STARTCHAR 2F59
ENCODING 12121
SWIDTH 1000 0
DWIDTH 12 0
BBX 6 9 3 0
BITMAP
44
44
44
7C
04
FC
44
44
84
ENDCHAR
STARTCHAR 2F5A
ENCODING 12122
SWIDTH 1000 0
DWIDTH 12 0
BBX 9 9 2 0
BITMAP
4800
4800
4880
7700
4400
7C00
4400
8400
8400
ENDCHAR
STARTCHAR 2F5B
ENCODING 12123
SWIDTH 1000 0
DWIDTH 12 0
BBX 10 10 1 0
BITMAP
7FC0
0200
2200
4240
3F80
0A00
1200
2200
C200
0600
ENDCHAR
STARTCHAR 2F5C
ENCODING 12124
SWIDTH 1000 0
DWIDTH 12 0
BBX 9 11 2 -1
BITMAP
0C00
4800
4800
7F80
8800
8800
0800
FF80
0800
0800
0800
ENDCHAR
STARTCHAR 2F5D
ENCODING 12125
SWIDTH 1000 0
DWIDTH 12 0
BBX 10 10 1 -1
BITMAP
0C00
0A00
0900
0800
7F80
0C00
1400
1200
2180
C040
ENDCHAR
STARTCHAR 2F5E
ENCODING 12126
SWIDTH 1000 0
DWIDTH 12 0
BBX 11 11 1 0
BITMAP
0400
0400
FFE0
0400
0800
3180
1200
1500
0880
17C0
E840
ENDCHAR
STARTCHAR 2F5F
ENCODING 12127
SWIDTH 1000 0
DWIDTH 12 0
BBX 10 9 2 0
BITMAP
0080
7F00
0800
0800
FF80
0800
0A00
0900
0840
ENDCHAR
STARTCHAR 2F60
ENCODING 12128
SWIDTH 1000 0
DWIDTH 12 0
BBX 11 10 0 0
BITMAP
3FC0
2480
2480
2480
2480
2440
2540
44A0
5FA0
8000
ENDCHAR
STARTCHAR 2F61
ENCODING 12129
SWIDTH 1000 0
DWIDTH 12 0
BBX 11 10 0 0
BITMAP
7FE0
1000
1100
1F00
1900
1500
2520
2120
7DE0
8000
ENDCHAR
STARTCHAR 2F62
ENCODING 12130
SWIDTH 1000 0
DWIDTH 12 0
BBX 9 11 2 -1
BITMAP
4200
4200
4280
FF00
4200
4200
7E00
4200
4200
7E00
4200
ENDCHAR
STARTCHAR 2F63
ENCODING 12131
SWIDTH 1000 0
DWIDTH 12 0
BBX 10 10 1 0
BITMAP
0600
2400
2440
5F80
4400
8400
3FC0
0400
0400
0400
ENDCHAR
STARTCHAR 2F64
ENCODING 12132
SWIDTH 1000 0
DWIDTH 12 0
BBX 9 11 1 -1
BITMAP
0080
7F80
4880
4880
7F80
4880
7F80
4880
4880
8880
0180
ENDCHAR
STARTCHAR 2F65
ENCODING 12133
SWIDTH 1000 0
DWIDTH 12 0
BBX 8 10 2 -1
BITMAP
01
FF
89
89
89
FF
89
89
89
F7
ENDCHAR
STARTCHAR 2F66
ENCODING 12134
SWIDTH 1000 0
DWIDTH 12 0
BBX 11 9 1 -1
BITMAP
0040
3FC0
0480
2400
27C0
2400
6400
5400
8FE0
ENDCHAR
STARTCHAR 2F67
ENCODING 12135
SWIDTH 1000 0
DWIDTH 12 0
BBX 10 10 1 -1
BITMAP
0600
0440
BB80
6000
6000
2000
E000
A000
4000
4000
ENDCHAR
STARTCHAR 2F68
ENCODING 12136
SWIDTH 1000 0
DWIDTH 12 0
BBX 9 5 2 3
BITMAP
7200
ED80
6600
4100
8080
ENDCHAR
STARTCHAR 2F69
ENCODING 12137
SWIDTH 1000 0
DWIDTH 12 0
BBX 8 10 2 -1
BITMAP
10
21
DF
81
81
FF
81
81
81
FF
ENDCHAR
STARTCHAR 2F6A
ENCODING 12138
SWIDTH 1000 0
DWIDTH 12 0
BBX 10 11 1 -1
BITMAP
0600
0400
7FC0
4480
4400
7B80
4900
4600
8700
98C0
2000
ENDCHAR
STARTCHAR 2F6B
ENCODING 12139
SWIDTH 1000 0
DWIDTH 12 0
BBX 8 9 2 0
BITMAP
01
FF
A9
A9
A9
A9
A9
A9
A9
ENDCHAR
STARTCHAR 2F6C
ENCODING 12140
SWIDTH 1000 0
DWIDTH 12 0
BBX 8 11 2 -1
BITMAP
01
FF
81
81
FF
81
81
FF
81
FF
81
ENDCHAR
STARTCHAR 2F6D
ENCODING 12141
SWIDTH 1000 0
DWIDTH 12 0
BBX 9 10 2 0
BITMAP
7F00
2400
1800
0880
FF80
2B00
4800
8800
0800
1800
ENDCHAR
STARTCHAR 2F6E
ENCODING 12142
SWIDTH 1000 0
DWIDTH 12 0
BBX 10 11 2 -2
BITMAP
2000
4000
7F00
8800
8800
0880
FF00
1400
1200
2180
C040
ENDCHAR
STARTCHAR 2F6F
ENCODING 12143
SWIDTH 1000 0
DWIDTH 12 0
BBX 11 11 0 -1
BITMAP
0020
7FE0
0800
0800
1040
1FC0
3040
D040
1040
1FC0
1040
ENDCHAR
STARTCHAR 2F70
ENCODING 12144
SWIDTH 1000 0
DWIDTH 12 0
BBX 11 11 1 -1
BITMAP
0080
7FC0
0000
0000
FFE0
0400
2500
44C0
4420
8420
0C00
ENDCHAR
STARTCHAR 2F71
ENCODING 12145
SWIDTH 1000 0
DWIDTH 12 0
BBX 8 10 2 -1
BITMAP
18
11
FF
91
A1
A5
B9
81
81
83
ENDCHAR
STARTCHAR 2F72
ENCODING 12146
SWIDTH 1000 0
DWIDTH 12 0
BBX 11 11 1 0
BITMAP
01C0
1E00
2400
0400
FFE0
0E00
0D00
1480
6440
8420
0400
ENDCHAR
STARTCHAR 2F73
ENCODING 12147
SWIDTH 1000 0
DWIDTH 12 0
BBX 11 11 1 0
BITMAP
0400
0400
7FE0
8040
9000
1200
1100
2100
2080
4040
8000
ENDCHAR
STARTCHAR 2F74
ENCODING 12148
SWIDTH 1000 0
DWIDTH 12 0
BBX 8 9 3 1
BITMAP
10
11
EE
82
84
44
44
48
08
ENDCHAR
STARTCHAR 2F75
ENCODING 12149
SWIDTH 1000 0
DWIDTH 12 0
BBX 11 10 0 -1
BITMAP
1100
2200
2220
5BC0
5080
9080
1080
1080
1080
1380
ENDCHAR
STARTCHAR 2F76
ENCODING 12150
SWIDTH 1000 0
DWIDTH 12 0
BBX 11 11 1 -1
BITMAP
0600
4440
2480
1500
0400
7FC0
0D00
1480
2440
C420
0400
ENDCHAR
STARTCHAR 2F77
ENCODING 12151
SWIDTH 1000 0
DWIDTH 12 0
BBX 11 11 1 -1
BITMAP
0400
0800
3180
1200
0C80
11C0
EE20
3500
2480
4440
0400
ENDCHAR
STARTCHAR 2F78
ENCODING 12152
SWIDTH 1000 0
DWIDTH 12 0
BBX 10 11 1 -1
BITMAP
3000
2080
5F00
4400
8440
FFC0
0400
4480
4480
4480
7B80
ENDCHAR
STARTCHAR 2F79
ENCODING 12153
SWIDTH 1000 0
DWIDTH 12 0
BBX 9 11 1 -1
BITMAP
0080
FF80
9280
9480
A480
9280
A680
A480
C880
C080
8180
ENDCHAR
STARTCHAR 2F7A
ENCODING 12154
SWIDTH 1000 0
DWIDTH 12 0
BBX 11 10 1 -1
BITMAP
1100
1240
2D80
0400
3F80
0400
FFE0
0400
0400
0400
ENDCHAR
STARTCHAR 2F7B
ENCODING 12155
SWIDTH 1000 0
DWIDTH 12 0
BBX 10 11 1 -1
BITMAP
0840
79C0
0A40
6940
2840
1940
2940
CA40
8840
0840
18C0
ENDCHAR
STARTCHAR 2F7C
ENCODING 12156
SWIDTH 1000 0
DWIDTH 12 0
BBX 11 11 1 -1
BITMAP
0C00
0880
7F00
0A00
FFE0
0400
1880
7700
9840
1040
1FC0
ENDCHAR
STARTCHAR 2F7D
ENCODING 12157
SWIDTH 1000 0
DWIDTH 12 0
BBX 10 11 1 -1
BITMAP
0040
FFC0
0800
0880
7780
5280
5280
5280
5280
5280
4080
ENDCHAR
STARTCHAR 2F7E
ENCODING 12158
SWIDTH 1000 0
DWIDTH 12 0
BBX 10 11 2 -1
BITMAP
0C00
0900
7E00
0800
7F00
0800
FF80
2A00
4900
88C0
0800
ENDCHAR
STARTCHAR 2F7F
ENCODING 12159
SWIDTH 1000 0
DWIDTH 12 0
BBX 10 11 1 -1
BITMAP
0040
7F80
2100
3F00
2100
2100
3F00
2140
FF80
8100
0100
ENDCHAR
STARTCHAR 2F80
ENCODING 12160
SWIDTH 1000 0
DWIDTH 12 0
BBX 10 11 1 -2
BITMAP
0400
0500
3F00
FFC0
0500
3F00
0480
3F00
FFC0
0400
0400
ENDCHAR
STARTCHAR 2F81
ENCODING 12161
SWIDTH 1000 0
DWIDTH 12 0
BBX 9 11 1 -1
BITMAP
0400
0480
FB80
8E80
9580
E880
8C80
8A80
B080
8080
8180
ENDCHAR
STARTCHAR 2F82
ENCODING 12162
SWIDTH 1000 0
DWIDTH 12 0
BBX 9 11 2 -1
BITMAP
0080
FF80
8800
8800
F700
8100
8100
FF00
8800
8880
F700
ENDCHAR
STARTCHAR 2F83
ENCODING 12163
SWIDTH 1000 0
DWIDTH 12 0
BBX 8 11 2 -1
BITMAP
18
11
EF
81
81
FF
81
FF
81
FF
81
ENDCHAR
STARTCHAR 2F84
ENCODING 12164
SWIDTH 1000 0
DWIDTH 12 0
BBX 10 9 2 1
BITMAP
7F80
1200
2100
FE80
0800
0800
7F00
0800
0840
ENDCHAR
STARTCHAR 2F85
ENCODING 12165
SWIDTH 1000 0
DWIDTH 12 0
BBX 8 11 2 -1
BITMAP
10
21
C7
81
81
A1
C7
81
81
FF
81
ENDCHAR
STARTCHAR 2F86
ENCODING 12166
SWIDTH 1000 0
DWIDTH 12 0
BBX 9 10 1 0
BITMAP
0E00
7400
0400
FF80
0400
7F00
4100
4100
4100
7F00
ENDCHAR
STARTCHAR 2F87
ENCODING 12167
SWIDTH 1000 0
DWIDTH 12 0
BBX 11 11 0 0
BITMAP
3080
2080
38A0
4BC0
4E80
B480
B4A0
27C0
2080
4080
0080
ENDCHAR
STARTCHAR 2F88
ENCODING 12168
SWIDTH 1000 0
DWIDTH 12 0
BBX 10 11 1 -1
BITMAP
0800
1100
2F00
2900
2100
FFC0
2900
2900
2900
4100
8300
ENDCHAR
STARTCHAR 2F89
ENCODING 12169
SWIDTH 1000 0
DWIDTH 12 0
BBX 10 11 1 -2
BITMAP
0100
3F00
2100
3F00
2100
3F00
2980
2500
2200
2900
D0C0
ENDCHAR
STARTCHAR 2F8A
ENCODING 12170
SWIDTH 1000 0
DWIDTH 12 0
BBX 10 11 1 0
BITMAP
1000
3E00
6200
4480
FF80
4480
7F80
4080
4040
4040
3FC0
ENDCHAR
STARTCHAR 2F8B
ENCODING 12171
SWIDTH 1000 0
DWIDTH 12 0
BBX 10 10 1 0
BITMAP
2100
2100
AD40
AD40
AD40
AD40
FFC0
2100
4100
8100
ENDCHAR
STARTCHAR 2F8C
ENCODING 12172
SWIDTH 1000 0
DWIDTH 12 0
BBX 11 9 1 0
BITMAP
0440
0780
7FE0
4840
4800
49C0
5E00
4800
8FE0
ENDCHAR
STARTCHAR 2F8D
ENCODING 12173
SWIDTH 1000 0
DWIDTH 12 0
BBX 10 10 1 0
BITMAP
0400
0400
0480
7F80
4480
4480
7F80
0500
0480
FF40
ENDCHAR
STARTCHAR 2F8E
ENCODING 12174
SWIDTH 1000 0
DWIDTH 12 0
BBX 8 10 2 1
BITMAP
30
21
FF
A9
A9
A9
A9
A9
A9
A9
ENDCHAR
STARTCHAR 2F8F
ENCODING 12175
SWIDTH 1000 0
DWIDTH 12 0
BBX 10 11 1 0
BITMAP
1000
2FC0
4000
1040
2FC0
2100
E100
2100
2100
2100
2300
ENDCHAR
STARTCHAR 2F90
ENCODING 12176
SWIDTH 1000 0
DWIDTH 12 0
BBX 11 10 1 0
BITMAP
0400
0400
7FC0
0C40
1280
7100
9100
1080
1C60
6000
ENDCHAR
STARTCHAR 2F91
ENCODING 12177
SWIDTH 1000 0
DWIDTH 12 0
BBX 8 9 2 0
BITMAP
FF
24
FF
A5
A5
BD
A5
81
81
ENDCHAR
STARTCHAR 2F92
ENCODING 12178
SWIDTH 1000 0
DWIDTH 12 0
BBX 9 11 2 -2
BITMAP
0200
7E00
4200
7E00
7E00
4200
7E00
6A00
2800
2900
CF80
ENDCHAR
STARTCHAR 2F93
ENCODING 12179
SWIDTH 1000 0
DWIDTH 12 0
BBX 9 11 1 -1
BITMAP
1000
1E00
2400
7F80
A480
3F80
2480
3F80
2080
4080
4180
ENDCHAR
STARTCHAR 2F94
ENCODING 12180
SWIDTH 1000 0
DWIDTH 12 0
BBX 10 10 1 0
BITMAP
3F00
0040
FF80
7F80
0000
3F00
7F80
4080
4080
7F80
ENDCHAR
STARTCHAR 2F95
ENCODING 12181
SWIDTH 1000 0
DWIDTH 12 0
BBX 10 11 1 -1
BITMAP
1200
2100
4C80
8C00
1200
2100
7FC0
A100
2100
2100
3F00
ENDCHAR
STARTCHAR 2F96
ENCODING 12182
SWIDTH 1000 0
DWIDTH 12 0
BBX 7 10 3 0
BITMAP
02
FC
04
FC
84
84
FC
08
48
12
ENDCHAR
STARTCHAR 2F97
ENCODING 12183
SWIDTH 1000 0
DWIDTH 12 0
BBX 10 11 1 -1
BITMAP
0040
7F80
1440
6A80
1B00
2600
CD00
1480
6440
0400
0800
ENDCHAR
STARTCHAR 2F98
ENCODING 12184
SWIDTH 1000 0
DWIDTH 12 0
BBX 7 11 3 -1
BITMAP
08
30
D6
48
30
D8
28
CC
34
C4
18
ENDCHAR
STARTCHAR 2F99
ENCODING 12185
SWIDTH 1000 0
DWIDTH 12 0
BBX 10 11 1 -2
BITMAP
0100
7F00
4100
7F00
4100
7F00
4100
7F00
4100
2700
C0C0
ENDCHAR
STARTCHAR 2F9A
ENCODING 12186
SWIDTH 1000 0
DWIDTH 12 0
BBX 10 11 1 -2
BITMAP
0400
0480
3F00
0440
FFC0
0A00
2A80
5240
9240
9200
2600
ENDCHAR
STARTCHAR 2F9B
ENCODING 12187
SWIDTH 1000 0
DWIDTH 12 0
BBX 10 11 2 -1
BITMAP
0C00
0800
FF80
0800
FFC0
0800
6800
4F00
A800
9800
07C0
ENDCHAR
STARTCHAR 2F9C
ENCODING 12188
SWIDTH 1000 0
DWIDTH 12 0
BBX 10 11 1 -2
BITMAP
0100
3F00
2100
2100
3F00
2500
1480
2700
3400
4C00
83C0
ENDCHAR
STARTCHAR 2F9D
ENCODING 12189
SWIDTH 1000 0
DWIDTH 12 0
BBX 11 11 1 -1
BITMAP
0800
0900
3700
3F20
2140
3F80
2F00
D300
0D00
3100
4300
ENDCHAR
STARTCHAR 2F9E
ENCODING 12190
SWIDTH 1000 0
DWIDTH 12 0
BBX 10 11 1 -2
BITMAP
0400
0440
7F80
7F80
4480
7F80
4480
3F00
FFC0
0400
0400
ENDCHAR
STARTCHAR 2F9F
ENCODING 12191
SWIDTH 1000 0
DWIDTH 12 0
BBX 11 11 1 0
BITMAP
0600
0440
7FC0
0180
1200
FFE0
0400
0440
3F80
0400
0400
ENDCHAR
STARTCHAR 2FA0
ENCODING 12192
SWIDTH 1000 0
DWIDTH 12 0
BBX 10 9 1 0
BITMAP
7F80
4000
4F00
4040
7F80
5280
5100
9380
BC40
ENDCHAR
STARTCHAR 2FA1
ENCODING 12193
SWIDTH 1000 0
DWIDTH 12 0
BBX 11 11 1 -2
BITMAP
00C0
0F00
31C0
3E00
03C0
FC00
3400
2780
5400
4C00
83E0
ENDCHAR
STARTCHAR 2FA2
ENCODING 12194
SWIDTH 1000 0
DWIDTH 12 0
BBX 9 10 2 0
BITMAP
0200
7E00
4200
3C00
FF00
9100
9100
EF00
8080
FF80
ENDCHAR
STARTCHAR 2FA3
ENCODING 12195
SWIDTH 1000 0
DWIDTH 12 0
BBX 9 11 2 -1
BITMAP
0080
FF00
2900
FF00
A900
A900
CF00
8100
FF00
8100
FF00
ENDCHAR
STARTCHAR 2FA4
ENCODING 12196
SWIDTH 1000 0
DWIDTH 12 0
BBX 11 11 1 -1
BITMAP
01C0
3E00
04C0
2500
0400
FFE0
0E00
1500
24C0
C420
0400
ENDCHAR
STARTCHAR 2FA5
ENCODING 12197
SWIDTH 1000 0
DWIDTH 12 0
BBX 8 10 2 0
BITMAP
01
FF
89
FF
89
89
FF
09
FE
08
ENDCHAR
STARTCHAR 2FA6
ENCODING 12198
SWIDTH 1000 0
DWIDTH 12 0
BBX 10 10 2 1
BITMAP
0800
1400
2200
4380
9C40
0880
FF80
0900
6900
2A00
ENDCHAR
STARTCHAR 2FA7
ENCODING 12199
SWIDTH 1000 0
DWIDTH 12 0
BBX 10 11 1 -1
BITMAP
0080
3F00
3F80
2000
3F00
2040
7F80
2500
2200
3980
C040
ENDCHAR
STARTCHAR 2FA8
ENCODING 12200
SWIDTH 1000 0
DWIDTH 12 0
BBX 10 11 1 -1
BITMAP
0840
FFC0
FFC0
8C40
FFC0
8C40
8040
8040
8040
8040
81C0
ENDCHAR
STARTCHAR 2FA9
ENCODING 12201
SWIDTH 1000 0
DWIDTH 12 0
BBX 12 10 0 -1
BITMAP
0480
3B80
3F80
2000
3FC0
2040
1F80
FFF0
0200
0200
ENDCHAR
STARTCHAR 2FAA
ENCODING 12202
SWIDTH 1000 0
DWIDTH 12 0
BBX 10 10 1 0
BITMAP
0500
3F00
7F80
0500
3F00
7580
0E00
3500
C4C0
0C00
ENDCHAR
STARTCHAR 2FAB
ENCODING 12203
SWIDTH 1000 0
DWIDTH 12 0
BBX 10 11 1 -1
BITMAP
1200
2200
2440
3F80
6480
BF00
2480
3F80
2400
2440
3B80
ENDCHAR
STARTCHAR 2FAC
ENCODING 12204
SWIDTH 1000 0
DWIDTH 12 0
BBX 10 10 1 0
BITMAP
FFC0
0400
7F80
4480
5480
4480
4680
5480
4480
4480
ENDCHAR
STARTCHAR 2FAD
ENCODING 12205
SWIDTH 1000 0
DWIDTH 12 0
BBX 8 11 2 0
BITMAP
09
FF
08
7E
F7
7E
4A
4A
76
42
42
ENDCHAR
STARTCHAR 2FAE
ENCODING 12206
SWIDTH 1000 0
DWIDTH 12 0
BBX 12 10 0 -1
BITMAP
0900
0900
39E0
0920
39C0
0D00
79F0
9100
1100
2100
ENDCHAR
STARTCHAR 2FAF
ENCODING 12207
SWIDTH 1000 0
DWIDTH 12 0
BBX 9 11 2 -1
BITMAP
0080
FF00
1100
FF00
A500
BD00
A500
A500
BD00
A500
DB00
ENDCHAR
STARTCHAR 2FB0
ENCODING 12208
SWIDTH 1000 0
DWIDTH 12 0
BBX 10 10 1 0
BITMAP
1240
FFC0
1200
1E00
0480
7F80
4480
3F00
FFC0
0400
ENDCHAR
STARTCHAR 2FB1
ENCODING 12209
SWIDTH 1000 0
DWIDTH 12 0
BBX 9 11 2 0
BITMAP
1000
FE00
2400
DB00
7E00
4200
3D00
7E00
4880
BF00
0800
ENDCHAR
STARTCHAR 2FB2
ENCODING 12210
SWIDTH 1000 0
DWIDTH 12 0
BBX 9 9 1 1
BITMAP
1600
1400
7780
1480
7700
1480
F780
1400
1400
ENDCHAR
STARTCHAR 2FB3
ENCODING 12211
SWIDTH 1000 0
DWIDTH 12 0
BBX 9 11 2 -1
BITMAP
0800
0900
7600
2600
2880
D700
7E00
4200
7E00
4200
7E00
ENDCHAR
STARTCHAR 2FB4
ENCODING 12212
SWIDTH 1000 0
DWIDTH 12 0
BBX 10 10 1 0
BITMAP
7F80
0900
3700
3F00
2100
3F00
2100
3E00
33C0
C000
ENDCHAR
STARTCHAR 2FB5
ENCODING 12213
SWIDTH 1000 0
DWIDTH 12 0
BBX 11 10 1 0
BITMAP
7F80
5C80
4880
5E80
5A80
5A80
5E80
8AC0
BF40
2120
ENDCHAR
STARTCHAR 2FB6
ENCODING 12214
SWIDTH 1000 0
DWIDTH 12 0
BBX 10 10 1 0
BITMAP
7FC0
3900
E980
2940
28C0
7E80
2B80
4940
4940
88C0
ENDCHAR
STARTCHAR 2FB7
ENCODING 12215
SWIDTH 1000 0
DWIDTH 12 0
BBX 10 11 1 -1
BITMAP
0400
0C00
1200
2580
FF40
3F00
2100
3E80
2700
2D00
D0C0
ENDCHAR
STARTCHAR 2FB8
ENCODING 12216
SWIDTH 1000 0
DWIDTH 12 0
BBX 10 11 1 0
BITMAP
1200
1400
FFC0
0800
3F00
2100
3F00
2100
3F00
2100
3F00
ENDCHAR
STARTCHAR 2FB9
ENCODING 12217
SWIDTH 1000 0
DWIDTH 12 0
BBX 10 10 1 0
BITMAP
3E00
0400
7F80
1500
64C0
BF00
2100
3F00
2100
3F00
ENDCHAR
STARTCHAR 2FBA
ENCODING 12218
SWIDTH 1000 0
DWIDTH 12 0
BBX 12 10 0 0
BITMAP
3FC0
2240
3F80
2240
3F80
3FF0
2120
14A0
4A20
80C0
ENDCHAR
STARTCHAR 2FBB
ENCODING 12219
SWIDTH 1000 0
DWIDTH 12 0
BBX 10 11 1 -1
BITMAP
0100
3F00
2F00
2940
D6C0
BF00
2100
3F00
3F00
2100
2300
ENDCHAR
STARTCHAR 2FBC
ENCODING 12220
SWIDTH 1000 0
DWIDTH 12 0
BBX 8 10 2 0
BITMAP
09
FE
7E
7E
01
FF
BD
A5
B9
83
ENDCHAR
STARTCHAR 2FBD
ENCODING 12221
SWIDTH 1000 0
DWIDTH 12 0
BBX 12 10 0 0
BITMAP
3C40
2480
3A20
3C40
2080
FF30
2020
2440
7A80
0300
ENDCHAR
STARTCHAR 2FBE
ENCODING 12222
SWIDTH 1000 0
DWIDTH 12 0
BBX 10 11 1 -1
BITMAP
C840
9340
BF40
9240
A140
8040
8040
8040
8040
8040
81C0
ENDCHAR
STARTCHAR 2FBF
ENCODING 12223
SWIDTH 1000 0
DWIDTH 12 0
BBX 8 10 2 0
BITMAP
B5
A9
DD
E5
91
6E
86
F8
81
FF
ENDCHAR
STARTCHAR 2FC0
ENCODING 12224
SWIDTH 1000 0
DWIDTH 12 0
BBX 8 11 2 -1
BITMAP
01
FE
7E
42
3C
FF
A7
C1
FF
89
89
ENDCHAR
STARTCHAR 2FC1
ENCODING 12225
SWIDTH 1000 0
DWIDTH 12 0
BBX 10 11 1 -1
BITMAP
0400
0880
7780
4480
7F80
4480
7F80
1500
1580
2440
C7C0
ENDCHAR
STARTCHAR 2FC2
ENCODING 12226
SWIDTH 1000 0
DWIDTH 12 0
BBX 10 11 1 0
BITMAP
1800
1E00
2480
3F80
6480
3F80
2480
3F80
0000
4A80
CA40
ENDCHAR
STARTCHAR 2FC3
ENCODING 12227
SWIDTH 1000 0
DWIDTH 12 0
BBX 11 10 0 0
BITMAP
0C00
3780
3F80
3F20
3FE0
2000
1FE0
5540
5440
80C0
ENDCHAR
STARTCHAR 2FC4
ENCODING 12228
SWIDTH 1000 0
DWIDTH 12 0
BBX 9 10 1 0
BITMAP
0800
0F00
F780
AA80
9680
A880
9480
AA80
8880
F780
ENDCHAR
STARTCHAR 2FC5
ENCODING 12229
SWIDTH 1000 0
DWIDTH 12 0
BBX 10 11 1 -1
BITMAP
0400
0400
7B80
7F80
5280
7F80
7200
62C0
BB00
A640
5BC0
ENDCHAR
STARTCHAR 2FC6
ENCODING 12230
SWIDTH 1000 0
DWIDTH 12 0
BBX 10 10 2 0
BITMAP
0800
7F80
4900
BE80
2900
D0C0
2E00
DC00
1300
E080
ENDCHAR
STARTCHAR 2FC7
ENCODING 12231
SWIDTH 1000 0
DWIDTH 12 0
BBX 10 11 1 -1
BITMAP
0400
0440
7B80
5980
5540
5B80
5B80
7740
D540
D100
1100
ENDCHAR
STARTCHAR 2FC8
ENCODING 12232
SWIDTH 1000 0
DWIDTH 12 0
BBX 10 11 1 -1
BITMAP
1200
FFC0
1200
1E40
6D80
7F80
4480
7F80
7F80
5200
61C0
ENDCHAR
STARTCHAR 2FC9
ENCODING 12233
SWIDTH 1000 0
DWIDTH 12 0
BBX 11 11 1 0
BITMAP
0780
3C00
FFE0
0E00
35C0
CA20
1580
F4E0
0F00
74C0
0C00
ENDCHAR
STARTCHAR 2FCA
ENCODING 12234
SWIDTH 1000 0
DWIDTH 12 0
BBX 12 11 0 -1
BITMAP
0040
3FC0
2240
3FC0
3FC0
0200
3FC0
FFF0
0800
2540
4420
ENDCHAR
STARTCHAR 2FCB
ENCODING 12235
SWIDTH 1000 0
DWIDTH 12 0
BBX 10 11 1 -1
BITMAP
1E00
5480
5540
2E80
4580
FFC0
4680
6680
6680
6480
4580
ENDCHAR
STARTCHAR 2FCC
ENCODING 12236
SWIDTH 1000 0
DWIDTH 12 0
BBX 10 9 1 1
BITMAP
7F80
5480
3700
F780
9480
F780
9480
F740
1FC0
ENDCHAR
STARTCHAR 2FCD
ENCODING 12237
SWIDTH 1000 0
DWIDTH 12 0
BBX 10 10 1 -1
BITMAP
7E80
7E80
7E80
5E80
4080
3700
F7C0
5480
5480
9480
ENDCHAR
STARTCHAR 2FCE
ENCODING 12238
SWIDTH 1000 0
DWIDTH 12 0
BBX 12 11 0 -1
BITMAP
0080
1080
7FF0
7C80
7CA0
4760
3940
28C0
34C0
C930
0200
ENDCHAR
STARTCHAR 2FCF
ENCODING 12239
SWIDTH 1000 0
DWIDTH 12 0
BBX 10 11 1 0
BITMAP
1C00
6980
7B80
4080
3F00
4780
5500
5480
44C0
EEC0
8840
ENDCHAR
STARTCHAR 2FD0
ENCODING 12240
SWIDTH 1000 0
DWIDTH 12 0
BBX 10 12 1 -1
BITMAP
0800
3F00
2100
3F00
1E00
7F80
7F80
3740
FFC0
2200
2200
4000
ENDCHAR
STARTCHAR 2FD1
ENCODING 12241
SWIDTH 1000 0
DWIDTH 12 0
BBX 11 11 1 -1
BITMAP
0400
FFE0
0840
7F80
5640
A720
2080
3F80
2080
5F80
4080
ENDCHAR
STARTCHAR 2FD2
ENCODING 12242
SWIDTH 1000 0
DWIDTH 12 0
BBX 8 11 2 0
BITMAP
48
4F
48
B7
A5
9B
FF
A5
A5
DB
A5
ENDCHAR
STARTCHAR 2FD3
ENCODING 12243
SWIDTH 1000 0
DWIDTH 12 0
BBX 10 10 1 0
BITMAP
2480
F780
6780
9780
F400
9700
F700
F7C0
9440
97C0
ENDCHAR
STARTCHAR 2FD4
ENCODING 12244
SWIDTH 1000 0
DWIDTH 12 0
BBX 11 11 0 0
BITMAP
0800
3600
3FC0
6640
1F80
3600
7FC0
06C0
FFC0
7620
07E0
ENDCHAR
STARTCHAR 2FD5
ENCODING 12245
SWIDTH 1000 0
DWIDTH 12 0
BBX 9 10 2 0
BITMAP
1800
2600
D980
DB00
0000
FF00
A500
FF00
A500
A500
ENDCHAR
STARTCHAR 2FF0
ENCODING 12272
SWIDTH 1000 0
DWIDTH 12 0
BBX 10 6 1 0
BITMAP
8040
8040
0040
0000
8040
8040
ENDCHAR
STARTCHAR 2FF1
ENCODING 12273
SWIDTH 1000 0
DWIDTH 12 0
BBX 10 6 1 0
BITMAP
8040
8040
8040
4D80
8040
8040
ENDCHAR
STARTCHAR 2FF2
ENCODING 12274
SWIDTH 1000 0
DWIDTH 12 0
BBX 10 6 1 0
BITMAP
9240
9240
0040
0000
9240
9240
ENDCHAR
STARTCHAR 2FF3
ENCODING 12275
SWIDTH 1000 0
DWIDTH 12 0
BBX 10 6 1 0
BITMAP
8040
8040
0000
0000
8040
8040
ENDCHAR
STARTCHAR 2FF4
ENCODING 12276
SWIDTH 1000 0
DWIDTH 12 0
BBX 3 6 8 0
BITMAP
20
20
00
00
20
A0
ENDCHAR
STARTCHAR 2FF5
ENCODING 12277
SWIDTH 1000 0
DWIDTH 12 0
BBX 10 6 1 0
BITMAP
8040
9E40
0000
0000
8040
8040
ENDCHAR
STARTCHAR 2FF6
ENCODING 12278
SWIDTH 1000 0
DWIDTH 12 0
BBX 10 6 1 0
BITMAP
8040
8040
0000
0000
8040
8040
ENDCHAR
STARTCHAR 2FF7
ENCODING 12279
SWIDTH 1000 0
DWIDTH 12 0
BBX 10 6 1 0
BITMAP
8040
8040
0000
0000
8040
9FC0
ENDCHAR
STARTCHAR 2FF8
ENCODING 12280
SWIDTH 1000 0
DWIDTH 12 0
BBX 10 6 1 0
BITMAP
8040
8040
0000
0000
8040
8040
ENDCHAR
STARTCHAR 2FF9
ENCODING 12281
SWIDTH 1000 0
DWIDTH 12 0
BBX 10 6 1 0
BITMAP
8040
E640
0000
0000
8040
8040
ENDCHAR
STARTCHAR 2FFA
ENCODING 12282
SWIDTH 1000 0
DWIDTH 12 0
BBX 7 6 4 0
BITMAP
02
02
02
00
02
FE
ENDCHAR
STARTCHAR 2FFB
ENCODING 12283
SWIDTH 1000 0
DWIDTH 12 0
BBX 4 1 4 1
BITMAP
F0
ENDCHAR
STARTCHAR 3000
ENCODING 12288
SWIDTH 1000 0
DWIDTH 12 0
BBX 0 0 0 0
BITMAP
ENDCHAR
STARTCHAR 3001
ENCODING 12289
SWIDTH 1000 0
DWIDTH 12 0
BBX 2 3 1 -1
BITMAP
80
40
40
ENDCHAR
STARTCHAR 3002
ENCODING 12290
SWIDTH 1000 0
DWIDTH 12 0
BBX 3 3 1 -1
BITMAP
C0
A0
E0
ENDCHAR
STARTCHAR 3003
ENCODING 12291
SWIDTH 1000 0
DWIDTH 12 0
BBX 5 5 3 2
BITMAP
28
48
50
90
A0
ENDCHAR
STARTCHAR 3004
ENCODING 12292
SWIDTH 1000 0
DWIDTH 12 0
BBX 10 11 1 0
BITMAP
1A00
2300
4280
8640
8640
8440
9C40
D040
4880
3880
0700
ENDCHAR
STARTCHAR 3005
ENCODING 12293
SWIDTH 1000 0
DWIDTH 12 0
BBX 7 7 2 2
BITMAP
10
22
3E
44
A8
18
04
ENDCHAR
STARTCHAR 3006
ENCODING 12294
SWIDTH 1000 0
DWIDTH 12 0
BBX 8 9 2 0
BITMAP
01
02
04
38
58
A4
C0
C0
80
ENDCHAR
STARTCHAR 3007
ENCODING 12295
SWIDTH 1000 0
DWIDTH 12 0
BBX 10 9 1 0
BITMAP
3E00
4180
8080
8040
8040
8040
4080
6180
1E00
ENDCHAR
STARTCHAR 3008
ENCODING 12296
SWIDTH 1000 0
DWIDTH 12 0
BBX 5 11 6 -1
BITMAP
08
10
20
20
40
80
40
20
10
10
08
ENDCHAR
STARTCHAR 3009
ENCODING 12297
SWIDTH 1000 0
DWIDTH 12 0
BBX 4 11 1 -1
BITMAP
80
80
40
20
10
10
10
20
40
80
80
ENDCHAR
STARTCHAR 300A
ENCODING 12298
SWIDTH 1000 0
DWIDTH 12 0
BBX 5 11 6 -1
BITMAP
10
28
30
50
A0
A0
60
50
30
28
10
ENDCHAR
STARTCHAR 300B
ENCODING 12299
SWIDTH 1000 0
DWIDTH 12 0
BBX 5 11 1 -1
BITMAP
40
C0
A0
60
30
28
50
60
A0
C0
40
ENDCHAR
STARTCHAR 300C
ENCODING 12300
SWIDTH 1000 0
DWIDTH 12 0
BBX 3 9 8 0
BITMAP
E0
80
80
80
80
80
80
80
80
ENDCHAR
STARTCHAR 300D
ENCODING 12301
SWIDTH 1000 0
DWIDTH 12 0
BBX 3 9 1 0
BITMAP
20
20
20
20
20
20
20
20
E0
ENDCHAR
STARTCHAR 300E
ENCODING 12302
SWIDTH 1000 0
DWIDTH 12 0
BBX 4 9 7 1
BITMAP
F0
F0
C0
C0
C0
C0
C0
C0
C0
ENDCHAR
STARTCHAR 300F
ENCODING 12303
SWIDTH 1000 0
DWIDTH 12 0
BBX 4 9 1 -1
BITMAP
30
30
30
30
30
30
F0
10
F0
ENDCHAR
STARTCHAR 3010
ENCODING 12304
SWIDTH 1000 0
DWIDTH 12 0
BBX 2 11 8 -1
BITMAP
C0
80
80
00
00
00
00
00
80
80
C0
ENDCHAR
STARTCHAR 3011
ENCODING 12305
SWIDTH 1000 0
DWIDTH 12 0
BBX 2 11 2 -1
BITMAP
C0
40
40
40
40
40
40
40
40
40
C0
ENDCHAR
STARTCHAR 3012
ENCODING 12306
SWIDTH 1000 0
DWIDTH 12 0
BBX 8 10 2 -1
BITMAP
FF
00
00
FF
10
10
10
10
10
10
ENDCHAR
STARTCHAR 3013
ENCODING 12307
SWIDTH 1000 0
DWIDTH 12 0
BBX 8 5 2 2
BITMAP
FF
00
00
FF
FF
ENDCHAR
STARTCHAR 3014
ENCODING 12308
SWIDTH 1000 0
DWIDTH 12 0
BBX 3 11 9 0
BITMAP
20
C0
80
80
80
80
80
80
80
80
60
ENDCHAR
STARTCHAR 3015
ENCODING 12309
SWIDTH 1000 0
DWIDTH 12 0
BBX 3 11 1 0
BITMAP
80
60
20
20
20
20
20
20
20
20
C0
ENDCHAR
STARTCHAR 3016
ENCODING 12310
SWIDTH 1000 0
DWIDTH 12 0
BBX 4 11 8 -1
BITMAP
F0
A0
A0
A0
A0
A0
A0
A0
A0
A0
F0
ENDCHAR
STARTCHAR 3017
ENCODING 12311
SWIDTH 1000 0
DWIDTH 12 0
BBX 4 11 0 -1
BITMAP
F0
90
50
50
50
50
50
50
50
90
F0
ENDCHAR
STARTCHAR 3018
ENCODING 12312
SWIDTH 1000 0
DWIDTH 12 0
BBX 3 11 8 0
BITMAP
20
E0
C0
C0
C0
C0
C0
C0
C0
A0
60
ENDCHAR
STARTCHAR 3019
ENCODING 12313
SWIDTH 1000 0
DWIDTH 12 0
BBX 3 11 1 0
BITMAP
80
E0
60
20
20
20
20
20
60
A0
C0
ENDCHAR
STARTCHAR 301C
ENCODING 12316
SWIDTH 1000 0
DWIDTH 12 0
BBX 9 3 1 3
BITMAP
7000
8C80
0300
ENDCHAR
STARTCHAR 301D
ENCODING 12317
SWIDTH 1000 0
DWIDTH 12 0
BBX 2 4 8 5
BITMAP
80
40
80
40
ENDCHAR
STARTCHAR 301F
ENCODING 12319
SWIDTH 1000 0
DWIDTH 12 0
BBX 2 4 2 0
BITMAP
80
40
80
40
ENDCHAR
STARTCHAR 3020
ENCODING 12320
SWIDTH 1000 0
DWIDTH 12 0
BBX 11 8 0 0
BITMAP
7FC0
0000
7FC0
8420
B5A0
8440
4040
2F80
ENDCHAR
STARTCHAR 3033
ENCODING 12339
SWIDTH 1000 0
DWIDTH 12 0
BBX 4 9 3 -1
BITMAP
10
10
30
20
20
40
40
80
80
ENDCHAR
STARTCHAR 3034
ENCODING 12340
SWIDTH 1000 0
DWIDTH 12 0
BBX 7 9 3 -1
BITMAP
10
10
30
20
20
4E
44
80
80
ENDCHAR
STARTCHAR 3035
ENCODING 12341
SWIDTH 1000 0
DWIDTH 12 0
BBX 5 11 3 0
BITMAP
80
80
80
40
20
20
10
10
08
08
08
ENDCHAR
STARTCHAR 3036
ENCODING 12342
SWIDTH 1000 0
DWIDTH 12 0
BBX 11 12 0 -2
BITMAP
1F00
3180
4040
FFE0
8020
BFA0
8420
8420
C460
4440
3180
1F00
ENDCHAR
STARTCHAR 303B
ENCODING 12347
SWIDTH 1000 0
DWIDTH 12 0
BBX 4 7 4 1
BITMAP
40
20
40
40
20
30
C0
ENDCHAR
STARTCHAR 303C
ENCODING 12348
SWIDTH 1000 0
DWIDTH 12 0
BBX 10 11 1 -1
BITMAP
FFC0
80C0
8140
8240
8440
8840
9040
9040
A040
C040
FFC0
ENDCHAR
STARTCHAR 303D
ENCODING 12349
SWIDTH 1000 0
DWIDTH 12 0
BBX 8 10 2 -1
BITMAP
40
A8
34
04
04
02
02
02
01
01
ENDCHAR
STARTCHAR 3041
ENCODING 12353
SWIDTH 1000 0
DWIDTH 12 0
BBX 8 8 2 0
BITMAP
10
78
28
3F
F1
91
F2
04
ENDCHAR
STARTCHAR 3042
ENCODING 12354
SWIDTH 1000 0
DWIDTH 12 0
BBX 10 10 1 0
BITMAP
0800
7600
1800
0F00
3480
5440
8840
90C0
E900
0200
ENDCHAR
STARTCHAR 3043
ENCODING 12355
SWIDTH 1000 0
DWIDTH 12 0
BBX 8 6 2 1
BITMAP
04
82
81
91
60
20
ENDCHAR
STARTCHAR 3044
ENCODING 12356
SWIDTH 1000 0
DWIDTH 12 0
BBX 9 8 2 1
BITMAP
8000
8200
8100
8080
A080
E000
6000
2000
ENDCHAR
STARTCHAR 3045
ENCODING 12357
SWIDTH 1000 0
DWIDTH 12 0
BBX 5 8 3 0
BITMAP
38
20
F8
08
08
08
10
60
ENDCHAR
STARTCHAR 3046
ENCODING 12358
SWIDTH 1000 0
DWIDTH 12 0
BBX 6 11 3 -1
BITMAP
40
38
00
38
C4
04
04
04
08
10
20
ENDCHAR
STARTCHAR 3047
ENCODING 12359
SWIDTH 1000 0
DWIDTH 12 0
BBX 7 7 3 1
BITMAP
38
00
F8
10
30
50
92
ENDCHAR
STARTCHAR 3048
ENCODING 12360
SWIDTH 1000 0
DWIDTH 12 0
BBX 9 9 2 1
BITMAP
1C00
0000
0C00
7800
1000
3800
6400
C400
8780
ENDCHAR
STARTCHAR 3049
ENCODING 12361
SWIDTH 1000 0
DWIDTH 12 0
BBX 8 7 2 1
BITMAP
20
7B
21
3C
22
E2
6C
ENDCHAR
STARTCHAR 304A
ENCODING 12362
SWIDTH 1000 0
DWIDTH 12 0
BBX 9 9 2 1
BITMAP
2000
2300
F080
4000
5E00
6100
C100
C100
4E00
ENDCHAR
STARTCHAR 304B
ENCODING 12363
SWIDTH 1000 0
DWIDTH 12 0
BBX 10 9 1 1
BITMAP
1000
1000
1C80
E480
2440
24C0
4400
4400
4800
ENDCHAR
STARTCHAR 304C
ENCODING 12364
SWIDTH 1000 0
DWIDTH 12 0
BBX 11 10 1 1
BITMAP
0040
10E0
1000
1C80
E480
2440
44C0
4400
4400
8800
ENDCHAR
STARTCHAR 304D
ENCODING 12365
SWIDTH 1000 0
DWIDTH 12 0
BBX 8 10 2 0
BITMAP
30
12
7C
09
FE
04
02
7E
40
3E
ENDCHAR
STARTCHAR 304E
ENCODING 12366
SWIDTH 1000 0
DWIDTH 12 0
BBX 10 10 2 1
BITMAP
20C0
1180
FC00
1100
FE00
0400
0400
7E00
8000
7C00
ENDCHAR
STARTCHAR 304F
ENCODING 12367
SWIDTH 1000 0
DWIDTH 12 0
BBX 5 9 3 0
BITMAP
08
10
20
C0
80
40
20
10
08
ENDCHAR
STARTCHAR 3050
ENCODING 12368
SWIDTH 1000 0
DWIDTH 12 0
BBX 8 10 3 0
BITMAP
08
12
25
44
80
40
20
10
08
08
ENDCHAR
STARTCHAR 3051
ENCODING 12369
SWIDTH 1000 0
DWIDTH 12 0
BBX 9 11 2 -1
BITMAP
0600
8200
8200
9F80
8200
8200
8200
8200
8400
8400
0800
ENDCHAR
STARTCHAR 3052
ENCODING 12370
SWIDTH 1000 0
DWIDTH 12 0
BBX 10 11 2 0
BITMAP
05C0
8280
8200
9F80
8200
8200
C200
8200
8400
8400
0800
ENDCHAR
STARTCHAR 3053
ENCODING 12371
SWIDTH 1000 0
DWIDTH 12 0
BBX 8 8 2 1
BITMAP
40
3E
10
00
00
00
80
7F
ENDCHAR
STARTCHAR 3054
ENCODING 12372
SWIDTH 1000 0
DWIDTH 12 0
BBX 10 10 2 1
BITMAP
0080
4140
3E00
1000
0000
0000
0000
8000
4100
3F00
ENDCHAR
STARTCHAR 3055
ENCODING 12373
SWIDTH 1000 0
DWIDTH 12 0
BBX 8 9 2 1
BITMAP
10
13
FC
04
04
3E
40
40
3E
ENDCHAR
STARTCHAR 3056
ENCODING 12374
SWIDTH 1000 0
DWIDTH 12 0
BBX 10 10 2 1
BITMAP
00C0
1180
1200
FC00
0800
0400
7E00
8000
8000
7C00
ENDCHAR
STARTCHAR 3057
ENCODING 12375
SWIDTH 1000 0
DWIDTH 12 0
BBX 7 9 3 1
BITMAP
80
80
80
80
80
82
82
84
78
ENDCHAR
STARTCHAR 3058
ENCODING 12376
SWIDTH 1000 0
DWIDTH 12 0
BBX 7 9 3 1
BITMAP
80
84
88
80
80
82
82
84
78
ENDCHAR
STARTCHAR 3059
ENCODING 12377
SWIDTH 1000 0
DWIDTH 12 0
BBX 10 10 1 -1
BITMAP
0C00
0400
07C0
FC00
0C00
1400
1400
1C00
0400
0800
ENDCHAR
STARTCHAR 305A
ENCODING 12378
SWIDTH 1000 0
DWIDTH 12 0
BBX 11 10 1 0
BITMAP
0C60
0480
07C0
FC00
0C00
1400
1400
1C00
0400
0800
ENDCHAR
STARTCHAR 305B
ENCODING 12379
SWIDTH 1000 0
DWIDTH 12 0
BBX 10 9 1 1
BITMAP
0100
2100
2240
FF80
2200
2200
2200
2000
1F80
ENDCHAR
STARTCHAR 305C
ENCODING 12380
SWIDTH 1000 0
DWIDTH 12 0
BBX 12 10 0 1
BITMAP
0030
00E0
1100
1160
FF80
1100
1300
1100
1000
0FC0
ENDCHAR
STARTCHAR 305D
ENCODING 12381
SWIDTH 1000 0
DWIDTH 12 0
BBX 10 9 1 0
BITMAP
3E00
0400
0800
13C0
FC00
0800
0800
0800
0400
ENDCHAR
STARTCHAR 305E
ENCODING 12382
SWIDTH 1000 0
DWIDTH 12 0
BBX 11 10 1 0
BITMAP
0040
3EA0
0480
0800
1380
FC00
0800
0800
0800
0400
ENDCHAR
STARTCHAR 305F
ENCODING 12383
SWIDTH 1000 0
DWIDTH 12 0
BBX 9 10 2 0
BITMAP
2000
1000
2800
F000
4700
4C00
4000
8000
9000
0F80
ENDCHAR
STARTCHAR 3060
ENCODING 12384
SWIDTH 1000 0
DWIDTH 12 0
BBX 9 9 2 1
BITMAP
1080
2100
F800
4700
4C00
4000
8000
9000
0F80
ENDCHAR
STARTCHAR 3061
ENCODING 12385
SWIDTH 1000 0
DWIDTH 12 0
BBX 8 10 2 0
BITMAP
20
2C
F0
40
5E
61
41
02
04
08
ENDCHAR
STARTCHAR 3062
ENCODING 12386
SWIDTH 1000 0
DWIDTH 12 0
BBX 9 11 2 -1
BITMAP
0100
2280
2500
F800
4000
4000
5E00
6100
0100
0600
0800
ENDCHAR
STARTCHAR 3063
ENCODING 12387
SWIDTH 1000 0
DWIDTH 12 0
BBX 8 5 2 -1
BITMAP
3E
C1
01
02
0C
ENDCHAR
STARTCHAR 3064
ENCODING 12388
SWIDTH 1000 0
DWIDTH 12 0
BBX 10 8 1 0
BITMAP
0F00
3080
C040
0040
0040
0080
0700
0800
ENDCHAR
STARTCHAR 3065
ENCODING 12389
SWIDTH 1000 0
DWIDTH 12 0
BBX 11 10 1 0
BITMAP
0040
00A0
0040
1F80
E0C0
0040
0040
0080
0300
0C00
ENDCHAR
STARTCHAR 3066
ENCODING 12390
SWIDTH 1000 0
DWIDTH 12 0
BBX 9 9 1 0
BITMAP
0380
9E00
E400
0800
0800
0800
0800
0C00
0700
ENDCHAR
STARTCHAR 3067
ENCODING 12391
SWIDTH 1000 0
DWIDTH 12 0
BBX 10 9 1 0
BITMAP
0380
1C00
E480
0940
0880
0800
0800
0800
0700
ENDCHAR
STARTCHAR 3068
ENCODING 12392
SWIDTH 1000 0
DWIDTH 12 0
BBX 7 9 3 1
BITMAP
40
40
44
58
60
40
80
80
7E
ENDCHAR
STARTCHAR 3069
ENCODING 12393
SWIDTH 1000 0
DWIDTH 12 0
BBX 9 9 2 1
BITMAP
2280
2100
2200
2C00
3000
4000
8000
8000
7F00
ENDCHAR
STARTCHAR 306A
ENCODING 12394
SWIDTH 1000 0
DWIDTH 12 0
BBX 10 9 1 1
BITMAP
1000
1C00
6180
2040
4200
4200
8200
1F80
1E40
ENDCHAR
STARTCHAR 306B
ENCODING 12395
SWIDTH 1000 0
DWIDTH 12 0
BBX 8 9 2 0
BITMAP
80
9F
88
80
80
C0
90
8F
80
ENDCHAR
STARTCHAR 306C
ENCODING 12396
SWIDTH 1000 0
DWIDTH 12 0
BBX 10 9 1 1
BITMAP
0400
4400
5B00
2880
6840
B040
9740
A4C0
C740
ENDCHAR
STARTCHAR 306D
ENCODING 12397
SWIDTH 1000 0
DWIDTH 12 0
BBX 10 9 1 1
BITMAP
1000
2000
F700
2880
3080
6080
A780
E4C0
2740
ENDCHAR
STARTCHAR 306E
ENCODING 12398
SWIDTH 1000 0
DWIDTH 12 0
BBX 10 8 1 0
BITMAP
3F00
4880
8840
9040
9040
90C0
6180
0600
ENDCHAR
STARTCHAR 306F
ENCODING 12399
SWIDTH 1000 0
DWIDTH 12 0
BBX 9 9 2 1
BITMAP
8200
8200
9F80
8400
8200
C200
9E00
9380
9C00
ENDCHAR
STARTCHAR 3070
ENCODING 12400
SWIDTH 1000 0
DWIDTH 12 0
BBX 10 10 2 0
BITMAP
00C0
8580
8400
BD00
8600
8400
8400
9C00
9700
9C80
ENDCHAR
STARTCHAR 3071
ENCODING 12401
SWIDTH 1000 0
DWIDTH 12 0
BBX 10 10 2 0
BITMAP
01C0
87C0
8400
9B80
8400
8400
8400
9C00
9780
9C00
ENDCHAR
STARTCHAR 3072
ENCODING 12402
SWIDTH 1000 0
DWIDTH 12 0
BBX 10 9 1 0
BITMAP
1A00
F200
2300
2180
4140
4100
4100
6200
3C00
ENDCHAR
STARTCHAR 3073
ENCODING 12403
SWIDTH 1000 0
DWIDTH 12 0
BBX 11 10 1 1
BITMAP
0060
1AC0
F200
2300
4180
4140
4100
4100
6200
3C00
ENDCHAR
STARTCHAR 3074
ENCODING 12404
SWIDTH 1000 0
DWIDTH 12 0
BBX 11 10 1 0
BITMAP
00E0
1AE0
F200
2300
4180
4140
4100
4100
6200
3C00
ENDCHAR
STARTCHAR 3075
ENCODING 12405
SWIDTH 1000 0
DWIDTH 12 0
BBX 10 9 1 1
BITMAP
1000
0E00
0C00
0800
0900
0480
6240
8240
1E00
ENDCHAR
STARTCHAR 3076
ENCODING 12406
SWIDTH 1000 0
DWIDTH 12 0
BBX 11 9 1 1
BITMAP
1060
0E80
0C00
0800
0900
0480
6240
8240
1E00
ENDCHAR
STARTCHAR 3077
ENCODING 12407
SWIDTH 1000 0
DWIDTH 12 0
BBX 10 9 1 1
BITMAP
10C0
0EC0
0C00
0800
0900
0480
6240
8240
1E00
ENDCHAR
STARTCHAR 3078
ENCODING 12408
SWIDTH 1000 0
DWIDTH 12 0
BBX 10 5 1 2
BITMAP
1800
2400
4200
C180
0040
ENDCHAR
STARTCHAR 3079
ENCODING 12409
SWIDTH 1000 0
DWIDTH 12 0
BBX 10 7 1 2
BITMAP
0280
1900
2400
6200
C100
0080
0040
ENDCHAR
STARTCHAR 307A
ENCODING 12410
SWIDTH 1000 0
DWIDTH 12 0
BBX 10 7 1 2
BITMAP
0180
0180
1980
2400
4200
C180
00C0
ENDCHAR
STARTCHAR 307B
ENCODING 12411
SWIDTH 1000 0
DWIDTH 12 0
BBX 9 9 2 1
BITMAP
9F00
8400
8400
9F80
8400
C400
9C00
9380
9C00
ENDCHAR
STARTCHAR 307C
ENCODING 12412
SWIDTH 1000 0
DWIDTH 12 0
BBX 11 10 1 1
BITMAP
00E0
4040
4E00
4200
9EC0
8300
8200
DE00
D380
4E40
ENDCHAR
STARTCHAR 307D
ENCODING 12413
SWIDTH 1000 0
DWIDTH 12 0
BBX 11 10 1 0
BITMAP
0060
4060
4E00
4200
9DC0
8200
8200
DE00
D380
4E40
ENDCHAR
STARTCHAR 307E
ENCODING 12414
SWIDTH 1000 0
DWIDTH 12 0
BBX 8 9 2 1
BITMAP
08
F3
1C
10
7C
10
10
FE
F1
ENDCHAR
STARTCHAR 307F
ENCODING 12415
SWIDTH 1000 0
DWIDTH 12 0
BBX 10 9 1 -1
BITMAP
3C00
0400
0800
0880
3C80
D300
A1C0
C240
0400
ENDCHAR
STARTCHAR 3080
ENCODING 12416
SWIDTH 1000 0
DWIDTH 12 0
BBX 10 10 1 0
BITMAP
3000
1000
ED00
3080
2040
60C0
A100
E100
2080
3F00
ENDCHAR
STARTCHAR 3081
ENCODING 12417
SWIDTH 1000 0
DWIDTH 12 0
BBX 10 9 1 0
BITMAP
0400
4400
5F00
2880
6840
B040
9840
E080
0300
ENDCHAR
STARTCHAR 3082
ENCODING 12418
SWIDTH 1000 0
DWIDTH 12 0
BBX 8 10 2 0
BITMAP
20
10
20
F8
20
20
F1
21
23
1E
ENDCHAR
STARTCHAR 3083
ENCODING 12419
SWIDTH 1000 0
DWIDTH 12 0
BBX 8 8 2 0
BITMAP
10
48
2F
31
E7
10
18
08
ENDCHAR
STARTCHAR 3084
ENCODING 12420
SWIDTH 1000 0
DWIDTH 12 0
BBX 10 10 1 0
BITMAP
6C00
2000
2780
3840
D040
1380
0800
0800
0400
0400
ENDCHAR
STARTCHAR 3085
ENCODING 12421
SWIDTH 1000 0
DWIDTH 12 0
BBX 8 8 2 -1
BITMAP
08
48
5E
A9
C9
C9
5E
10
ENDCHAR
STARTCHAR 3086
ENCODING 12422
SWIDTH 1000 0
DWIDTH 12 0
BBX 9 10 2 -1
BITMAP
0800
0800
8F00
B980
C880
C880
8880
9900
8E00
1000
ENDCHAR
STARTCHAR 3087
ENCODING 12423
SWIDTH 1000 0
DWIDTH 12 0
BBX 6 6 3 2
BITMAP
20
38
20
20
F8
E4
ENDCHAR
STARTCHAR 3088
ENCODING 12424
SWIDTH 1000 0
DWIDTH 12 0
BBX 8 8 2 2
BITMAP
10
16
18
10
10
70
9E
71
ENDCHAR
STARTCHAR 3089
ENCODING 12425
SWIDTH 1000 0
DWIDTH 12 0
BBX 7 11 3 -1
BITMAP
40
20
18
80
80
9C
A2
C2
06
0C
30
ENDCHAR
STARTCHAR 308A
ENCODING 12426
SWIDTH 1000 0
DWIDTH 12 0
BBX 6 10 3 0
BITMAP
40
58
E4
84
84
84
04
08
10
20
ENDCHAR
STARTCHAR 308B
ENCODING 12427
SWIDTH 1000 0
DWIDTH 12 0
BBX 8 9 2 1
BITMAP
7C
08
10
20
3E
63
81
39
2E
ENDCHAR
STARTCHAR 308C
ENCODING 12428
SWIDTH 1000 0
DWIDTH 12 0
BBX 11 9 1 1
BITMAP
1000
2300
FD00
3100
2100
6120
A140
E1C0
2000
ENDCHAR
STARTCHAR 308D
ENCODING 12429
SWIDTH 1000 0
DWIDTH 12 0
BBX 8 10 2 -1
BITMAP
0C
78
10
20
5E
E1
81
01
06
18
ENDCHAR
STARTCHAR 308E
ENCODING 12430
SWIDTH 1000 0
DWIDTH 12 0
BBX 8 7 2 1
BITMAP
20
20
EE
31
61
E1
2E
ENDCHAR
STARTCHAR 308F
ENCODING 12431
SWIDTH 1000 0
DWIDTH 12 0
BBX 10 9 1 1
BITMAP
1000
1000
F780
28C0
3040
6040
6040
E180
2600
ENDCHAR
STARTCHAR 3090
ENCODING 12432
SWIDTH 1000 0
DWIDTH 12 0
BBX 10 9 1 0
BITMAP
3C00
0400
0800
0F00
3880
5040
9040
A640
C780
ENDCHAR
STARTCHAR 3091
ENCODING 12433
SWIDTH 1000 0
DWIDTH 12 0
BBX 10 9 1 0
BITMAP
3E00
0C00
1E00
2100
5D00
1E00
1000
7380
CC40
ENDCHAR
STARTCHAR 3092
ENCODING 12434
SWIDTH 1000 0
DWIDTH 12 0
BBX 8 9 2 1
BITMAP
10
EC
30
71
4E
98
28
28
3F
ENDCHAR
STARTCHAR 3093
ENCODING 12435
SWIDTH 1000 0
DWIDTH 12 0
BBX 10 9 1 1
BITMAP
0800
0800
1000
1000
2000
3840
4440
4480
8700
ENDCHAR
STARTCHAR 3094
ENCODING 12436
SWIDTH 1000 0
DWIDTH 12 0
BBX 9 10 2 0
BITMAP
1E80
2100
1C00
E200
0200
0200
0200
0400
0800
1000
ENDCHAR
STARTCHAR 3095
ENCODING 12437
SWIDTH 1000 0
DWIDTH 12 0
BBX 8 7 2 1
BITMAP
10
20
FB
49
49
88
90
ENDCHAR
STARTCHAR 3096
ENCODING 12438
SWIDTH 1000 0
DWIDTH 12 0
BBX 7 8 3 -1
BITMAP
08
88
8A
BC
88
88
88
90
ENDCHAR
STARTCHAR 3099
ENCODING 12441
SWIDTH 1000 0
DWIDTH 12 0
BBX 2 2 9 9
BITMAP
40
C0
ENDCHAR
STARTCHAR 309A
ENCODING 12442
SWIDTH 1000 0
DWIDTH 12 0
BBX 2 2 9 8
BITMAP
C0
C0
ENDCHAR
STARTCHAR 309B
ENCODING 12443
SWIDTH 1000 0
DWIDTH 12 0
BBX 2 2 1 9
BITMAP
40
C0
ENDCHAR
STARTCHAR 309C
ENCODING 12444
SWIDTH 1000 0
DWIDTH 12 0
BBX 2 2 1 8
BITMAP
C0
C0
ENDCHAR
STARTCHAR 309D
ENCODING 12445
SWIDTH 1000 0
DWIDTH 12 0
BBX 4 6 4 2
BITMAP
80
80
40
20
10
70
ENDCHAR
STARTCHAR 309E
ENCODING 12446
SWIDTH 1000 0
DWIDTH 12 0
BBX 6 7 4 2
BITMAP
0C
90
80
60
10
30
C0
ENDCHAR
STARTCHAR 309F
ENCODING 12447
SWIDTH 1000 0
DWIDTH 12 0
BBX 8 10 2 0
BITMAP
08
1F
20
20
5C
64
84
44
48
30
ENDCHAR
STARTCHAR 30A0
ENCODING 12448
SWIDTH 1000 0
DWIDTH 12 0
BBX 6 3 3 3
BITMAP
FC
00
FC
ENDCHAR
STARTCHAR 30A1
ENCODING 12449
SWIDTH 1000 0
DWIDTH 12 0
BBX 7 7 3 -1
BITMAP
CE
34
38
20
20
20
40
ENDCHAR
STARTCHAR 30A2
ENCODING 12450
SWIDTH 1000 0
DWIDTH 12 0
BBX 8 9 2 -1
BITMAP
03
FE
04
08
08
10
10
20
20
ENDCHAR
STARTCHAR 30A3
ENCODING 12451
SWIDTH 1000 0
DWIDTH 12 0
BBX 6 7 3 1
BITMAP
04
08
30
D0
10
10
10
ENDCHAR
STARTCHAR 30A4
ENCODING 12452
SWIDTH 1000 0
DWIDTH 12 0
BBX 7 9 3 1
BITMAP
02
04
18
30
D0
10
10
10
10
ENDCHAR
STARTCHAR 30A5
ENCODING 12453
SWIDTH 1000 0
DWIDTH 12 0
BBX 6 7 3 0
BITMAP
20
FC
84
88
08
10
20
ENDCHAR
STARTCHAR 30A6
ENCODING 12454
SWIDTH 1000 0
DWIDTH 12 0
BBX 8 9 2 0
BITMAP
10
93
6D
42
42
02
04
08
10
ENDCHAR
STARTCHAR 30A7
ENCODING 12455
SWIDTH 1000 0
DWIDTH 12 0
BBX 8 5 2 0
BITMAP
7E
10
10
10
FF
ENDCHAR
STARTCHAR 30A8
ENCODING 12456
SWIDTH 1000 0
DWIDTH 12 0
BBX 10 7 1 1
BITMAP
4180
3E00
0800
0800
0800
8BC0
7400
ENDCHAR
STARTCHAR 30A9
ENCODING 12457
SWIDTH 1000 0
DWIDTH 12 0
BBX 8 7 2 0
BITMAP
08
0B
7C
18
28
48
88
ENDCHAR
STARTCHAR 30AA
ENCODING 12458
SWIDTH 1000 0
DWIDTH 12 0
BBX 9 9 2 1
BITMAP
0400
0400
FF80
0C00
1400
2400
4400
9400
0C00
ENDCHAR
STARTCHAR 30AB
ENCODING 12459
SWIDTH 1000 0
DWIDTH 12 0
BBX 8 9 2 1
BITMAP
08
08
FF
11
11
22
22
4A
84
ENDCHAR
STARTCHAR 30AC
ENCODING 12460
SWIDTH 1000 0
DWIDTH 12 0
BBX 10 10 2 0
BITMAP
00C0
0980
0800
EF00
1100
1100
2200
2200
4A00
8400
ENDCHAR
STARTCHAR 30AD
ENCODING 12461
SWIDTH 1000 0
DWIDTH 12 0
BBX 9 9 2 1
BITMAP
1000
1200
FC00
1000
1380
EC00
0800
0400
0400
ENDCHAR
STARTCHAR 30AE
ENCODING 12462
SWIDTH 1000 0
DWIDTH 12 0
BBX 9 10 2 1
BITMAP
0080
1100
1200
FC00
1000
1380
EC00
0800
0800
0800
ENDCHAR
STARTCHAR 30AF
ENCODING 12463
SWIDTH 1000 0
DWIDTH 12 0
BBX 8 9 2 0
BITMAP
08
17
2A
42
84
04
08
10
60
ENDCHAR
STARTCHAR 30B0
ENCODING 12464
SWIDTH 1000 0
DWIDTH 12 0
BBX 10 10 2 0
BITMAP
00C0
1180
1300
2E00
4200
8400
0400
0800
1000
6000
ENDCHAR
STARTCHAR 30B1
ENCODING 12465
SWIDTH 1000 0
DWIDTH 12 0
BBX 10 9 1 0
BITMAP
1000
1000
3FC0
4400
8400
0400
0400
0800
1000
ENDCHAR
STARTCHAR 30B2
ENCODING 12466
SWIDTH 1000 0
DWIDTH 12 0
BBX 11 10 1 0
BITMAP
0060
10C0
1000
3FC0
4400
8400
0400
0800
0800
1000
ENDCHAR
STARTCHAR 30B3
ENCODING 12467
SWIDTH 1000 0
DWIDTH 12 0
BBX 8 7 2 1
BITMAP
82
7D
02
02
02
82
7C
ENDCHAR
STARTCHAR 30B4
ENCODING 12468
SWIDTH 1000 0
DWIDTH 12 0
BBX 9 9 3 2
BITMAP
0100
0280
0500
FE00
0400
0400
0400
0400
FC00
ENDCHAR
STARTCHAR 30B5
ENCODING 12469
SWIDTH 1000 0
DWIDTH 12 0
BBX 9 9 2 0
BITMAP
2200
2200
2380
FE00
2200
2400
0400
0800
1000
ENDCHAR
STARTCHAR 30B6
ENCODING 12470
SWIDTH 1000 0
DWIDTH 12 0
BBX 10 10 2 0
BITMAP
0040
2280
2200
2380
FE00
2200
2400
0400
0400
1800
ENDCHAR
STARTCHAR 30B7
ENCODING 12471
SWIDTH 1000 0
DWIDTH 12 0
BBX 9 9 2 0
BITMAP
6000
1000
0080
C100
4200
0200
0C00
9000
6000
ENDCHAR
STARTCHAR 30B8
ENCODING 12472
SWIDTH 1000 0
DWIDTH 12 0
BBX 9 9 2 1
BITMAP
4280
3100
0080
C100
4200
0200
0C00
1000
6000
ENDCHAR
STARTCHAR 30B9
ENCODING 12473
SWIDTH 1000 0
DWIDTH 12 0
BBX 8 7 2 1
BITMAP
7E
04
04
08
14
23
C1
ENDCHAR
STARTCHAR 30BA
ENCODING 12474
SWIDTH 1000 0
DWIDTH 12 0
BBX 10 10 1 1
BITMAP
0040
0080
3F00
0200
0200
0400
0A00
1180
2080
C000
ENDCHAR
STARTCHAR 30BB
ENCODING 12475
SWIDTH 1000 0
DWIDTH 12 0
BBX 9 8 1 1
BITMAP
1000
1000
1180
1F00
F200
1000
1000
0E00
ENDCHAR
STARTCHAR 30BC
ENCODING 12476
SWIDTH 1000 0
DWIDTH 12 0
BBX 11 10 1 1
BITMAP
0040
10A0
1000
1180
1F00
F200
1000
1000
1000
0F80
ENDCHAR
STARTCHAR 30BD
ENCODING 12477
SWIDTH 1000 0
DWIDTH 12 0
BBX 8 9 2 -1
BITMAP
01
C1
22
22
04
04
08
10
20
ENDCHAR
STARTCHAR 30BE
ENCODING 12478
SWIDTH 1000 0
DWIDTH 12 0
BBX 10 10 2 0
BITMAP
01C0
0080
8100
4100
4200
0200
0400
0800
1000
2000
ENDCHAR
STARTCHAR 30BF
ENCODING 12479
SWIDTH 1000 0
DWIDTH 12 0
BBX 8 9 2 0
BITMAP
10
1F
22
42
8C
04
1A
20
40
ENDCHAR
STARTCHAR 30C0
ENCODING 12480
SWIDTH 1000 0
DWIDTH 12 0
BBX 10 10 2 0
BITMAP
00C0
1180
1F00
2200
4200
9400
0C00
1A00
2200
4000
ENDCHAR
STARTCHAR 30C1
ENCODING 12481
SWIDTH 1000 0
DWIDTH 12 0
BBX 10 9 1 0
BITMAP
0300
1C00
2400
85C0
7E00
0800
0800
1000
2000
ENDCHAR
STARTCHAR 30C2
ENCODING 12482
SWIDTH 1000 0
DWIDTH 12 0
BBX 10 10 2 0
BITMAP
00C0
0380
3C00
4800
0980
FE00
1000
1000
1000
2000
ENDCHAR
STARTCHAR 30C3
ENCODING 12483
SWIDTH 1000 0
DWIDTH 12 0
BBX 6 8 3 -1
BITMAP
04
24
A4
08
08
10
20
40
ENDCHAR
STARTCHAR 30C4
ENCODING 12484
SWIDTH 1000 0
DWIDTH 12 0
BBX 8 8 2 0
BITMAP
91
51
42
02
04
08
10
20
ENDCHAR
STARTCHAR 30C5
ENCODING 12485
SWIDTH 1000 0
DWIDTH 12 0
BBX 10 10 2 0
BITMAP
01C0
0080
2100
D100
5200
0200
0400
0800
1000
2000
ENDCHAR
STARTCHAR 30C6
ENCODING 12486
SWIDTH 1000 0
DWIDTH 12 0
BBX 9 9 2 -1
BITMAP
7E00
0000
0000
FF80
0800
0800
1000
1000
2000
ENDCHAR
STARTCHAR 30C7
ENCODING 12487
SWIDTH 1000 0
DWIDTH 12 0
BBX 11 10 1 0
BITMAP
0060
03C0
3C00
0000
FFC0
0400
0800
0800
0800
1000
ENDCHAR
STARTCHAR 30C8
ENCODING 12488
SWIDTH 1000 0
DWIDTH 12 0
BBX 5 9 4 1
BITMAP
40
80
80
60
90
48
40
40
40
ENDCHAR
STARTCHAR 30C9
ENCODING 12489
SWIDTH 1000 0
DWIDTH 12 0
BBX 6 9 4 1
BITMAP
04
88
80
40
B0
88
80
80
80
ENDCHAR
STARTCHAR 30CA
ENCODING 12490
SWIDTH 1000 0
DWIDTH 12 0
BBX 8 9 2 0
BITMAP
08
08
08
FF
08
10
10
20
40
ENDCHAR
STARTCHAR 30CB
ENCODING 12491
SWIDTH 1000 0
DWIDTH 12 0
BBX 10 5 1 3
BITMAP
3F00
0000
0000
0000
FFC0
ENDCHAR
STARTCHAR 30CC
ENCODING 12492
SWIDTH 1000 0
DWIDTH 12 0
BBX 7 9 2 0
BITMAP
02
7E
04
24
18
0C
12
20
C0
ENDCHAR
STARTCHAR 30CD
ENCODING 12493
SWIDTH 1000 0
DWIDTH 12 0
BBX 9 11 1 -1
BITMAP
0800
0400
0000
3F00
0200
0400
1F00
2480
C400
0400
0400
ENDCHAR
STARTCHAR 30CE
ENCODING 12494
SWIDTH 1000 0
DWIDTH 12 0
BBX 7 9 2 0
BITMAP
04
02
04
04
08
08
10
60
80
ENDCHAR
STARTCHAR 30CF
ENCODING 12495
SWIDTH 1000 0
DWIDTH 12 0
BBX 10 6 1 2
BITMAP
1200
1100
2080
4040
4040
8000
ENDCHAR
STARTCHAR 30D0
ENCODING 12496
SWIDTH 1000 0
DWIDTH 12 0
BBX 11 8 0 2
BITMAP
0020
00E0
0900
0880
1040
1020
2020
C000
ENDCHAR
STARTCHAR 30D1
ENCODING 12497
SWIDTH 1000 0
DWIDTH 12 0
BBX 11 8 0 1
BITMAP
0060
0060
0900
0880
1040
1020
2020
C000
ENDCHAR
STARTCHAR 30D2
ENCODING 12498
SWIDTH 1000 0
DWIDTH 12 0
BBX 8 9 2 0
BITMAP
80
40
42
4C
70
40
40
40
3F
ENDCHAR
STARTCHAR 30D3
ENCODING 12499
SWIDTH 1000 0
DWIDTH 12 0
BBX 9 9 2 1
BITMAP
8280
4100
4200
4C00
7000
4000
4000
4000
3F00
ENDCHAR
STARTCHAR 30D4
ENCODING 12500
SWIDTH 1000 0
DWIDTH 12 0
BBX 9 10 2 0
BITMAP
0180
8180
4180
4200
4C00
7000
4000
4000
4000
3F00
ENDCHAR
STARTCHAR 30D5
ENCODING 12501
SWIDTH 1000 0
DWIDTH 12 0
BBX 8 8 2 1
BITMAP
FF
01
02
02
04
08
10
60
ENDCHAR
STARTCHAR 30D6
ENCODING 12502
SWIDTH 1000 0
DWIDTH 12 0
BBX 10 10 2 0
BITMAP
00C0
0180
FF00
0300
0200
0200
0400
0800
1000
6000
ENDCHAR
STARTCHAR 30D7
ENCODING 12503
SWIDTH 1000 0
DWIDTH 12 0
BBX 10 10 2 -1
BITMAP
00C0
00C0
FF00
0100
0200
0200
0400
0800
1000
2000
ENDCHAR
STARTCHAR 30D8
ENCODING 12504
SWIDTH 1000 0
DWIDTH 12 0
BBX 10 5 1 2
BITMAP
1800
2400
6200
C180
0040
ENDCHAR
STARTCHAR 30D9
ENCODING 12505
SWIDTH 1000 0
DWIDTH 12 0
BBX 10 7 1 2
BITMAP
0080
0040
1900
2400
6200
C180
0040
ENDCHAR
STARTCHAR 30DA
ENCODING 12506
SWIDTH 1000 0
DWIDTH 12 0
BBX 10 7 1 2
BITMAP
0180
0180
1980
2400
6200
C180
0040
ENDCHAR
STARTCHAR 30DB
ENCODING 12507
SWIDTH 1000 0
DWIDTH 12 0
BBX 9 9 2 1
BITMAP
1800
0800
F700
1800
1200
4900
8880
A880
1800
ENDCHAR
STARTCHAR 30DC
ENCODING 12508
SWIDTH 1000 0
DWIDTH 12 0
BBX 10 10 2 0
BITMAP
0080
1940
0900
1700
F800
1200
4900
8880
A880
1800
ENDCHAR
STARTCHAR 30DD
ENCODING 12509
SWIDTH 1000 0
DWIDTH 12 0
BBX 9 10 2 0
BITMAP
0180
1980
0980
1700
F800
1200
4900
8880
A880
1800
ENDCHAR
STARTCHAR 30DE
ENCODING 12510
SWIDTH 1000 0
DWIDTH 12 0
BBX 9 7 2 1
BITMAP
0180
FF00
0200
0400
3800
0800
0400
ENDCHAR
STARTCHAR 30DF
ENCODING 12511
SWIDTH 1000 0
DWIDTH 12 0
BBX 6 9 3 0
BITMAP
60
18
00
70
08
00
E0
18
04
ENDCHAR
STARTCHAR 30E0
ENCODING 12512
SWIDTH 1000 0
DWIDTH 12 0
BBX 9 9 1 1
BITMAP
0800
0800
1000
1000
1200
2100
2100
FE80
0080
ENDCHAR
STARTCHAR 30E1
ENCODING 12513
SWIDTH 1000 0
DWIDTH 12 0
BBX 7 9 2 1
BITMAP
02
02
04
34
08
16
22
40
80
ENDCHAR
STARTCHAR 30E2
ENCODING 12514
SWIDTH 1000 0
DWIDTH 12 0
BBX 9 8 1 0
BITMAP
7F00
1000
1000
FF80
1000
1000
0800
0F80
ENDCHAR
STARTCHAR 30E3
ENCODING 12515
SWIDTH 1000 0
DWIDTH 12 0
BBX 8 8 2 0
BITMAP
20
23
FE
14
10
10
08
08
ENDCHAR
STARTCHAR 30E4
ENCODING 12516
SWIDTH 1000 0
DWIDTH 12 0
BBX 9 9 2 1
BITMAP
2000
2000
2F80
F100
1200
1000
1000
0800
0800
ENDCHAR
STARTCHAR 30E5
ENCODING 12517
SWIDTH 1000 0
DWIDTH 12 0
BBX 8 5 2 2
BITMAP
7C
04
04
04
FF
ENDCHAR
STARTCHAR 30E6
ENCODING 12518
SWIDTH 1000 0
DWIDTH 12 0
BBX 9 7 2 1
BITMAP
0600
7A00
0400
0400
0400
0780
F800
ENDCHAR
STARTCHAR 30E7
ENCODING 12519
SWIDTH 1000 0
DWIDTH 12 0
BBX 5 6 4 1
BITMAP
F8
08
F0
10
10
E8
ENDCHAR
STARTCHAR 30E8
ENCODING 12520
SWIDTH 1000 0
DWIDTH 12 0
BBX 7 7 3 2
BITMAP
FE
04
04
FC
04
04
FC
ENDCHAR
STARTCHAR 30E9
ENCODING 12521
SWIDTH 1000 0
DWIDTH 12 0
BBX 8 9 2 -1
BITMAP
7E
00
03
FD
02
04
04
08
30
ENDCHAR
STARTCHAR 30EA
ENCODING 12522
SWIDTH 1000 0
DWIDTH 12 0
BBX 6 9 3 0
BITMAP
8C
44
84
84
84
0C
08
18
20
ENDCHAR
STARTCHAR 30EB
ENCODING 12523
SWIDTH 1000 0
DWIDTH 12 0
BBX 10 9 1 0
BITMAP
0C00
2400
1400
1400
1440
2480
2500
4600
8000
ENDCHAR
STARTCHAR 30EC
ENCODING 12524
SWIDTH 1000 0
DWIDTH 12 0
BBX 7 9 3 0
BITMAP
80
80
80
82
84
88
90
E0
80
ENDCHAR
STARTCHAR 30ED
ENCODING 12525
SWIDTH 1000 0
DWIDTH 12 0
BBX 8 7 2 1
BITMAP
83
FD
82
82
42
42
7C
ENDCHAR
STARTCHAR 30EE
ENCODING 12526
SWIDTH 1000 0
DWIDTH 12 0
BBX 6 7 3 -1
BITMAP
04
FC
88
88
08
10
20
ENDCHAR
STARTCHAR 30EF
ENCODING 12527
SWIDTH 1000 0
DWIDTH 12 0
BBX 8 9 2 -1
BITMAP
01
7F
82
42
42
04
08
08
30
ENDCHAR
STARTCHAR 30F0
ENCODING 12528
SWIDTH 1000 0
DWIDTH 12 0
BBX 9 9 2 1
BITMAP
0400
0400
7F00
2400
2400
FF80
0400
0400
0400
ENDCHAR
STARTCHAR 30F1
ENCODING 12529
SWIDTH 1000 0
DWIDTH 12 0
BBX 9 7 2 2
BITMAP
FF00
0600
1800
1000
1000
1180
EE00
ENDCHAR
STARTCHAR 30F2
ENCODING 12530
SWIDTH 1000 0
DWIDTH 12 0
BBX 7 9 3 -1
BITMAP
02
FE
04
FC
04
08
10
20
40
ENDCHAR
STARTCHAR 30F3
ENCODING 12531
SWIDTH 1000 0
DWIDTH 12 0
BBX 9 8 2 1
BITMAP
C000
2080
0100
0200
0400
0800
9000
6000
ENDCHAR
STARTCHAR 30F4
ENCODING 12532
SWIDTH 1000 0
DWIDTH 12 0
BBX 10 10 2 0
BITMAP
0080
11C0
1200
ED00
8200
8200
0200
0400
0800
1000
ENDCHAR
STARTCHAR 30F5
ENCODING 12533
SWIDTH 1000 0
DWIDTH 12 0
BBX 6 7 3 0
BITMAP
10
20
FC
24
44
48
98
ENDCHAR
STARTCHAR 30F6
ENCODING 12534
SWIDTH 1000 0
DWIDTH 12 0
BBX 8 7 2 0
BITMAP
20
27
58
88
08
10
20
ENDCHAR
STARTCHAR 30F7
ENCODING 12535
SWIDTH 1000 0
DWIDTH 12 0
BBX 10 11 2 0
BITMAP
00C0
0180
FF00
8300
8200
8200
0400
0400
0800
1000
2000
ENDCHAR
STARTCHAR 30F8
ENCODING 12536
SWIDTH 1000 0
DWIDTH 12 0
BBX 10 11 2 0
BITMAP
0040
0480
0400
7F80
2400
2400
E780
1C00
0400
0400
0400
ENDCHAR
STARTCHAR 30F9
ENCODING 12537
SWIDTH 1000 0
DWIDTH 12 0
BBX 11 9 1 2
BITMAP
0060
00C0
7F80
0100
0E00
0800
0800
0800
F780
ENDCHAR
STARTCHAR 30FA
ENCODING 12538
SWIDTH 1000 0
DWIDTH 12 0
BBX 10 10 2 0
BITMAP
01C0
0080
7F00
0200
8600
7C00
0400
0800
1000
2000
ENDCHAR
STARTCHAR 30FB
ENCODING 12539
SWIDTH 1000 0
DWIDTH 12 0
BBX 2 2 5 4
BITMAP
C0
C0
ENDCHAR
STARTCHAR 30FC
ENCODING 12540
SWIDTH 1000 0
DWIDTH 12 0
BBX 10 1 1 5
BITMAP
FFC0
ENDCHAR
STARTCHAR 30FD
ENCODING 12541
SWIDTH 1000 0
DWIDTH 12 0
BBX 4 5 4 3
BITMAP
80
40
20
10
10
ENDCHAR
STARTCHAR 30FE
ENCODING 12542
SWIDTH 1000 0
DWIDTH 12 0
BBX 7 6 3 3
BITMAP
06
88
60
10
18
08
ENDCHAR
STARTCHAR 30FF
ENCODING 12543
SWIDTH 1000 0
DWIDTH 12 0
BBX 8 9 2 0
BITMAP
03
FE
02
02
02
02
02
02
02
ENDCHAR
STARTCHAR 31F0
ENCODING 12784
SWIDTH 1000 0
DWIDTH 12 0
BBX 6 7 3 0
BITMAP
20
3C
48
88
10
20
40
ENDCHAR
STARTCHAR 31F1
ENCODING 12785
SWIDTH 1000 0
DWIDTH 12 0
BBX 7 7 3 0
BITMAP
40
20
86
44
08
30
C0
ENDCHAR
STARTCHAR 31F2
ENCODING 12786
SWIDTH 1000 0
DWIDTH 12 0
BBX 8 6 2 0
BITMAP
3C
08
08
14
22
C1
ENDCHAR
STARTCHAR 31F3
ENCODING 12787
SWIDTH 1000 0
DWIDTH 12 0
BBX 4 7 5 1
BITMAP
80
80
80
E0
90
80
80
ENDCHAR
STARTCHAR 31F4
ENCODING 12788
SWIDTH 1000 0
DWIDTH 12 0
BBX 6 7 3 -1
BITMAP
FC
08
08
30
28
24
C0
ENDCHAR
STARTCHAR 31F5
ENCODING 12789
SWIDTH 1000 0
DWIDTH 12 0
BBX 8 4 2 1
BITMAP
24
42
41
81
ENDCHAR
STARTCHAR 31F6
ENCODING 12790
SWIDTH 1000 0
DWIDTH 12 0
BBX 6 7 3 0
BITMAP
80
84
88
70
80
80
7C
ENDCHAR
STARTCHAR 31F7
ENCODING 12791
SWIDTH 1000 0
DWIDTH 12 0
BBX 6 6 3 0
BITMAP
FC
04
08
10
10
60
ENDCHAR
STARTCHAR 31F8
ENCODING 12792
SWIDTH 1000 0
DWIDTH 12 0
BBX 8 4 2 1
BITMAP
30
68
C6
01
ENDCHAR
STARTCHAR 31F9
ENCODING 12793
SWIDTH 1000 0
DWIDTH 12 0
BBX 8 7 2 1
BITMAP
08
10
7E
10
4A
89
18
ENDCHAR
STARTCHAR 31FA
ENCODING 12794
SWIDTH 1000 0
DWIDTH 12 0
BBX 6 7 3 1
BITMAP
20
20
40
48
88
9C
E0
ENDCHAR
STARTCHAR 31FB
ENCODING 12795
SWIDTH 1000 0
DWIDTH 12 0
BBX 6 7 3 -1
BITMAP
78
00
FC
08
08
10
20
ENDCHAR
STARTCHAR 31FC
ENCODING 12796
SWIDTH 1000 0
DWIDTH 12 0
BBX 5 7 3 0
BITMAP
48
48
88
08
08
10
20
ENDCHAR
STARTCHAR 31FD
ENCODING 12797
SWIDTH 1000 0
DWIDTH 12 0
BBX 8 7 2 -1
BITMAP
18
28
28
29
4A
4C
88
ENDCHAR
STARTCHAR 31FE
ENCODING 12798
SWIDTH 1000 0
DWIDTH 12 0
BBX 7 7 3 0
BITMAP
80
40
42
44
88
90
60
ENDCHAR
STARTCHAR 31FF
ENCODING 12799
SWIDTH 1000 0
DWIDTH 12 0
BBX 6 6 3 1
BITMAP
FC
84
84
84
84
F8
ENDCHAR
STARTCHAR 3220
ENCODING 12832
SWIDTH 1000 0
DWIDTH 12 0
BBX 10 10 1 0
BITMAP
8080
8040
8040
8040
8040
BF40
8040
8040
8040
8080
ENDCHAR
STARTCHAR 3221
ENCODING 12833
SWIDTH 1000 0
DWIDTH 12 0
BBX 10 10 1 -1
BITMAP
8080
8140
9E40
8040
8040
8040
8040
FFC0
8040
8080
ENDCHAR
STARTCHAR 3222
ENCODING 12834
SWIDTH 1000 0
DWIDTH 12 0
BBX 10 10 1 0
BITMAP
8080
8140
BF40
8040
8040
BF40
8040
8040
8040
BF80
ENDCHAR
STARTCHAR 3223
ENCODING 12835
SWIDTH 1000 0
DWIDTH 12 0
BBX 10 11 1 -1
BITMAP
4080
8180
BF40
B540
B540
B740
B740
A140
A140
BF80
4080
ENDCHAR
STARTCHAR 3224
ENCODING 12836
SWIDTH 1000 0
DWIDTH 12 0
BBX 11 10 0 -1
BITMAP
4040
8040
9F20
8820
8920
9F20
8920
8920
9120
4EC0
ENDCHAR
STARTCHAR 3225
ENCODING 12837
SWIDTH 1000 0
DWIDTH 12 0
BBX 11 11 1 -1
BITMAP
4040
4040
8420
8420
BBA0
8A20
9120
9120
A0A0
80C0
4040
ENDCHAR
STARTCHAR 3226
ENCODING 12838
SWIDTH 1000 0
DWIDTH 12 0
BBX 11 11 0 -1
BITMAP
4000
4820
8820
8860
8FA0
9820
8820
8820
88A0
4FC0
4000
ENDCHAR
STARTCHAR 3227
ENCODING 12839
SWIDTH 1000 0
DWIDTH 12 0
BBX 10 9 1 0
BITMAP
8080
8640
9440
9240
9240
A240
A140
C0C0
4080
ENDCHAR
STARTCHAR 3228
ENCODING 12840
SWIDTH 1000 0
DWIDTH 12 0
BBX 11 11 1 -1
BITMAP
4000
8840
8840
8A20
BE20
8A20
8A20
92A0
92C0
A3C0
4000
ENDCHAR
STARTCHAR 3229
ENCODING 12841
SWIDTH 1000 0
DWIDTH 12 0
BBX 11 11 1 -1
BITMAP
4040
8440
8420
8420
8420
BFA0
8420
8420
8420
8440
4040
ENDCHAR
STARTCHAR 322A
ENCODING 12842
SWIDTH 1000 0
DWIDTH 12 0
BBX 11 11 1 -1
BITMAP
4000
8140
9F40
9120
9F20
9120
9F20
9120
A120
A340
4040
ENDCHAR
STARTCHAR 322B
ENCODING 12843
SWIDTH 1000 0
DWIDTH 12 0
BBX 11 11 1 -1
BITMAP
4040
8440
8420
94A0
9520
9420
A620
8920
8920
B0C0
4040
ENDCHAR
STARTCHAR 322C
ENCODING 12844
SWIDTH 1000 0
DWIDTH 12 0
BBX 11 11 1 -1
BITMAP
4040
8440
8420
84A0
BF20
9620
9520
A4A0
8420
8C40
4040
ENDCHAR
STARTCHAR 322D
ENCODING 12845
SWIDTH 1000 0
DWIDTH 12 0
BBX 11 11 1 -1
BITMAP
4040
8440
8420
8420
BFA0
8E20
9520
94A0
A460
8440
4040
ENDCHAR
STARTCHAR 322E
ENCODING 12846
SWIDTH 1000 0
DWIDTH 12 0
BBX 11 11 1 -1
BITMAP
4440
8440
8A20
9120
BFA0
C460
9F20
9520
9420
BFC0
4040
ENDCHAR
STARTCHAR 322F
ENCODING 12847
SWIDTH 1000 0
DWIDTH 12 0
BBX 11 11 1 0
BITMAP
4040
8440
8420
84A0
BFA0
8420
8420
8420
8420
5B40
4040
ENDCHAR
STARTCHAR 3230
ENCODING 12848
SWIDTH 1000 0
DWIDTH 12 0
BBX 12 10 0 0
BITMAP
40A0
9FA0
9090
9090
9F90
9090
9090
9090
5FA0
4020
ENDCHAR
STARTCHAR 3231
ENCODING 12849
SWIDTH 1000 0
DWIDTH 12 0
BBX 12 10 0 0
BITMAP
4020
9320
9550
9790
9150
BF90
D390
9550
9120
5120
ENDCHAR
STARTCHAR 3232
ENCODING 12850
SWIDTH 1000 0
DWIDTH 12 0
BBX 11 10 1 0
BITMAP
8840
88C0
B720
9F20
B120
DF20
DF20
9120
9740
0040
ENDCHAR
STARTCHAR 3233
ENCODING 12851
SWIDTH 1000 0
DWIDTH 12 0
BBX 12 11 0 -2
BITMAP
0020
5120
9120
8910
8FD0
9910
B510
9110
9110
97E0
5020
ENDCHAR
STARTCHAR 3234
ENCODING 12852
SWIDTH 1000 0
DWIDTH 12 0
BBX 11 10 0 0
BITMAP
4040
4440
8B20
9A20
A420
8CA0
9BA0
88A0
88A0
4FC0
ENDCHAR
STARTCHAR 3235
ENCODING 12853
SWIDTH 1000 0
DWIDTH 12 0
BBX 12 11 0 0
BITMAP
5120
B120
D7D0
F150
D7D0
9090
F390
9290
90A0
51A0
4000
ENDCHAR
STARTCHAR 3236
ENCODING 12854
SWIDTH 1000 0
DWIDTH 12 0
BBX 11 10 1 0
BITMAP
4940
B940
BFA0
A920
BB20
AD20
BD20
B920
CB40
4000
ENDCHAR
STARTCHAR 3237
ENCODING 12855
SWIDTH 1000 0
DWIDTH 12 0
BBX 11 10 0 0
BITMAP
50C0
9FA0
8CA0
94A0
97A0
BB20
95A0
95A0
51C0
0040
ENDCHAR
STARTCHAR 3238
ENCODING 12856
SWIDTH 1000 0
DWIDTH 12 0
BBX 10 9 1 0
BITMAP
8180
BA40
9A40
EDC0
C840
BF40
8940
9140
A280
ENDCHAR
STARTCHAR 3239
ENCODING 12857
SWIDTH 1000 0
DWIDTH 12 0
BBX 11 10 0 -1
BITMAP
4000
4A20
92A0
9260
97A0
B220
9120
9160
90E0
5060
ENDCHAR
STARTCHAR 323A
ENCODING 12858
SWIDTH 1000 0
DWIDTH 12 0
BBX 12 11 0 0
BITMAP
4020
40E0
BB10
AD50
AB90
A990
AB50
B910
8120
4320
4000
ENDCHAR
STARTCHAR 323B
ENCODING 12859
SWIDTH 1000 0
DWIDTH 12 0
BBX 11 11 1 -1
BITMAP
4040
85C0
9620
E9E0
DF20
8220
8420
BFA0
8420
8C40
4040
ENDCHAR
STARTCHAR 323C
ENCODING 12860
SWIDTH 1000 0
DWIDTH 12 0
BBX 12 11 0 -1
BITMAP
4020
BD20
AA10
B7D0
BC50
A990
B090
9F90
9690
56E0
4920
ENDCHAR
STARTCHAR 323D
ENCODING 12861
SWIDTH 1000 0
DWIDTH 12 0
BBX 11 11 1 -1
BITMAP
4040
8C40
8A20
9520
A4E0
9420
97A0
9420
9420
BFC0
4040
ENDCHAR
STARTCHAR 323E
ENCODING 12862
SWIDTH 1000 0
DWIDTH 12 0
BBX 12 10 0 0
BITMAP
6420
83E0
8B10
FCD0
9790
9F90
9F90
8F20
50E0
4000
ENDCHAR
STARTCHAR 323F
ENCODING 12863
SWIDTH 1000 0
DWIDTH 12 0
BBX 11 10 1 0
BITMAP
A440
A740
B520
AB20
A020
A920
AFA0
B6C0
AFC0
4000
ENDCHAR
STARTCHAR 3240
ENCODING 12864
SWIDTH 1000 0
DWIDTH 12 0
BBX 11 11 1 -1
BITMAP
4040
9040
ABA0
D920
B1A0
A6E0
C0A0
9F20
B520
8CC0
4040
ENDCHAR
STARTCHAR 3241
ENCODING 12865
SWIDTH 1000 0
DWIDTH 12 0
BBX 10 11 1 -1
BITMAP
0080
9480
A440
A440
AF40
A640
EE40
B540
B4C0
A480
0080
ENDCHAR
STARTCHAR 3242
ENCODING 12866
SWIDTH 1000 0
DWIDTH 12 0
BBX 11 9 0 0
BITMAP
4240
84A0
9BA0
90A0
9FA0
90A0
9FA0
90A0
5FC0
ENDCHAR
STARTCHAR 3243
ENCODING 12867
SWIDTH 1000 0
DWIDTH 12 0
BBX 11 11 1 -2
BITMAP
4040
4040
9F20
8920
BFA0
84A0
8420
9F20
8420
BFC0
4040
ENDCHAR
STARTCHAR 3251
ENCODING 12881
SWIDTH 1000 0
DWIDTH 12 0
BBX 10 11 1 -1
BITMAP
1E00
6180
7A80
AA40
8A40
9240
A240
A240
7A80
2100
1E00
ENDCHAR
STARTCHAR 3252
ENCODING 12882
SWIDTH 1000 0
DWIDTH 12 0
BBX 11 11 1 -1
BITMAP
1F00
6180
7BC0
AAE0
88A0
9120
A220
A420
7BC0
2080
1F00
ENDCHAR
STARTCHAR 3253
ENCODING 12883
SWIDTH 1000 0
DWIDTH 12 0
BBX 11 11 1 -1
BITMAP
1F00
6180
7BC0
AAE0
88A0
91A0
A0A0
A2A0
7BC0
2080
1F00
ENDCHAR
STARTCHAR 3254
ENCODING 12884
SWIDTH 1000 0
DWIDTH 12 0
BBX 11 11 1 -1
BITMAP
1E00
2100
79C0
A940
8B20
9520
A520
A7A0
B940
6080
1F00
ENDCHAR
STARTCHAR 3255
ENCODING 12885
SWIDTH 1000 0
DWIDTH 12 0
BBX 11 11 1 -1
BITMAP
1E00
6180
7BC0
AC60
8C20
93A0
A0A0
A2A0
7B40
2080
1F00
ENDCHAR
STARTCHAR 3256
ENCODING 12886
SWIDTH 1000 0
DWIDTH 12 0
BBX 11 11 1 -1
BITMAP
1F00
6180
79C0
AA60
8D20
92A0
A2A0
A2A0
7B40
2080
1F00
ENDCHAR
STARTCHAR 3257
ENCODING 12887
SWIDTH 1000 0
DWIDTH 12 0
BBX 10 11 1 -1
BITMAP
1E00
6100
7F80
A940
8940
9240
A240
A240
7A80
2100
1E00
ENDCHAR
STARTCHAR 3258
ENCODING 12888
SWIDTH 1000 0
DWIDTH 12 0
BBX 11 11 1 -1
BITMAP
1F00
6180
7BC0
AAE0
8B20
9320
A2A0
A2A0
7BC0
2080
1F00
ENDCHAR
STARTCHAR 3259
ENCODING 12889
SWIDTH 1000 0
DWIDTH 12 0
BBX 11 11 1 -1
BITMAP
1F00
6180
7B40
AAE0
8AA0
93A0
A0A0
A2A0
7B40
2080
1F00
ENDCHAR
STARTCHAR 325A
ENCODING 12890
SWIDTH 1000 0
DWIDTH 12 0
BBX 10 11 1 -1
BITMAP
1E00
6180
7380
CCC0
8CC0
94C0
8CC0
CCC0
7380
2100
1E00
ENDCHAR
STARTCHAR 325B
ENCODING 12891
SWIDTH 1000 0
DWIDTH 12 0
BBX 11 11 0 -1
BITMAP
1F00
6180
7B40
A960
8920
9120
8920
A920
B940
6080
1F00
ENDCHAR
STARTCHAR 325C
ENCODING 12892
SWIDTH 1000 0
DWIDTH 12 0
BBX 11 11 1 -1
BITMAP
1F00
6180
7BC0
AAE0
88A0
8920
8A20
AA20
7BC0
2080
1F00
ENDCHAR
STARTCHAR 325D
ENCODING 12893
SWIDTH 1000 0
DWIDTH 12 0
BBX 10 11 1 -1
BITMAP
1E00
6180
7780
CCC0
88C0
9140
88C0
CCC0
7780
2100
1E00
ENDCHAR
STARTCHAR 325E
ENCODING 12894
SWIDTH 1000 0
DWIDTH 12 0
BBX 12 11 0 -1
BITMAP
0F00
3080
78E0
68A0
8990
9290
8E90
87D0
78A0
2040
1F80
ENDCHAR
STARTCHAR 325F
ENCODING 12895
SWIDTH 1000 0
DWIDTH 12 0
BBX 10 11 1 -1
BITMAP
1E00
6180
7380
CCC0
8C40
B340
88C0
CCC0
7780
4100
3E00
ENDCHAR
STARTCHAR 3280
ENCODING 12928
SWIDTH 1000 0
DWIDTH 12 0
BBX 10 10 1 0
BITMAP
1E00
6180
8080
8040
8040
BF40
8040
8080
4080
3F00
ENDCHAR
STARTCHAR 3281
ENCODING 12929
SWIDTH 1000 0
DWIDTH 12 0
BBX 10 11 1 -1
BITMAP
1E00
6180
4080
9EC0
8040
8040
8040
8040
BF80
6100
1E00
ENDCHAR
STARTCHAR 3282
ENCODING 12930
SWIDTH 1000 0
DWIDTH 12 0
BBX 10 10 1 0
BITMAP
1E00
2100
4180
9E40
8040
9E40
8040
8080
7F80
3F00
ENDCHAR
STARTCHAR 3283
ENCODING 12931
SWIDTH 1000 0
DWIDTH 12 0
BBX 10 11 1 -1
BITMAP
1E00
6100
7F80
B540
B540
B540
B740
A140
BF80
6100
1E00
ENDCHAR
STARTCHAR 3284
ENCODING 12932
SWIDTH 1000 0
DWIDTH 12 0
BBX 11 11 0 -1
BITMAP
1F80
61C0
7FC0
8860
8820
9F20
8920
8920
7FC0
2080
1F00
ENDCHAR
STARTCHAR 3285
ENCODING 12933
SWIDTH 1000 0
DWIDTH 12 0
BBX 11 11 1 -1
BITMAP
1F80
65C0
4440
BFE0
8020
8820
9120
A0A0
80C0
6080
1F00
ENDCHAR
STARTCHAR 3286
ENCODING 12934
SWIDTH 1000 0
DWIDTH 12 0
BBX 11 11 0 -1
BITMAP
0F00
31C0
4840
8860
8FA0
9820
88A0
88A0
4FC0
2080
1F00
ENDCHAR
STARTCHAR 3287
ENCODING 12935
SWIDTH 1000 0
DWIDTH 12 0
BBX 10 11 1 -1
BITMAP
1E00
6100
4480
9440
9240
A240
A140
C0C0
8080
6100
1E00
ENDCHAR
STARTCHAR 3288
ENCODING 12936
SWIDTH 1000 0
DWIDTH 12 0
BBX 11 11 1 -1
BITMAP
3F00
49C0
4840
BE60
8A20
8A20
92A0
92A0
A3C0
6080
1F00
ENDCHAR
STARTCHAR 3289
ENCODING 12937
SWIDTH 1000 0
DWIDTH 12 0
BBX 11 11 1 -1
BITMAP
1F00
6180
4440
8460
8420
BFA0
8420
8420
4440
2080
1F00
ENDCHAR
STARTCHAR 328A
ENCODING 12938
SWIDTH 1000 0
DWIDTH 12 0
BBX 11 11 1 -1
BITMAP
1F00
6180
5F40
9160
9F20
9120
9F20
9120
6340
2080
1F00
ENDCHAR
STARTCHAR 328B
ENCODING 12939
SWIDTH 1000 0
DWIDTH 12 0
BBX 11 11 1 -1
BITMAP
1F00
6580
4440
84E0
A520
A620
8A20
8920
B0C0
6080
1F00
ENDCHAR
STARTCHAR 328C
ENCODING 12940
SWIDTH 1000 0
DWIDTH 12 0
BBX 11 11 1 -1
BITMAP
1E00
2180
4440
84E0
B720
9620
A520
A4A0
9C40
6080
1F00
ENDCHAR
STARTCHAR 328D
ENCODING 12941
SWIDTH 1000 0
DWIDTH 12 0
BBX 11 11 1 -1
BITMAP
1F00
2180
4440
8460
9FA0
8E20
9520
A4E0
8440
6080
1F00
ENDCHAR
STARTCHAR 328E
ENCODING 12942
SWIDTH 1000 0
DWIDTH 12 0
BBX 11 11 1 -1
BITMAP
1F00
6580
4A40
91E0
A6E0
84A0
9F20
9420
7FC0
2080
1F00
ENDCHAR
STARTCHAR 328F
ENCODING 12943
SWIDTH 1000 0
DWIDTH 12 0
BBX 11 10 1 0
BITMAP
1F00
6580
4440
84A0
9F20
8420
8420
84C0
5B80
3F00
ENDCHAR
STARTCHAR 3290
ENCODING 12944
SWIDTH 1000 0
DWIDTH 12 0
BBX 12 11 0 -1
BITMAP
1F80
20C0
5FA0
90B0
9090
9F90
9090
9090
5FA0
2040
1F80
ENDCHAR
STARTCHAR 3291
ENCODING 12945
SWIDTH 1000 0
DWIDTH 12 0
BBX 12 11 0 -1
BITMAP
1F80
71C0
5560
BBF0
9510
9FD0
B910
9390
9560
7140
0F80
ENDCHAR
STARTCHAR 3292
ENCODING 12946
SWIDTH 1000 0
DWIDTH 12 0
BBX 11 11 1 -1
BITMAP
1F00
6980
48C0
B760
9F20
B120
DF20
9F20
9340
6080
1F00
ENDCHAR
STARTCHAR 3293
ENCODING 12947
SWIDTH 1000 0
DWIDTH 12 0
BBX 12 11 0 -1
BITMAP
1F80
70C0
5160
8930
8950
9390
BD10
9110
9160
66C0
1F80
ENDCHAR
STARTCHAR 3294
ENCODING 12948
SWIDTH 1000 0
DWIDTH 12 0
BBX 11 11 1 -1
BITMAP
3F00
4980
9E40
9260
EC20
8820
B720
9120
9F40
7180
1F00
ENDCHAR
STARTCHAR 3295
ENCODING 12949
SWIDTH 1000 0
DWIDTH 12 0
BBX 11 11 1 -1
BITMAP
1E00
2180
7240
DB40
F7A0
9920
F720
9120
5340
2080
1F00
ENDCHAR
STARTCHAR 3296
ENCODING 12950
SWIDTH 1000 0
DWIDTH 12 0
BBX 11 11 1 -1
BITMAP
1F00
6180
7940
A960
BB20
BB20
AD20
9120
B940
6080
1F00
ENDCHAR
STARTCHAR 3297
ENCODING 12951
SWIDTH 1000 0
DWIDTH 12 0
BBX 11 11 0 -1
BITMAP
1F00
3080
5FC0
8CE0
94A0
97A0
FB20
9520
55C0
3880
1F00
ENDCHAR
STARTCHAR 3298
ENCODING 12952
SWIDTH 1000 0
DWIDTH 12 0
BBX 10 11 1 -1
BITMAP
1E00
6100
6A80
9AC0
ED40
C940
9F40
9140
A680
6100
1E00
ENDCHAR
STARTCHAR 3299
ENCODING 12953
SWIDTH 1000 0
DWIDTH 12 0
BBX 11 11 0 -1
BITMAP
0F00
3180
7940
90E0
96A0
9F60
B660
9220
57C0
2080
1F00
ENDCHAR
STARTCHAR 329A
ENCODING 12954
SWIDTH 1000 0
DWIDTH 12 0
BBX 12 11 0 -1
BITMAP
0F80
30C0
5FA0
9FB0
9490
8F10
BFD0
8490
48A0
21C0
1F00
ENDCHAR
STARTCHAR 329B
ENCODING 12955
SWIDTH 1000 0
DWIDTH 12 0
BBX 10 11 1 -1
BITMAP
3F00
4980
9080
FFC0
9240
A240
B440
8E40
8980
5100
3E00
ENDCHAR
STARTCHAR 329C
ENCODING 12956
SWIDTH 1000 0
DWIDTH 12 0
BBX 11 11 0 -1
BITMAP
1F00
6180
57C0
9160
86A0
95A0
97A0
95A0
6FC0
2080
1F00
ENDCHAR
STARTCHAR 329D
ENCODING 12957
SWIDTH 1000 0
DWIDTH 12 0
BBX 11 11 1 -1
BITMAP
1E00
2180
6E40
AF60
B920
F6A0
A6A0
AB20
ADC0
6080
1F00
ENDCHAR
STARTCHAR 329E
ENCODING 12958
SWIDTH 1000 0
DWIDTH 12 0
BBX 10 11 1 -1
BITMAP
1C00
2200
4980
F780
A540
B540
A540
BF40
A480
4500
3E00
ENDCHAR
STARTCHAR 329F
ENCODING 12959
SWIDTH 1000 0
DWIDTH 12 0
BBX 11 11 0 -1
BITMAP
0F00
3180
5040
9260
B720
9220
A720
A220
A240
6580
1F00
ENDCHAR
STARTCHAR 32A0
ENCODING 12960
SWIDTH 1000 0
DWIDTH 12 0
BBX 10 10 1 0
BITMAP
1E00
6180
5680
AF40
A940
AF40
BF40
C680
4980
3E00
ENDCHAR
STARTCHAR 32A1
ENCODING 12961
SWIDTH 1000 0
DWIDTH 12 0
BBX 11 11 0 -1
BITMAP
0F00
3080
5A40
9260
97A0
B720
9AA0
9260
5240
2080
1F00
ENDCHAR
STARTCHAR 32A2
ENCODING 12962
SWIDTH 1000 0
DWIDTH 12 0
BBX 10 10 1 0
BITMAP
3F00
4180
BFC0
D140
9E40
A040
9E40
BF80
5D00
3E00
ENDCHAR
STARTCHAR 32A3
ENCODING 12963
SWIDTH 1000 0
DWIDTH 12 0
BBX 11 11 1 -1
BITMAP
1F00
61C0
7FC0
8460
9420
9720
9420
94A0
7FC0
2080
1F00
ENDCHAR
STARTCHAR 32A4
ENCODING 12964
SWIDTH 1000 0
DWIDTH 12 0
BBX 11 10 0 0
BITMAP
1F80
65C0
4440
8420
87A0
8420
8420
8440
7B80
1F00
ENDCHAR
STARTCHAR 32A5
ENCODING 12965
SWIDTH 1000 0
DWIDTH 12 0
BBX 10 11 1 -1
BITMAP
1C00
2300
4480
4480
BF40
A540
BF40
A540
8480
4500
3E00
ENDCHAR
STARTCHAR 32A6
ENCODING 12966
SWIDTH 1000 0
DWIDTH 12 0
BBX 11 11 0 -1
BITMAP
0F00
3180
4040
9FE0
8620
8520
84A0
8420
4440
2080
1F00
ENDCHAR
STARTCHAR 32A7
ENCODING 12967
SWIDTH 1000 0
DWIDTH 12 0
BBX 11 11 1 -1
BITMAP
1F00
6980
90C0
BF60
9020
9F20
A420
C420
BFC0
6080
1F00
ENDCHAR
STARTCHAR 32A8
ENCODING 12968
SWIDTH 1000 0
DWIDTH 12 0
BBX 11 10 1 0
BITMAP
1E00
6980
48C0
B760
9020
9F20
B120
5140
5F80
3F00
ENDCHAR
STARTCHAR 32A9
ENCODING 12969
SWIDTH 1000 0
DWIDTH 12 0
BBX 11 11 1 -1
BITMAP
1F00
6180
7E40
A860
A620
BFA0
A420
AB20
7FC0
2080
1F00
ENDCHAR
STARTCHAR 32AA
ENCODING 12970
SWIDTH 1000 0
DWIDTH 12 0
BBX 11 11 1 -1
BITMAP
1E00
2180
4440
BBE0
8E20
80A0
9F20
B520
84C0
6080
1F00
ENDCHAR
STARTCHAR 32AB
ENCODING 12971
SWIDTH 1000 0
DWIDTH 12 0
BBX 11 11 1 -1
BITMAP
3F80
69C0
5640
BFE0
C0A0
8F20
8420
BFA0
8440
6880
1F00
ENDCHAR
STARTCHAR 32AC
ENCODING 12972
SWIDTH 1000 0
DWIDTH 12 0
BBX 11 11 1 -1
BITMAP
1F00
6180
F640
BFE0
D0A0
FB20
AF20
AD20
6DC0
3280
1F00
ENDCHAR
STARTCHAR 32AD
ENCODING 12973
SWIDTH 1000 0
DWIDTH 12 0
BBX 11 11 1 -1
BITMAP
1F00
2580
4C40
9360
A4A0
D420
9720
9420
7FC0
2080
1F00
ENDCHAR
STARTCHAR 32AE
ENCODING 12974
SWIDTH 1000 0
DWIDTH 12 0
BBX 12 11 0 -1
BITMAP
1F80
64C0
57E0
8BB0
B4D0
9B90
9F90
9F90
4FA0
2040
1F80
ENDCHAR
STARTCHAR 32AF
ENCODING 12975
SWIDTH 1000 0
DWIDTH 12 0
BBX 11 11 1 -1
BITMAP
1E00
2180
6440
A7C0
B920
A920
AFA0
ADA0
AEC0
6080
1F00
ENDCHAR
STARTCHAR 32B0
ENCODING 12976
SWIDTH 1000 0
DWIDTH 12 0
BBX 12 11 0 -1
BITMAP
0F00
30C0
4220
5FA0
93D0
9490
B790
9910
92A0
7C40
0F80
ENDCHAR
STARTCHAR 32B1
ENCODING 12977
SWIDTH 1000 0
DWIDTH 12 0
BBX 10 11 1 -1
BITMAP
1E00
6180
7380
CDC0
8C40
9740
8CC0
CCC0
7380
2100
1E00
ENDCHAR
STARTCHAR 32B2
ENCODING 12978
SWIDTH 1000 0
DWIDTH 12 0
BBX 11 11 0 -1
BITMAP
0F00
3180
7BC0
A860
88A0
9120
8920
A920
B940
6080
1F00
ENDCHAR
STARTCHAR 32B3
ENCODING 12979
SWIDTH 1000 0
DWIDTH 12 0
BBX 10 11 1 -1
BITMAP
1E00
6180
7380
CAC0
8B40
9340
8CC0
CCC0
7380
2100
1E00
ENDCHAR
STARTCHAR 32B4
ENCODING 12980
SWIDTH 1000 0
DWIDTH 12 0
BBX 10 11 1 -1
BITMAP
1E00
6180
7380
ECC0
8CC0
97C0
88C0
CD40
7780
2100
1E00
ENDCHAR
STARTCHAR 32B5
ENCODING 12981
SWIDTH 1000 0
DWIDTH 12 0
BBX 12 11 0 -1
BITMAP
0F00
3080
48E0
4960
9950
A950
A950
BD50
48A0
2040
1F80
ENDCHAR
STARTCHAR 32B6
ENCODING 12982
SWIDTH 1000 0
DWIDTH 12 0
BBX 11 11 0 -1
BITMAP
0E00
3180
4840
4940
B920
A920
C920
BD20
8940
6080
1F00
ENDCHAR
STARTCHAR 32B7
ENCODING 12983
SWIDTH 1000 0
DWIDTH 12 0
BBX 11 11 1 -1
BITMAP
1E00
2180
53C0
92C0
B0A0
D120
D220
FC20
93C0
6080
1F00
ENDCHAR
STARTCHAR 32B8
ENCODING 12984
SWIDTH 1000 0
DWIDTH 12 0
BBX 11 11 1 -1
BITMAP
1E00
2180
53C0
92C0
B0A0
D120
D0A0
F8A0
93C0
4080
3F00
ENDCHAR
STARTCHAR 32B9
ENCODING 12985
SWIDTH 1000 0
DWIDTH 12 0
BBX 11 11 1 -1
BITMAP
1E00
2100
51C0
9140
B320
D520
D520
FFA0
9140
4080
3F00
ENDCHAR
STARTCHAR 32BA
ENCODING 12986
SWIDTH 1000 0
DWIDTH 12 0
BBX 11 11 1 -1
BITMAP
1F00
6180
53C0
B460
B420
D320
D0A0
F8A0
93C0
4080
3F00
ENDCHAR
STARTCHAR 32BB
ENCODING 12987
SWIDTH 1000 0
DWIDTH 12 0
BBX 11 11 1 -1
BITMAP
1E00
2100
51C0
92C0
B420
D5A0
D2A0
FAA0
9340
4080
3F00
ENDCHAR
STARTCHAR 32BC
ENCODING 12988
SWIDTH 1000 0
DWIDTH 12 0
BBX 11 11 0 -1
BITMAP
0F00
3180
4BC0
9CE0
98A0
A920
A920
BD20
4940
2080
1F00
ENDCHAR
STARTCHAR 32BD
ENCODING 12989
SWIDTH 1000 0
DWIDTH 12 0
BBX 11 11 1 -1
BITMAP
1E00
2180
53C0
92C0
B2A0
D120
D2A0
FAA0
93C0
4080
3F00
ENDCHAR
STARTCHAR 32BE
ENCODING 12990
SWIDTH 1000 0
DWIDTH 12 0
BBX 12 11 0 -1
BITMAP
0F00
3080
48E0
4960
9950
A950
A9D0
BC50
49A0
2040
1F80
ENDCHAR
STARTCHAR 32BF
ENCODING 12991
SWIDTH 1000 0
DWIDTH 12 0
BBX 10 11 1 -1
BITMAP
1E00
6180
7380
C4C0
C4C0
B4C0
8CC0
CCC0
7380
4100
3E00
ENDCHAR
STARTCHAR 32D0
ENCODING 13008
SWIDTH 1000 0
DWIDTH 12 0
BBX 10 11 1 -1
BITMAP
1E00
6180
4180
BFC0
8A40
8440
8840
8840
9080
6100
1E00
ENDCHAR
STARTCHAR 32D1
ENCODING 13009
SWIDTH 1000 0
DWIDTH 12 0
BBX 10 11 1 -1
BITMAP
1E00
6180
4280
84C0
8840
B840
8440
8440
8480
6100
1E00
ENDCHAR
STARTCHAR 32D2
ENCODING 13010
SWIDTH 1000 0
DWIDTH 12 0
BBX 10 11 1 -1
BITMAP
1E00
6180
4480
9FC0
A140
8240
8240
8440
8880
6100
1E00
ENDCHAR
STARTCHAR 32D3
ENCODING 13011
SWIDTH 1000 0
DWIDTH 12 0
BBX 10 11 1 -1
BITMAP
1E00
6180
4080
BEC0
8840
8840
8840
FFC0
8080
6100
1E00
ENDCHAR
STARTCHAR 32D4
ENCODING 13012
SWIDTH 1000 0
DWIDTH 12 0
BBX 10 11 1 -1
BITMAP
1E00
6580
4480
BDC0
8640
8A40
9240
A240
8680
6100
1E00
ENDCHAR
STARTCHAR 32D5
ENCODING 13013
SWIDTH 1000 0
DWIDTH 12 0
BBX 10 11 1 -1
BITMAP
1E00
6980
4480
BBC0
8D40
8940
9140
9640
A280
6100
1E00
ENDCHAR
STARTCHAR 32D6
ENCODING 13014
SWIDTH 1000 0
DWIDTH 12 0
BBX 10 11 1 -1
BITMAP
1E00
6180
4880
8BC0
BC40
8BC0
B440
8440
8480
6100
1E00
ENDCHAR
STARTCHAR 32D7
ENCODING 13015
SWIDTH 1000 0
DWIDTH 12 0
BBX 10 11 1 -1
BITMAP
1E00
6980
4480
8FC0
9240
A240
8440
8840
9080
6100
1E00
ENDCHAR
STARTCHAR 32D8
ENCODING 13016
SWIDTH 1000 0
DWIDTH 12 0
BBX 10 11 1 -1
BITMAP
1E00
6180
5080
93C0
AC40
C440
8440
8840
8880
6100
1E00
ENDCHAR
STARTCHAR 32D9
ENCODING 13017
SWIDTH 1000 0
DWIDTH 12 0
BBX 10 11 1 -1
BITMAP
1E00
6180
4080
BFC0
8140
8140
8240
BF40
8080
6100
1E00
ENDCHAR
STARTCHAR 32DA
ENCODING 13018
SWIDTH 1000 0
DWIDTH 12 0
BBX 10 11 1 -1
BITMAP
1E00
6180
5280
92C0
FFC0
9240
9240
8440
8480
7900
1E00
ENDCHAR
STARTCHAR 32DB
ENCODING 13019
SWIDTH 1000 0
DWIDTH 12 0
BBX 10 11 1 -1
BITMAP
1E00
6180
5080
88C0
A0C0
9140
8240
8C40
B080
6100
1E00
ENDCHAR
STARTCHAR 32DC
ENCODING 13020
SWIDTH 1000 0
DWIDTH 12 0
BBX 10 11 1 -1
BITMAP
1E00
6180
7E80
82C0
8440
8440
8B40
B0C0
8080
6100
1E00
ENDCHAR
STARTCHAR 32DD
ENCODING 13021
SWIDTH 1000 0
DWIDTH 12 0
BBX 10 11 1 -1
BITMAP
1E00
6180
5080
91C0
9E40
F240
9040
9040
8F80
6100
1E00
ENDCHAR
STARTCHAR 32DE
ENCODING 13022
SWIDTH 1000 0
DWIDTH 12 0
BBX 10 11 1 -1
BITMAP
1E00
6180
4180
B1C0
9240
8240
8440
8440
8880
6100
1E00
ENDCHAR
STARTCHAR 32DF
ENCODING 13023
SWIDTH 1000 0
DWIDTH 12 0
BBX 10 11 1 -1
BITMAP
1E00
6180
4980
9FC0
9240
AA40
8640
8940
9080
6100
1E00
ENDCHAR
STARTCHAR 32E0
ENCODING 13024
SWIDTH 1000 0
DWIDTH 12 0
BBX 10 11 1 -1
BITMAP
1E00
6180
4380
BCC0
84C0
BF40
8440
8840
9080
6100
1E00
ENDCHAR
STARTCHAR 32E1
ENCODING 13025
SWIDTH 1000 0
DWIDTH 12 0
BBX 10 11 1 -1
BITMAP
1E00
6180
4180
88C0
A940
8140
8240
8440
8880
6100
1E00
ENDCHAR
STARTCHAR 32E2
ENCODING 13026
SWIDTH 1000 0
DWIDTH 12 0
BBX 10 11 1 -1
BITMAP
1E00
6180
5F80
80C0
FFC0
8440
8440
8840
8880
6100
1E00
ENDCHAR
STARTCHAR 32E3
ENCODING 13027
SWIDTH 1000 0
DWIDTH 12 0
BBX 11 11 1 -1
BITMAP
1E00
6180
4840
8860
8C20
8B20
8920
8820
8840
6080
1F00
ENDCHAR
STARTCHAR 32E4
ENCODING 13028
SWIDTH 1000 0
DWIDTH 12 0
BBX 10 11 1 -1
BITMAP
1E00
6180
4480
84C0
BFC0
8440
8840
8840
9080
6100
1E00
ENDCHAR
STARTCHAR 32E5
ENCODING 13029
SWIDTH 1000 0
DWIDTH 12 0
BBX 10 11 1 -1
BITMAP
1E00
6180
4080
BFC0
8040
8040
8040
FF40
8080
6100
1E00
ENDCHAR
STARTCHAR 32E6
ENCODING 13030
SWIDTH 1000 0
DWIDTH 12 0
BBX 10 11 1 -1
BITMAP
1E00
6180
7F80
82C0
9240
8C40
8A40
9140
A080
6100
1E00
ENDCHAR
STARTCHAR 32E7
ENCODING 13031
SWIDTH 1000 0
DWIDTH 12 0
BBX 10 11 1 -1
BITMAP
1E00
6980
4480
BEC0
8440
8440
9D40
E540
8480
6500
1E00
ENDCHAR
STARTCHAR 32E8
ENCODING 13032
SWIDTH 1000 0
DWIDTH 12 0
BBX 10 11 1 -1
BITMAP
1E00
6180
4180
82C0
8240
8440
8840
9040
A080
6100
1E00
ENDCHAR
STARTCHAR 32E9
ENCODING 13033
SWIDTH 1000 0
DWIDTH 12 0
BBX 10 11 1 -1
BITMAP
1E00
6180
4080
92C0
9140
A0C0
C0C0
8040
8080
6100
1E00
ENDCHAR
STARTCHAR 32EA
ENCODING 13034
SWIDTH 1000 0
DWIDTH 12 0
BBX 10 11 1 -1
BITMAP
1E00
6180
5080
91C0
A640
9840
A040
A040
9F80
6100
1E00
ENDCHAR
STARTCHAR 32EB
ENCODING 13035
SWIDTH 1000 0
DWIDTH 12 0
BBX 10 11 1 -1
BITMAP
1E00
6180
4080
BFC0
8140
8240
8440
8440
9880
6100
1E00
ENDCHAR
STARTCHAR 32EC
ENCODING 13036
SWIDTH 1000 0
DWIDTH 12 0
BBX 10 11 1 -1
BITMAP
1E00
6180
4080
98C0
9440
E240
81C0
8040
8080
6100
1E00
ENDCHAR
STARTCHAR 32ED
ENCODING 13037
SWIDTH 1000 0
DWIDTH 12 0
BBX 10 11 1 -1
BITMAP
1E00
6180
4080
89C0
BE40
8840
A9C0
C8C0
8880
6100
1E00
ENDCHAR
STARTCHAR 32EE
ENCODING 13038
SWIDTH 1000 0
DWIDTH 12 0
BBX 10 11 1 -1
BITMAP
1E00
6180
4080
FFC0
8140
8240
9C40
8440
8480
6100
1E00
ENDCHAR
STARTCHAR 32EF
ENCODING 13039
SWIDTH 1000 0
DWIDTH 12 0
BBX 10 11 1 -1
BITMAP
1E00
6180
4E80
80C0
9840
8440
8040
9C40
8280
6100
1E00
ENDCHAR
STARTCHAR 32F0
ENCODING 13040
SWIDTH 1000 0
DWIDTH 12 0
BBX 10 11 1 -1
BITMAP
1E00
6980
4880
90C0
9040
9140
A1C0
FEC0
8080
6100
1E00
ENDCHAR
STARTCHAR 32F1
ENCODING 13041
SWIDTH 1000 0
DWIDTH 12 0
BBX 10 11 1 -1
BITMAP
1E00
6180
4280
82C0
8C40
8640
8940
9040
A080
6100
1E00
ENDCHAR
STARTCHAR 32F2
ENCODING 13042
SWIDTH 1000 0
DWIDTH 12 0
BBX 11 11 1 -1
BITMAP
1F00
6180
7F40
8860
8820
FF20
8820
8820
8FC0
6080
1F00
ENDCHAR
STARTCHAR 32F3
ENCODING 13043
SWIDTH 1000 0
DWIDTH 12 0
BBX 10 11 1 -1
BITMAP
1E00
6180
5080
91C0
FF40
8A40
8840
8840
8480
6500
1E00
ENDCHAR
STARTCHAR 32F4
ENCODING 13044
SWIDTH 1000 0
DWIDTH 12 0
BBX 10 11 1 -1
BITMAP
1E00
6180
4080
BEC0
8240
8240
8240
FD40
8080
6100
1E00
ENDCHAR
STARTCHAR 32F5
ENCODING 13045
SWIDTH 1000 0
DWIDTH 12 0
BBX 10 11 1 -1
BITMAP
1E00
6180
4180
BEC0
8240
9E40
8240
8240
BD80
6100
1E00
ENDCHAR
STARTCHAR 32F6
ENCODING 13046
SWIDTH 1000 0
DWIDTH 12 0
BBX 10 11 1 -1
BITMAP
1E00
6180
5E80
80C0
BF40
8240
8240
8440
8880
6100
1E00
ENDCHAR
STARTCHAR 32F7
ENCODING 13047
SWIDTH 1000 0
DWIDTH 12 0
BBX 10 11 1 -1
BITMAP
1E00
6100
5280
9240
9240
9240
9240
8440
8480
6900
1E00
ENDCHAR
STARTCHAR 32F8
ENCODING 13048
SWIDTH 1000 0
DWIDTH 12 0
BBX 10 11 1 -1
BITMAP
1E00
6180
4480
94C0
9440
94C0
A540
A640
8080
6100
1E00
ENDCHAR
STARTCHAR 32F9
ENCODING 13049
SWIDTH 1000 0
DWIDTH 12 0
BBX 10 11 1 -1
BITMAP
1E00
6180
5080
90C0
9040
9140
9240
9440
9880
6100
1E00
ENDCHAR
STARTCHAR 32FA
ENCODING 13050
SWIDTH 1000 0
DWIDTH 12 0
BBX 10 11 1 -1
BITMAP
1E00
6180
4080
BFC0
A140
A140
A140
AF40
B080
6100
1E00
ENDCHAR
STARTCHAR 32FB
ENCODING 13051
SWIDTH 1000 0
DWIDTH 12 0
BBX 10 11 1 -1
BITMAP
1E00
6180
4180
BFC0
A140
A240
8240
8440
8880
6100
1E00
ENDCHAR
STARTCHAR 32FC
ENCODING 13052
SWIDTH 1000 0
DWIDTH 12 0
BBX 12 11 0 -1
BITMAP
0F80
32C0
4220
9FF0
8A10
8A10
BFD0
8210
4220
3040
0F80
ENDCHAR
STARTCHAR 32FD
ENCODING 13053
SWIDTH 1000 0
DWIDTH 12 0
BBX 10 11 1 -1
BITMAP
1E00
6180
4180
BEC0
8C40
8840
8840
FFC0
8080
6100
1E00
ENDCHAR
STARTCHAR 32FE
ENCODING 13054
SWIDTH 1000 0
DWIDTH 12 0
BBX 10 11 1 -1
BITMAP
1E00
6180
4180
9FC0
8240
9E40
8240
8440
8880
7100
1E00
ENDCHAR
STARTCHAR 32FF
ENCODING 13055
SWIDTH 1000 0
DWIDTH 12 0
BBX 10 11 1 0
BITMAP
4000
2200
63C0
9340
0B40
0340
7340
5740
5340
5200
0200
ENDCHAR
STARTCHAR 3300
ENCODING 13056
SWIDTH 1000 0
DWIDTH 12 0
BBX 10 11 1 -1
BITMAP
F8C0
1280
6240
4440
4800
0000
0100
E100
12C0
0100
0100
ENDCHAR
STARTCHAR 3301
ENCODING 13057
SWIDTH 1000 0
DWIDTH 12 0
BBX 10 11 1 -1
BITMAP
F900
1300
2340
4340
4480
0000
F000
1380
2100
4100
0200
ENDCHAR
STARTCHAR 3302
ENCODING 13058
SWIDTH 1000 0
DWIDTH 12 0
BBX 10 11 1 -1
BITMAP
F800
1200
20C0
4100
4200
0000
1FC0
6180
9100
0900
0200
ENDCHAR
STARTCHAR 3303
ENCODING 13059
SWIDTH 1000 0
DWIDTH 12 0
BBX 11 11 0 -1
BITMAP
7C00
0800
13E0
2000
2000
0000
1000
3000
5400
5800
8000
ENDCHAR
STARTCHAR 3304
ENCODING 13060
SWIDTH 1000 0
DWIDTH 12 0
BBX 11 11 1 -1
BITMAP
1000
2380
6000
27C0
2000
0020
83C0
4380
1100
2200
C400
ENDCHAR
STARTCHAR 3305
ENCODING 13061
SWIDTH 1000 0
DWIDTH 12 0
BBX 10 10 1 -1
BITMAP
1000
2200
6040
2180
2200
0000
3000
E000
3000
4000
ENDCHAR
STARTCHAR 3306
ENCODING 13062
SWIDTH 1000 0
DWIDTH 12 0
BBX 10 11 1 -1
BITMAP
2000
7880
0BC0
1180
2280
0000
8000
4800
1000
2000
C000
ENDCHAR
STARTCHAR 3307
ENCODING 13063
SWIDTH 1000 0
DWIDTH 12 0
BBX 11 11 1 -1
BITMAP
73C0
2080
2080
E940
1020
00A0
70A0
AFC0
20A0
4080
0080
ENDCHAR
STARTCHAR 3308
ENCODING 13064
SWIDTH 1000 0
DWIDTH 12 0
BBX 11 10 1 -1
BITMAP
7000
2000
23E0
E800
1000
2000
6000
3B80
5040
5000
ENDCHAR
STARTCHAR 3309
ENCODING 13065
SWIDTH 1000 0
DWIDTH 12 0
BBX 10 10 1 -1
BITMAP
2000
EA00
3040
6180
A200
0000
7000
2000
2000
5800
ENDCHAR
STARTCHAR 330A
ENCODING 13066
SWIDTH 1000 0
DWIDTH 12 0
BBX 10 11 1 -1
BITMAP
2000
9800
67C0
6000
2000
0000
2000
4000
5000
9800
E800
ENDCHAR
STARTCHAR 330B
ENCODING 13067
SWIDTH 1000 0
DWIDTH 12 0
BBX 10 11 1 -1
BITMAP
2040
F880
4980
5080
9080
0000
5000
5000
5000
1000
4000
ENDCHAR
STARTCHAR 330C
ENCODING 13068
SWIDTH 1000 0
DWIDTH 12 0
BBX 10 11 1 -1
BITMAP
2380
FB80
5040
5080
9100
0000
0100
7100
11C0
2100
4100
ENDCHAR
STARTCHAR 330D
ENCODING 13069
SWIDTH 1000 0
DWIDTH 12 0
BBX 10 11 1 -1
BITMAP
2000
D3C0
7440
5480
9300
0000
1000
9700
1080
2000
4000
ENDCHAR
STARTCHAR 330E
ENCODING 13070
SWIDTH 1000 0
DWIDTH 12 0
BBX 10 11 1 0
BITMAP
2C00
F3C0
5A40
5240
93C0
0000
8000
4800
1000
2000
C000
ENDCHAR
STARTCHAR 330F
ENCODING 13071
SWIDTH 1000 0
DWIDTH 12 0
BBX 10 9 1 1
BITMAP
2A00
D040
5080
B300
0000
F800
1000
6000
2000
ENDCHAR
STARTCHAR 3310
ENCODING 13072
SWIDTH 1000 0
DWIDTH 12 0
BBX 11 11 1 0
BITMAP
4C00
3800
E000
F000
2000
0260
0680
0380
0280
0500
0900
ENDCHAR
STARTCHAR 3311
ENCODING 13073
SWIDTH 1000 0
DWIDTH 12 0
BBX 10 8 1 2
BITMAP
0B00
E080
F000
27C0
2000
0000
0000
F800
ENDCHAR
STARTCHAR 3312
ENCODING 13074
SWIDTH 1000 0
DWIDTH 12 0
BBX 10 11 1 -1
BITMAP
4000
E000
5B80
A080
27C0
0000
5000
5000
5780
1000
6000
ENDCHAR
STARTCHAR 3313
ENCODING 13075
SWIDTH 1000 0
DWIDTH 12 0
BBX 10 11 1 -1
BITMAP
4900
F300
5B40
A540
2480
0800
4800
7000
A780
5000
8000
ENDCHAR
STARTCHAR 3314
ENCODING 13076
SWIDTH 1000 0
DWIDTH 12 0
BBX 10 11 1 -1
BITMAP
6000
3800
E000
F000
2000
1000
07C0
0440
0480
05C0
0600
ENDCHAR
STARTCHAR 3315
ENCODING 13077
SWIDTH 1000 0
DWIDTH 12 0
BBX 11 11 1 -1
BITMAP
4000
E7C0
5C40
A280
2300
1000
6680
AE80
4340
8560
01A0
ENDCHAR
STARTCHAR 3316
ENCODING 13078
SWIDTH 1000 0
DWIDTH 12 0
BBX 10 11 1 -1
BITMAP
4040
EE40
5A40
EA80
4D00
0000
0880
C980
15C0
0A80
0800
ENDCHAR
STARTCHAR 3317
ENCODING 13079
SWIDTH 1000 0
DWIDTH 12 0
BBX 11 11 1 -1
BITMAP
4000
E7C0
3C40
E280
0300
0000
F080
A680
AAE0
4480
0880
ENDCHAR
STARTCHAR 3318
ENCODING 13080
SWIDTH 1000 0
DWIDTH 12 0
BBX 10 11 1 0
BITMAP
2F80
3380
D040
2080
4100
0000
2000
4000
5000
9800
E800
ENDCHAR
STARTCHAR 3319
ENCODING 13081
SWIDTH 1000 0
DWIDTH 12 0
BBX 11 11 1 0
BITMAP
5680
6C80
A300
4540
85A0
0000
4600
4040
7180
4200
4000
ENDCHAR
STARTCHAR 331A
ENCODING 13082
SWIDTH 1000 0
DWIDTH 12 0
BBX 10 11 1 -1
BITMAP
2100
5300
9340
2580
4500
0000
1240
B5C0
ED40
6540
0580
ENDCHAR
STARTCHAR 331B
ENCODING 13083
SWIDTH 1000 0
DWIDTH 12 0
BBX 10 10 1 -1
BITMAP
2000
57C0
9480
2480
4700
0000
0300
E080
1180
0340
ENDCHAR
STARTCHAR 331C
ENCODING 13084
SWIDTH 1000 0
DWIDTH 12 0
BBX 9 11 1 -1
BITMAP
4000
5800
A000
2780
4000
0000
F000
2000
2000
5000
0800
ENDCHAR
STARTCHAR 331D
ENCODING 13085
SWIDTH 1000 0
DWIDTH 12 0
BBX 10 11 1 -1
BITMAP
0100
F300
1340
F340
0480
0000
2000
F800
2000
4000
8000
ENDCHAR
STARTCHAR 331E
ENCODING 13086
SWIDTH 1000 0
DWIDTH 12 0
BBX 10 10 1 0
BITMAP
F000
17C0
F000
0000
1800
2800
F000
2000
A800
2000
ENDCHAR
STARTCHAR 331F
ENCODING 13087
SWIDTH 1000 0
DWIDTH 12 0
BBX 10 11 1 -1
BITMAP
5080
D900
7300
5100
2000
0000
3000
5300
A340
2580
C000
ENDCHAR
STARTCHAR 3320
ENCODING 13088
SWIDTH 1000 0
DWIDTH 12 0
BBX 11 11 1 -1
BITMAP
5000
DA00
7040
6180
2200
0000
6080
CC80
6140
4160
81A0
ENDCHAR
STARTCHAR 3321
ENCODING 13089
SWIDTH 1000 0
DWIDTH 12 0
BBX 11 11 1 -1
BITMAP
4280
0280
DA80
2080
4100
0020
8100
4A80
1480
2100
4200
ENDCHAR
STARTCHAR 3322
ENCODING 13090
SWIDTH 1000 0
DWIDTH 12 0
BBX 10 10 1 -1
BITMAP
4000
5A00
F040
4180
3A00
0000
3000
E000
3000
4000
ENDCHAR
STARTCHAR 3323
ENCODING 13091
SWIDTH 1000 0
DWIDTH 12 0
BBX 10 11 1 -1
BITMAP
4000
5A00
F0C0
4180
3A00
0000
0000
4000
7000
4000
4000
ENDCHAR
STARTCHAR 3324
ENCODING 13092
SWIDTH 1000 0
DWIDTH 12 0
BBX 9 11 1 0
BITMAP
0C00
7000
9000
2780
5000
0000
7000
2000
2000
5000
0800
ENDCHAR
STARTCHAR 3325
ENCODING 13093
SWIDTH 1000 0
DWIDTH 12 0
BBX 10 10 1 1
BITMAP
0400
7800
FC00
2000
2000
4000
0200
04C0
0100
0600
ENDCHAR
STARTCHAR 3326
ENCODING 13094
SWIDTH 1000 0
DWIDTH 12 0
BBX 9 10 2 -1
BITMAP
1000
8000
4000
A000
8000
8400
0C00
0C80
0D00
1200
ENDCHAR
STARTCHAR 3327
ENCODING 13095
SWIDTH 1000 0
DWIDTH 12 0
BBX 9 11 2 -1
BITMAP
8000
8000
4000
B000
8000
0000
0880
0100
0100
0600
0800
ENDCHAR
STARTCHAR 3328
ENCODING 13096
SWIDTH 1000 0
DWIDTH 12 0
BBX 9 9 1 0
BITMAP
1000
FC00
1000
2000
2080
0100
0100
0200
0400
ENDCHAR
STARTCHAR 3329
ENCODING 13097
SWIDTH 1000 0
DWIDTH 12 0
BBX 9 11 1 -1
BITMAP
1000
1000
2380
4080
8100
0000
2000
2000
3800
2000
2000
ENDCHAR
STARTCHAR 332A
ENCODING 13098
SWIDTH 1000 0
DWIDTH 12 0
BBX 10 11 1 -1
BITMAP
0040
5080
5180
8880
0080
0000
4800
A800
1000
2000
8000
ENDCHAR
STARTCHAR 332B
ENCODING 13099
SWIDTH 1000 0
DWIDTH 12 0
BBX 11 11 1 -1
BITMAP
1800
5000
57C0
8800
0000
0000
0880
F280
A2E0
6C80
0080
ENDCHAR
STARTCHAR 332D
ENCODING 13101
SWIDTH 1000 0
DWIDTH 12 0
BBX 10 9 1 1
BITMAP
4000
57C0
8800
0000
0000
0200
9340
A540
4480
ENDCHAR
STARTCHAR 332E
ENCODING 13102
SWIDTH 1000 0
DWIDTH 12 0
BBX 10 11 1 -1
BITMAP
1BC0
9080
A100
C100
7100
0000
E880
4980
4DC0
BA80
0800
ENDCHAR
STARTCHAR 332F
ENCODING 13103
SWIDTH 1000 0
DWIDTH 12 0
BBX 11 11 0 -1
BITMAP
0C80
08E0
5140
6040
3880
0000
0000
3000
3400
4C00
8800
ENDCHAR
STARTCHAR 3330
ENCODING 13104
SWIDTH 1000 0
DWIDTH 12 0
BBX 10 10 1 0
BITMAP
0C00
0800
9000
E000
8000
7800
07C0
0040
0080
0780
ENDCHAR
STARTCHAR 3331
ENCODING 13105
SWIDTH 1000 0
DWIDTH 12 0
BBX 9 11 1 0
BITMAP
0400
1800
A000
C000
8000
7800
0100
0500
0580
0900
0800
ENDCHAR
STARTCHAR 3332
ENCODING 13106
SWIDTH 1000 0
DWIDTH 12 0
BBX 10 11 1 -1
BITMAP
F800
13C0
1100
2100
4000
C000
0100
EE80
4540
4500
0800
ENDCHAR
STARTCHAR 3333
ENCODING 13107
SWIDTH 1000 0
DWIDTH 12 0
BBX 10 10 1 -1
BITMAP
F800
1080
1100
2100
4000
0000
0300
E100
12C0
0200
ENDCHAR
STARTCHAR 3334
ENCODING 13108
SWIDTH 1000 0
DWIDTH 12 0
BBX 11 11 0 0
BITMAP
0600
7800
1120
1040
2080
0000
4000
9EC0
24E0
2CA0
C100
ENDCHAR
STARTCHAR 3335
ENCODING 13109
SWIDTH 1000 0
DWIDTH 12 0
BBX 10 10 1 0
BITMAP
0380
FB80
1040
1080
2100
0000
C000
1000
2000
C000
ENDCHAR
STARTCHAR 3336
ENCODING 13110
SWIDTH 1000 0
DWIDTH 12 0
BBX 11 11 0 -1
BITMAP
0080
30E0
4940
0440
0080
0000
3040
5CC0
A0E0
5140
8000
ENDCHAR
STARTCHAR 3337
ENCODING 13111
SWIDTH 1000 0
DWIDTH 12 0
BBX 10 10 1 -1
BITMAP
1800
2800
5000
8C00
0000
0440
0240
0080
0080
0100
ENDCHAR
STARTCHAR 3338
ENCODING 13112
SWIDTH 1000 0
DWIDTH 12 0
BBX 10 10 1 0
BITMAP
1800
5BC0
B000
8B00
0080
8000
9000
A000
C000
7000
ENDCHAR
STARTCHAR 3339
ENCODING 13113
SWIDTH 1000 0
DWIDTH 12 0
BBX 10 10 1 -1
BITMAP
0100
4300
B340
0B40
0480
0000
4800
9000
1000
2000
ENDCHAR
STARTCHAR 333A
ENCODING 13114
SWIDTH 1000 0
DWIDTH 12 0
BBX 10 9 1 0
BITMAP
7A00
B040
9880
0300
0000
7000
2000
5000
8800
ENDCHAR
STARTCHAR 333B
ENCODING 13115
SWIDTH 1000 0
DWIDTH 12 0
BBX 10 11 1 -1
BITMAP
1800
7800
93C0
0800
0000
0800
4000
8800
1000
2000
C000
ENDCHAR
STARTCHAR 333C
ENCODING 13116
SWIDTH 1000 0
DWIDTH 12 0
BBX 10 9 1 0
BITMAP
6800
B7C0
8800
0000
4000
7000
E000
2000
5000
ENDCHAR
STARTCHAR 333D
ENCODING 13117
SWIDTH 1000 0
DWIDTH 12 0
BBX 10 11 1 -1
BITMAP
3840
E080
3100
2B00
E800
0000
0100
4900
11C0
2100
4100
ENDCHAR
STARTCHAR 333E
ENCODING 13118
SWIDTH 1000 0
DWIDTH 12 0
BBX 10 10 1 0
BITMAP
2800
E200
3340
3340
EC80
0000
0000
4000
7000
4000
ENDCHAR
STARTCHAR 333F
ENCODING 13119
SWIDTH 1000 0
DWIDTH 12 0
BBX 10 11 1 -1
BITMAP
2000
E000
3000
2800
A000
2000
0600
0040
0080
0100
0600
ENDCHAR
STARTCHAR 3340
ENCODING 13120
SWIDTH 1000 0
DWIDTH 12 0
BBX 10 10 1 -1
BITMAP
3800
FA00
2040
2980
EA00
0000
0800
4000
7000
4000
ENDCHAR
STARTCHAR 3341
ENCODING 13121
SWIDTH 1000 0
DWIDTH 12 0
BBX 11 11 0 -1
BITMAP
1000
7000
1BE0
1800
7400
0000
1000
3000
5400
5800
8000
ENDCHAR
STARTCHAR 3342
ENCODING 13122
SWIDTH 1000 0
DWIDTH 12 0
BBX 10 11 1 -1
BITMAP
2000
E000
37C0
3000
E800
0000
8000
4000
1000
2000
C000
ENDCHAR
STARTCHAR 3343
ENCODING 13123
SWIDTH 1000 0
DWIDTH 12 0
BBX 10 10 1 -1
BITMAP
0040
F880
5300
2100
2000
0000
30C0
D740
2480
43C0
ENDCHAR
STARTCHAR 3344
ENCODING 13124
SWIDTH 1000 0
DWIDTH 12 0
BBX 10 10 1 -1
BITMAP
0040
F880
1100
2300
1000
0000
0000
6000
6800
9000
ENDCHAR
STARTCHAR 3345
ENCODING 13125
SWIDTH 1000 0
DWIDTH 12 0
BBX 10 9 1 0
BITMAP
F800
1340
2080
1100
0000
1000
4800
8800
8000
ENDCHAR
STARTCHAR 3346
ENCODING 13126
SWIDTH 1000 0
DWIDTH 12 0
BBX 10 10 1 -1
BITMAP
0100
FB00
1340
6540
2480
0000
7000
9000
2000
4000
ENDCHAR
STARTCHAR 3347
ENCODING 13127
SWIDTH 1000 0
DWIDTH 12 0
BBX 10 10 1 0
BITMAP
FA00
1040
6180
2200
0000
8100
8C40
2C80
4500
8800
ENDCHAR
STARTCHAR 3348
ENCODING 13128
SWIDTH 1000 0
DWIDTH 12 0
BBX 10 11 1 -1
BITMAP
4100
31C0
6280
0080
7300
0000
9000
F240
9080
B100
4200
ENDCHAR
STARTCHAR 3349
ENCODING 13129
SWIDTH 1000 0
DWIDTH 12 0
BBX 8 11 2 -1
BITMAP
80
60
E0
00
C0
25
05
05
05
02
04
ENDCHAR
STARTCHAR 334A
ENCODING 13130
SWIDTH 1000 0
DWIDTH 12 0
BBX 11 10 0 -1
BITMAP
3140
0140
3140
0040
3880
0000
0840
56C0
50E0
8940
ENDCHAR
STARTCHAR 334B
ENCODING 13131
SWIDTH 1000 0
DWIDTH 12 0
BBX 10 11 1 -1
BITMAP
1000
1000
3000
3000
4800
8240
0E80
0380
0480
0500
0100
ENDCHAR
STARTCHAR 334C
ENCODING 13132
SWIDTH 1000 0
DWIDTH 12 0
BBX 10 11 1 0
BITMAP
1140
1780
2280
5280
8580
0000
4600
4080
7100
4600
4000
ENDCHAR
STARTCHAR 334D
ENCODING 13133
SWIDTH 1000 0
DWIDTH 12 0
BBX 10 11 1 -1
BITMAP
1000
1000
27C0
5000
8000
0000
4000
4300
7340
4580
4000
ENDCHAR
STARTCHAR 334E
ENCODING 13134
SWIDTH 1000 0
DWIDTH 12 0
BBX 10 11 1 -1
BITMAP
4000
D800
77C0
2000
2000
0000
5800
4000
7000
4000
4000
ENDCHAR
STARTCHAR 334F
ENCODING 13135
SWIDTH 1000 0
DWIDTH 12 0
BBX 11 11 0 -1
BITMAP
2000
2C00
7BE0
1000
1000
0000
0000
3000
3400
5400
8800
ENDCHAR
STARTCHAR 3350
ENCODING 13136
SWIDTH 1000 0
DWIDTH 12 0
BBX 10 10 1 0
BITMAP
03C0
7080
1100
1100
E200
0000
C000
1000
2000
C000
ENDCHAR
STARTCHAR 3351
ENCODING 13137
SWIDTH 1000 0
DWIDTH 12 0
BBX 10 11 1 -1
BITMAP
1000
9040
1380
1080
2100
0000
4000
4300
7340
4480
4000
ENDCHAR
STARTCHAR 3352
ENCODING 13138
SWIDTH 1000 0
DWIDTH 12 0
BBX 9 11 2 -1
BITMAP
2000
A000
A000
A000
4000
8700
0000
0F80
0100
0200
0400
ENDCHAR
STARTCHAR 3353
ENCODING 13139
SWIDTH 1000 0
DWIDTH 12 0
BBX 11 9 1 1
BITMAP
0060
2260
6380
AA00
B380
0000
0000
0000
F000
ENDCHAR
STARTCHAR 3354
ENCODING 13140
SWIDTH 1000 0
DWIDTH 12 0
BBX 10 10 1 -1
BITMAP
2000
6000
6BC0
B000
A000
0800
F000
1300
2340
4480
ENDCHAR
STARTCHAR 3355
ENCODING 13141
SWIDTH 1000 0
DWIDTH 12 0
BBX 10 9 1 1
BITMAP
4000
4800
5000
A000
4200
0200
0400
0480
0F40
ENDCHAR
STARTCHAR 3356
ENCODING 13142
SWIDTH 1000 0
DWIDTH 12 0
BBX 10 11 1 -1
BITMAP
0400
8240
9080
A100
4200
0200
8980
9440
E840
8980
8000
ENDCHAR
STARTCHAR 3357
ENCODING 13143
SWIDTH 1000 0
DWIDTH 12 0
BBX 10 10 1 -1
BITMAP
9800
E800
1340
1080
2100
0000
0000
4000
7000
4000
ENDCHAR
STARTCHAR 3371
ENCODING 13169
SWIDTH 1000 0
DWIDTH 12 0
BBX 11 8 1 2
BITMAP
8E00
8A00
EBC0
AB40
AC40
A9C0
A940
A9E0
ENDCHAR
STARTCHAR 337B
ENCODING 13179
SWIDTH 1000 0
DWIDTH 12 0
BBX 11 11 1 -2
BITMAP
0080
7140
AFE0
B500
3480
27C0
FDC0
2680
26A0
2960
2920
ENDCHAR
STARTCHAR 337C
ENCODING 13180
SWIDTH 1000 0
DWIDTH 12 0
BBX 10 10 1 0
BITMAP
DB00
EAC0
EBC0
EAC0
CAC0
FBC0
EEC0
EAC0
EAC0
3A00
ENDCHAR
STARTCHAR 337D
ENCODING 13181
SWIDTH 1000 0
DWIDTH 12 0
BBX 10 11 1 0
BITMAP
2040
27C0
2100
7500
2540
2580
6500
5500
5500
9540
0A80
ENDCHAR
STARTCHAR 337E
ENCODING 13182
SWIDTH 1000 0
DWIDTH 12 0
BBX 11 11 1 -1
BITMAP
2880
FB00
EB00
FF40
EBA0
EC00
FDC0
ED40
CD40
4D40
19C0
ENDCHAR
STARTCHAR 337F
ENCODING 13183
SWIDTH 1000 0
DWIDTH 12 0
BBX 12 11 0 0
BITMAP
5820
FFF0
4880
F940
5F20
4800
3040
4940
9140
7940
1020
ENDCHAR
STARTCHAR 3385
ENCODING 13189
SWIDTH 1000 0
DWIDTH 12 0
BBX 11 8 1 1
BITMAP
9380
A240
A240
C280
E340
A220
9220
9240
ENDCHAR
STARTCHAR 3386
ENCODING 13190
SWIDTH 1000 0
DWIDTH 12 0
BBX 10 8 1 1
BITMAP
CB80
CA40
DA40
EA80
EB40
EA40
AA40
AA80
ENDCHAR
STARTCHAR 3387
ENCODING 13191
SWIDTH 1000 0
DWIDTH 12 0
BBX 11 8 1 1
BITMAP
7380
C240
8240
8380
8A60
8A20
CA20
7A40
ENDCHAR
STARTCHAR 3388
ENCODING 13192
SWIDTH 1000 0
DWIDTH 12 0
BBX 10 9 1 0
BITMAP
0040
00C0
6540
6B80
8D80
9500
9900
D940
D480
ENDCHAR
STARTCHAR 3389
ENCODING 13193
SWIDTH 1000 0
DWIDTH 12 0
BBX 12 8 0 1
BITMAP
C010
4030
4030
52D0
65E0
65A0
55D0
55A0
ENDCHAR
STARTCHAR 338D
ENCODING 13197
SWIDTH 1000 0
DWIDTH 12 0
BBX 12 8 0 -2
BITMAP
00F0
2530
4920
49C0
4900
48C0
B520
81E0
ENDCHAR
STARTCHAR 338E
ENCODING 13198
SWIDTH 1000 0
DWIDTH 12 0
BBX 12 8 0 -1
BITMAP
FCF0
5520
5520
54C0
5500
55E0
0120
01E0
ENDCHAR
STARTCHAR 338F
ENCODING 13199
SWIDTH 1000 0
DWIDTH 12 0
BBX 11 10 0 -1
BITMAP
C000
4000
4000
49E0
5240
71C0
5200
4BC0
0220
01E0
ENDCHAR
STARTCHAR 3390
ENCODING 13200
SWIDTH 1000 0
DWIDTH 12 0
BBX 11 8 0 1
BITMAP
4400
4400
4400
45E0
7C40
4480
4500
EFE0
ENDCHAR
STARTCHAR 3396
ENCODING 13206
SWIDTH 1000 0
DWIDTH 12 0
BBX 11 9 0 1
BITMAP
0060
00A0
00A0
FCA0
5540
5540
5480
5520
54C0
ENDCHAR
STARTCHAR 3397
ENCODING 13207
SWIDTH 1000 0
DWIDTH 12 0
BBX 11 9 1 1
BITMAP
08C0
0940
7940
C940
8A80
8B00
8920
4F40
3980
ENDCHAR
STARTCHAR 3398
ENCODING 13208
SWIDTH 1000 0
DWIDTH 12 0
BBX 11 8 1 1
BITMAP
C0C0
40C0
4140
4940
7280
5300
4A20
49C0
ENDCHAR
STARTCHAR 339B
ENCODING 13211
SWIDTH 1000 0
DWIDTH 12 0
BBX 12 7 -1 -1
BITMAP
27F0
2950
4950
4950
4950
BD50
8000
ENDCHAR
STARTCHAR 339C
ENCODING 13212
SWIDTH 1000 0
DWIDTH 12 0
BBX 11 6 0 1
BITMAP
FFE0
56A0
56A0
56A0
56A0
56A0
ENDCHAR
STARTCHAR 339D
ENCODING 13213
SWIDTH 1000 0
DWIDTH 12 0
BBX 10 6 1 1
BITMAP
7FC0
9540
8540
8540
9540
6540
ENDCHAR
STARTCHAR 339E
ENCODING 13214
SWIDTH 1000 0
DWIDTH 12 0
BBX 11 8 0 1
BITMAP
C000
4000
4000
43E0
72A0
52A0
52A0
4AA0
ENDCHAR
STARTCHAR 339F
ENCODING 13215
SWIDTH 1000 0
DWIDTH 12 0
BBX 11 9 1 1
BITMAP
00E0
0040
00A0
FBC0
AD40
AD40
AD40
AD40
AD40
ENDCHAR
STARTCHAR 33A0
ENCODING 13216
SWIDTH 1000 0
DWIDTH 12 0
BBX 11 9 1 1
BITMAP
0020
0040
00A0
77C0
9540
8540
8540
8540
6540
ENDCHAR
STARTCHAR 33A1
ENCODING 13217
SWIDTH 1000 0
DWIDTH 12 0
BBX 9 9 2 1
BITMAP
0180
0080
0300
B700
C900
8900
8900
8900
8900
ENDCHAR
STARTCHAR 33A2
ENCODING 13218
SWIDTH 1000 0
DWIDTH 12 0
BBX 11 9 1 1
BITMAP
00E0
8040
80A0
8040
87C0
E540
A540
A540
9540
ENDCHAR
STARTCHAR 33A3
ENCODING 13219
SWIDTH 1000 0
DWIDTH 12 0
BBX 12 9 0 2
BITMAP
0070
0010
0050
FFE0
56A0
56A0
56A0
56A0
56A0
ENDCHAR
STARTCHAR 33A4
ENCODING 13220
SWIDTH 1000 0
DWIDTH 12 0
BBX 11 9 1 2
BITMAP
0020
0020
0020
7FC0
9540
8540
8540
9540
6540
ENDCHAR
STARTCHAR 33A5
ENCODING 13221
SWIDTH 1000 0
DWIDTH 12 0
BBX 10 9 1 2
BITMAP
00C0
0040
0040
DB80
6480
4480
4480
4480
4480
ENDCHAR
STARTCHAR 33A6
ENCODING 13222
SWIDTH 1000 0
DWIDTH 12 0
BBX 12 9 0 1
BITMAP
0070
C010
4050
4020
43E0
72A0
52A0
52A0
4AA0
ENDCHAR
STARTCHAR 33B0
ENCODING 13232
SWIDTH 1000 0
DWIDTH 12 0
BBX 10 8 1 -1
BITMAP
F380
9A40
8A00
8980
9A40
F3C0
8000
8000
ENDCHAR
STARTCHAR 33B1
ENCODING 13233
SWIDTH 1000 0
DWIDTH 12 0
BBX 11 6 0 1
BITMAP
D9C0
6520
4500
44C0
4520
45E0
ENDCHAR
STARTCHAR 33B2
ENCODING 13234
SWIDTH 1000 0
DWIDTH 12 0
BBX 11 8 0 -2
BITMAP
01C0
4520
4900
88C0
8820
9920
E4E0
8000
ENDCHAR
STARTCHAR 33B3
ENCODING 13235
SWIDTH 1000 0
DWIDTH 12 0
BBX 11 6 0 1
BITMAP
FCC0
5520
5500
54C0
5520
55E0
ENDCHAR
STARTCHAR 33C2
ENCODING 13250
SWIDTH 1000 0
DWIDTH 12 0
BBX 10 6 0 1
BITMAP
73C0
52C0
12C0
F2C0
92C0
F2C0
ENDCHAR
STARTCHAR 33C4
ENCODING 13252
SWIDTH 1000 0
DWIDTH 12 0
BBX 9 7 1 0
BITMAP
7380
D280
8400
8400
8400
D680
7380
ENDCHAR
STARTCHAR 33C8
ENCODING 13256
SWIDTH 1000 0
DWIDTH 12 0
BBX 12 9 0 1
BITMAP
09E0
0920
7920
C940
89A0
8910
8910
7920
00C0
ENDCHAR
STARTCHAR 33CB
ENCODING 13259
SWIDTH 1000 0
DWIDTH 12 0
BBX 9 8 2 1
BITMAP
8F00
8880
8880
8880
FF00
8800
8800
8800
ENDCHAR
STARTCHAR 33CD
ENCODING 13261
SWIDTH 1000 0
DWIDTH 12 0
BBX 10 8 1 1
BITMAP
A400
C500
C600
C600
C500
C500
A500
A4C0
ENDCHAR
STARTCHAR 33D4
ENCODING 13268
SWIDTH 1000 0
DWIDTH 12 0
BBX 11 8 0 1
BITMAP
0100
0100
FDC0
5520
5520
5520
5520
55C0
ENDCHAR
STARTCHAR 33D7
ENCODING 13271
SWIDTH 1000 0
DWIDTH 12 0
BBX 10 10 1 -1
BITMAP
0440
0440
0440
E440
97C0
9440
9440
E440
8000
8000
ENDCHAR
STARTCHAR 33D8
ENCODING 13272
SWIDTH 1000 0
DWIDTH 12 0
BBX 12 8 0 -1
BITMAP
F7C0
4AC0
4AC0
4AC0
4AC0
72D0
4000
4000
ENDCHAR
STARTCHAR 33DA
ENCODING 13274
SWIDTH 1000 0
DWIDTH 12 0
BBX 9 8 1 1
BITMAP
E700
9480
9480
9500
E700
8500
8480
8480
ENDCHAR
STARTCHAR 3402
ENCODING 13314
SWIDTH 1000 0
DWIDTH 12 0
BBX 10 11 1 -1
BITMAP
1000
1080
3F00
5100
1F00
0000
4240
7380
C200
4A40
7BC0
ENDCHAR
STARTCHAR 3406
ENCODING 13318
SWIDTH 1000 0
DWIDTH 12 0
BBX 7 11 2 0
BITMAP
0E
70
7E
42
7E
7E
40
7E
82
82
0C
ENDCHAR
STARTCHAR 342C
ENCODING 13356
SWIDTH 1000 0
DWIDTH 12 0
BBX 10 11 1 -1
BITMAP
0400
0840
7F80
1100
7EC0
4040
2900
2900
4940
49C0
8000
ENDCHAR
STARTCHAR 342E
ENCODING 13358
SWIDTH 1000 0
DWIDTH 12 0
BBX 10 11 1 0
BITMAP
0440
FFC0
1B00
F9C0
3680
7FC0
1200
6DC0
7280
1780
6840
ENDCHAR
STARTCHAR 3468
ENCODING 13416
SWIDTH 1000 0
DWIDTH 12 0
BBX 11 11 0 -2
BITMAP
1040
17C0
2440
27C0
2200
E5C0
A920
2FE0
2100
2280
2460
ENDCHAR
STARTCHAR 346A
ENCODING 13418
SWIDTH 1000 0
DWIDTH 12 0
BBX 11 11 0 -1
BITMAP
0100
1100
26E0
2300
22C0
FC60
A7C0
2440
27C0
2840
3040
ENDCHAR
STARTCHAR 3492
ENCODING 13458
SWIDTH 1000 0
DWIDTH 12 0
BBX 12 11 0 -2
BITMAP
1280
1AA0
26C0
2560
2280
6560
A7C0
2FF0
2380
2540
2930
ENDCHAR
STARTCHAR 34B5
ENCODING 13493
SWIDTH 1000 0
DWIDTH 12 0
BBX 10 11 1 -1
BITMAP
0C00
0880
7780
4080
7F80
4080
7F80
4080
1300
2080
C040
ENDCHAR
STARTCHAR 34BC
ENCODING 13500
SWIDTH 1000 0
DWIDTH 12 0
BBX 10 11 1 0
BITMAP
1200
FFC0
1200
1E00
7F80
4480
5480
5680
6F80
4480
4580
ENDCHAR
STARTCHAR 34C1
ENCODING 13505
SWIDTH 1000 0
DWIDTH 12 0
BBX 11 5 0 3
BITMAP
7FE0
9A00
1240
23E0
C000
ENDCHAR
STARTCHAR 34C7
ENCODING 13511
SWIDTH 1000 0
DWIDTH 12 0
BBX 10 10 1 0
BITMAP
8380
5E00
2200
4200
4FC0
8300
8500
4480
4840
3000
ENDCHAR
STARTCHAR 34DB
ENCODING 13531
SWIDTH 1000 0
DWIDTH 12 0
BBX 10 9 1 0
BITMAP
0FC0
7240
2240
2240
2240
2440
7440
8440
0980
ENDCHAR
STARTCHAR 351F
ENCODING 13599
SWIDTH 1000 0
DWIDTH 12 0
BBX 10 11 1 -1
BITMAP
2100
E100
B380
2380
72C0
3440
C400
FFC0
0840
1080
E180
ENDCHAR
STARTCHAR 355D
ENCODING 13661
SWIDTH 1000 0
DWIDTH 12 0
BBX 10 10 1 0
BITMAP
0400
FFC0
7F80
4080
7F80
0000
7F00
1A00
0F00
F0C0
ENDCHAR
STARTCHAR 355E
ENCODING 13662
SWIDTH 1000 0
DWIDTH 12 0
BBX 12 9 0 0
BITMAP
7FF0
42A0
7CA0
4AA0
7EA0
6A40
AA40
AAA0
8910
ENDCHAR
ENDFONT
